<?xml version="1.0" encoding="UTF-8" standalone="no"?>
<svg
   viewBox="0 0 16 16"
   x="0px"
   y="0px"
   version="1.1"
   id="svg5"
   sodipodi:docname="dv-base_air.svg"
   width="16"
   height="16"
   inkscape:version="1.4.2 (f4327f4, 2025-05-13)"
   xmlns:inkscape="http://www.inkscape.org/namespaces/inkscape"
   xmlns:sodipodi="http://sodipodi.sourceforge.net/DTD/sodipodi-0.dtd"
   xmlns="http://www.w3.org/2000/svg"
   xmlns:svg="http://www.w3.org/2000/svg"
   xmlns:rdf="http://www.w3.org/1999/02/22-rdf-syntax-ns#"
   xmlns:cc="http://creativecommons.org/ns#"
   xmlns:dc="http://purl.org/dc/elements/1.1/">
  <defs
     id="defs5">
    <linearGradient
       id="swatch7"
       inkscape:swatch="solid">
      <stop
         style="stop-color:#ffffff;stop-opacity:1;"
         offset="0"
         id="stop7" />
    </linearGradient>
  </defs>
  <sodipodi:namedview
     id="namedview5"
     pagecolor="#ffffff"
     bordercolor="#000000"
     borderopacity="0.25"
     inkscape:showpageshadow="2"
     inkscape:pageopacity="0.0"
     inkscape:pagecheckerboard="0"
     inkscape:deskcolor="#d1d1d1"
     inkscape:zoom="22.627417"
     inkscape:cx="-1.0827573"
     inkscape:cy="6.1429902"
     inkscape:window-width="1920"
     inkscape:window-height="1010"
     inkscape:window-x="2873"
     inkscape:window-y="-6"
     inkscape:window-maximized="1"
     inkscape:current-layer="svg5"
     showguides="true" />
  <title
     id="title1">glyph</title>
  <metadata
     id="metadata5">
    <rdf:RDF>
      <cc:Work
         rdf:about="">
        <dc:title>glyph</dc:title>
      </cc:Work>
    </rdf:RDF>
  </metadata>
  <path
     d="M 15.272727,7.2727272 H 14.749091 C 14.402286,4.1016963 11.898303,1.5977142 8.7272726,1.2509091 V 0.72727272 c -2.274e-4,-0.96946907 -1.4547728,-0.96946907 -1.4545454,0 V 1.2509091 C 4.1016964,1.5977144 1.5977144,4.1016964 1.2509091,7.2727272 H 0.72727272 c -0.96946907,2.274e-4 -0.96946907,1.4547728 0,1.4545454 H 1.2509091 c 0.3468051,3.1710304 2.8507872,5.6750134 6.0218181,6.0218184 v 0.523636 c 2.274e-4,0.969469 1.4547728,0.969469 1.4545454,0 V 14.749091 C 11.898304,14.402286 14.402286,11.898304 14.749091,8.7272726 h 0.523636 c 0.969469,-2.274e-4 0.969469,-1.4547728 0,-1.4545454 z M 7.7575757,0.72727272 c 0,-0.32323219 0.4848485,-0.32323219 0.4848485,0 V 1.2193939 c -0.08,-0.00485 -0.16,-0.00727 -0.2424243,-0.00727 -0.082424,0 -0.1624242,0.00242 -0.2424242,0.00727 z M 0.72727272,8.2424242 c -0.32323219,0 -0.32323219,-0.4848485 0,-0.4848485 H 1.2193939 c -0.00485,0.08 -0.00727,0.16 -0.00727,0.2424242 0,0.082424 0.00242,0.1624243 0.00727,0.2424243 z M 8.2424242,15.272727 c 0,0.323232 -0.4848485,0.323232 -0.4848485,0 v -0.492121 c 0.08,0.0048 0.16,0.0073 0.2424242,0.0073 0.082424,0 0.1624243,-0.0024 0.2424243,-0.0073 z M 15.272727,8.2424242 h -0.492121 c 0.0048,-0.08 0.0073,-0.16 0.0073,-0.2424243 0,-0.082424 -0.0024,-0.1624242 -0.0073,-0.2424242 h 0.492121 c 0.323232,0 0.323232,0.4848485 0,0.4848485 z"
     id="path1"
     style="stroke-width:0.242424"
     sodipodi:nodetypes="cccccccccccccccccsscscssscscssscscsscscss" />
  <path
     d="M 8.6327272,9.5442423 9.2703029,9.2703029 11.175757,4.8242424 6.7296969,6.7296969 6.4557575,7.3672727 A 1.662,1.662 0 0 0 8.6327272,9.5442423 Z M 7.9999999,7.030303 A 0.96969696,0.96969696 0 1 1 7.030303,7.9999999 0.96942302,0.96942302 0 0 1 7.9999999,7.030303 Z"
     id="path2"
     style="stroke-width:0.242424" />
  <path
     d="M 6.8276508,14.929333 A 7.0012363,7.0012363 0 0 1 1.0706667,9.172349 0.24239515,0.24239515 0 1 0 0.59244848,9.2518932 7.4857139,7.4857139 0 0 0 6.7481066,15.407551 0.24239515,0.24239515 0 1 0 6.8276508,14.929333 Z"
     id="path3"
     style="stroke-width:0.242424" />
  <path
     d="M 9.172349,1.0706667 A 7.0013624,7.0013624 0 0 1 14.929454,6.8276508 0.24239565,0.24239565 0 1 0 15.407675,6.7481066 7.4858448,7.4858448 0 0 0 9.2518932,0.59244848 0.24239515,0.24239515 0 1 0 9.172349,1.0706667 Z"
     id="path4"
     style="stroke-width:0.242424" />
  <circle
     style="fill:#df5600;fill-opacity:1;stroke:none;stroke-width:1.38853;stroke-opacity:1"
     id="path6"
     cx="8"
     cy="8"
     r="4.3359122" />
  <path
     fill-rule="evenodd"
     clip-rule="evenodd"
     d="M 9.6932201,5.1567484 C 9.931896,5.0491656 10.363321,4.9310488 10.696149,5.2638231 c 0.332858,0.3328039 0.2147,0.7642742 0.107123,1.002938 -0.07834,0.1737552 -0.185916,0.3586279 -0.322216,0.4949519 L 9.5344551,7.7083262 10.274158,10.667135 c 0.09633,0.385377 -0.4076605,0.623116 -0.6437668,0.303651 L 8.2030815,9.0396994 7.3467323,9.8960485 7.1695551,11.136172 c -0.047107,0.329684 -0.4763186,0.427041 -0.6610582,0.149937 L 5.773131,10.183071 4.5732535,9.3523607 C 4.2908868,9.1568909 4.4129466,8.7148836 4.7556401,8.6920561 L 6.0730152,8.6042231 6.9202998,7.7569443 4.9892222,6.3296169 C 4.6697609,6.0934958 4.9074871,5.5895097 5.2928765,5.6858569 L 8.2516697,6.4255589 9.198271,5.4789701 C 9.3345711,5.342652 9.519489,5.2350723 9.6932201,5.1567484 Z M 9.6189019,5.9135183 8.582442,6.9499872 C 8.4923111,7.0401059 8.3615142,7.0763306 8.2378825,7.0454212 L 6.3295389,6.5683352 7.5055878,7.437598 c 0.1783874,0.1318432 0.197768,0.3914873 0.040906,0.5483168 L 6.4363393,9.096088 C 6.3741963,9.158221 6.2916096,9.195682 6.2039243,9.201548 L 5.4867901,9.249349 6.2122393,9.7515844 6.6604659,10.423923 6.7594919,9.7307225 C 6.7705911,9.6530186 6.8066058,9.5809983 6.8621161,9.5254866 L 7.9740792,8.4134997 C 8.1309386,8.2566701 8.3905677,8.2760206 8.5223931,8.4544076 L 9.3916525,9.6304629 8.9145729,7.7221131 c -0.030901,-0.1236254 0.0053,-0.2544195 0.095452,-0.3445383 L 10.046485,6.3411059 c 0.02543,-0.030289 0.134153,-0.1645486 0.205508,-0.3228597 0.08711,-0.1932145 0.06253,-0.2808933 0.0166,-0.3268023 C 10.222632,5.6455076 10.13492,5.6209417 9.9417173,5.7080306 9.7834366,5.7793886 9.6491921,5.888105 9.618897,5.9135176 Z"
     fill="#0f0f0f"
     id="path1-4"
     style="stroke-width:0.302351" />
</svg>
