<?xml version="1.0" encoding="UTF-8" standalone="no"?>
<svg
   viewBox="0 0 16 16"
   x="0px"
   y="0px"
   version="1.1"
   id="svg5"
   sodipodi:docname="dv-base_army.svg"
   width="16"
   height="16"
   inkscape:version="1.4.2 (f4327f4, 2025-05-13)"
   xmlns:inkscape="http://www.inkscape.org/namespaces/inkscape"
   xmlns:sodipodi="http://sodipodi.sourceforge.net/DTD/sodipodi-0.dtd"
   xmlns="http://www.w3.org/2000/svg"
   xmlns:svg="http://www.w3.org/2000/svg"
   xmlns:rdf="http://www.w3.org/1999/02/22-rdf-syntax-ns#"
   xmlns:cc="http://creativecommons.org/ns#"
   xmlns:dc="http://purl.org/dc/elements/1.1/">
  <defs
     id="defs5">
    <linearGradient
       id="swatch7"
       inkscape:swatch="solid">
      <stop
         style="stop-color:#ffffff;stop-opacity:1;"
         offset="0"
         id="stop7" />
    </linearGradient>
  </defs>
  <sodipodi:namedview
     id="namedview5"
     pagecolor="#ffffff"
     bordercolor="#000000"
     borderopacity="0.25"
     inkscape:showpageshadow="2"
     inkscape:pageopacity="0.0"
     inkscape:pagecheckerboard="0"
     inkscape:deskcolor="#d1d1d1"
     inkscape:zoom="22.627417"
     inkscape:cx="20.572388"
     inkscape:cy="2.2539029"
     inkscape:window-width="1920"
     inkscape:window-height="1010"
     inkscape:window-x="2873"
     inkscape:window-y="-6"
     inkscape:window-maximized="1"
     inkscape:current-layer="svg5"
     showguides="true" />
  <title
     id="title1">glyph</title>
  <metadata
     id="metadata5">
    <rdf:RDF>
      <cc:Work
         rdf:about="">
        <dc:title>glyph</dc:title>
      </cc:Work>
    </rdf:RDF>
  </metadata>
  <path
     d="M 15.272727,7.2727272 H 14.749091 C 14.402286,4.1016963 11.898303,1.5977142 8.7272726,1.2509091 V 0.72727272 c -2.274e-4,-0.96946907 -1.4547728,-0.96946907 -1.4545454,0 V 1.2509091 C 4.1016964,1.5977144 1.5977144,4.1016964 1.2509091,7.2727272 H 0.72727272 c -0.96946907,2.274e-4 -0.96946907,1.4547728 0,1.4545454 H 1.2509091 c 0.3468051,3.1710304 2.8507872,5.6750134 6.0218181,6.0218184 v 0.523636 c 2.274e-4,0.969469 1.4547728,0.969469 1.4545454,0 V 14.749091 C 11.898304,14.402286 14.402286,11.898304 14.749091,8.7272726 h 0.523636 c 0.969469,-2.274e-4 0.969469,-1.4547728 0,-1.4545454 z M 7.7575757,0.72727272 c 0,-0.32323219 0.4848485,-0.32323219 0.4848485,0 V 1.2193939 c -0.08,-0.00485 -0.16,-0.00727 -0.2424243,-0.00727 -0.082424,0 -0.1624242,0.00242 -0.2424242,0.00727 z M 0.72727272,8.2424242 c -0.32323219,0 -0.32323219,-0.4848485 0,-0.4848485 H 1.2193939 c -0.00485,0.08 -0.00727,0.16 -0.00727,0.2424242 0,0.082424 0.00242,0.1624243 0.00727,0.2424243 z M 8.2424242,15.272727 c 0,0.323232 -0.4848485,0.323232 -0.4848485,0 v -0.492121 c 0.08,0.0048 0.16,0.0073 0.2424242,0.0073 0.082424,0 0.1624243,-0.0024 0.2424243,-0.0073 z M 15.272727,8.2424242 h -0.492121 c 0.0048,-0.08 0.0073,-0.16 0.0073,-0.2424243 0,-0.082424 -0.0024,-0.1624242 -0.0073,-0.2424242 h 0.492121 c 0.323232,0 0.323232,0.4848485 0,0.4848485 z"
     id="path1"
     style="stroke-width:0.242424"
     sodipodi:nodetypes="cccccccccccccccccsscscssscscssscscsscscss" />
  <path
     d="M 8.6327272,9.5442423 9.2703029,9.2703029 11.175757,4.8242424 6.7296969,6.7296969 6.4557575,7.3672727 A 1.662,1.662 0 0 0 8.6327272,9.5442423 Z M 7.9999999,7.030303 A 0.96969696,0.96969696 0 1 1 7.030303,7.9999999 0.96942302,0.96942302 0 0 1 7.9999999,7.030303 Z"
     id="path2"
     style="stroke-width:0.242424" />
  <path
     d="M 6.8276508,14.929333 A 7.0012363,7.0012363 0 0 1 1.0706667,9.172349 0.24239515,0.24239515 0 1 0 0.59244848,9.2518932 7.4857139,7.4857139 0 0 0 6.7481066,15.407551 0.24239515,0.24239515 0 1 0 6.8276508,14.929333 Z"
     id="path3"
     style="stroke-width:0.242424" />
  <path
     d="M 9.172349,1.0706667 A 7.0013624,7.0013624 0 0 1 14.929454,6.8276508 0.24239565,0.24239565 0 1 0 15.407675,6.7481066 7.4858448,7.4858448 0 0 0 9.2518932,0.59244848 0.24239515,0.24239515 0 1 0 9.172349,1.0706667 Z"
     id="path4"
     style="stroke-width:0.242424" />
  <circle
     style="fill:#df5600;fill-opacity:1;stroke:none;stroke-width:1.38853;stroke-opacity:1"
     id="path6"
     cx="8"
     cy="8"
     r="4.3359122" />
  <g
     id="g2"
     transform="matrix(0.01267931,0,0,0.01267931,4.5690663,4.7703872)">
	<path
   class="st0"
   d="m 490.462,316.323 c -0.5,-0.5 -1.328,-1.203 -2.469,-2.141 4.297,-17.672 6.563,-36.141 6.563,-55.109 0,-128.75 -104.375,-233.141 -233.125,-233.141 -123.625,0 -224.797,96.266 -232.609,217.938 -0.141,1.969 -0.234,3.938 -0.297,5.891 -1.813,3.781 -3.672,7.719 -4.313,7.938 -28.875,10.594 -36.516,38.172 2.734,38.172 h 4.25 230.234 c 21.672,0 46.031,38.563 84.516,57.266 30.672,14.891 63.703,22.5 113.86,22.5 22.469,0 41.906,-2.047 51.109,-15.344 5,-7.236 -8.187,-31.705 -20.453,-43.97 z"
   id="path1-8"
   style="fill:#000000" />

	<path
   class="st0"
   d="m 273.258,379.588 c -11.578,23.734 -28.938,53.704 -51.656,79.235 -6.016,6.766 -5.406,17.109 1.344,23.109 6.766,6 17.109,5.406 23.109,-1.359 25.984,-29.266 44.734,-62.156 57.203,-87.844 5.844,-12.063 10.266,-22.531 13.359,-30.313 -9.969,-6.578 -19.969,-14.25 -27.313,-20.172 -2.452,6.704 -7.78,20.423 -16.046,37.344 z"
   id="path2-8"
   style="fill:#000000" />

</g>
</svg>
