<?xml version="1.0" encoding="UTF-8" standalone="no"?>
<svg
   viewBox="0 0 16 16"
   x="0px"
   y="0px"
   version="1.1"
   id="svg5"
   sodipodi:docname="dv-base_navy.svg"
   width="16"
   height="16"
   inkscape:version="1.4.2 (f4327f4, 2025-05-13)"
   xmlns:inkscape="http://www.inkscape.org/namespaces/inkscape"
   xmlns:sodipodi="http://sodipodi.sourceforge.net/DTD/sodipodi-0.dtd"
   xmlns="http://www.w3.org/2000/svg"
   xmlns:svg="http://www.w3.org/2000/svg"
   xmlns:rdf="http://www.w3.org/1999/02/22-rdf-syntax-ns#"
   xmlns:cc="http://creativecommons.org/ns#"
   xmlns:dc="http://purl.org/dc/elements/1.1/">
  <defs
     id="defs5">
    <linearGradient
       id="swatch7"
       inkscape:swatch="solid">
      <stop
         style="stop-color:#ffffff;stop-opacity:1;"
         offset="0"
         id="stop7" />
    </linearGradient>
  </defs>
  <sodipodi:namedview
     id="namedview5"
     pagecolor="#ffffff"
     bordercolor="#000000"
     borderopacity="0.25"
     inkscape:showpageshadow="2"
     inkscape:pageopacity="0.0"
     inkscape:pagecheckerboard="0"
     inkscape:deskcolor="#d1d1d1"
     inkscape:zoom="22.627417"
     inkscape:cx="13.368738"
     inkscape:cy="8.1759221"
     inkscape:window-width="1920"
     inkscape:window-height="1010"
     inkscape:window-x="2873"
     inkscape:window-y="-6"
     inkscape:window-maximized="1"
     inkscape:current-layer="svg5"
     showguides="true" />
  <title
     id="title1">glyph</title>
  <metadata
     id="metadata5">
    <rdf:RDF>
      <cc:Work
         rdf:about="">
        <dc:title>glyph</dc:title>
      </cc:Work>
    </rdf:RDF>
  </metadata>
  <path
     d="M 15.272727,7.2727272 H 14.749091 C 14.402286,4.1016963 11.898303,1.5977142 8.7272726,1.2509091 V 0.72727272 c -2.274e-4,-0.96946907 -1.4547728,-0.96946907 -1.4545454,0 V 1.2509091 C 4.1016964,1.5977144 1.5977144,4.1016964 1.2509091,7.2727272 H 0.72727272 c -0.96946907,2.274e-4 -0.96946907,1.4547728 0,1.4545454 H 1.2509091 c 0.3468051,3.1710304 2.8507872,5.6750134 6.0218181,6.0218184 v 0.523636 c 2.274e-4,0.969469 1.4547728,0.969469 1.4545454,0 V 14.749091 C 11.898304,14.402286 14.402286,11.898304 14.749091,8.7272726 h 0.523636 c 0.969469,-2.274e-4 0.969469,-1.4547728 0,-1.4545454 z M 7.7575757,0.72727272 c 0,-0.32323219 0.4848485,-0.32323219 0.4848485,0 V 1.2193939 c -0.08,-0.00485 -0.16,-0.00727 -0.2424243,-0.00727 -0.082424,0 -0.1624242,0.00242 -0.2424242,0.00727 z M 0.72727272,8.2424242 c -0.32323219,0 -0.32323219,-0.4848485 0,-0.4848485 H 1.2193939 c -0.00485,0.08 -0.00727,0.16 -0.00727,0.2424242 0,0.082424 0.00242,0.1624243 0.00727,0.2424243 z M 8.2424242,15.272727 c 0,0.323232 -0.4848485,0.323232 -0.4848485,0 v -0.492121 c 0.08,0.0048 0.16,0.0073 0.2424242,0.0073 0.082424,0 0.1624243,-0.0024 0.2424243,-0.0073 z M 15.272727,8.2424242 h -0.492121 c 0.0048,-0.08 0.0073,-0.16 0.0073,-0.2424243 0,-0.082424 -0.0024,-0.1624242 -0.0073,-0.2424242 h 0.492121 c 0.323232,0 0.323232,0.4848485 0,0.4848485 z"
     id="path1"
     style="stroke-width:0.242424"
     sodipodi:nodetypes="cccccccccccccccccsscscssscscssscscsscscss" />
  <path
     d="M 8.6327272,9.5442423 9.2703029,9.2703029 11.175757,4.8242424 6.7296969,6.7296969 6.4557575,7.3672727 A 1.662,1.662 0 0 0 8.6327272,9.5442423 Z M 7.9999999,7.030303 A 0.96969696,0.96969696 0 1 1 7.030303,7.9999999 0.96942302,0.96942302 0 0 1 7.9999999,7.030303 Z"
     id="path2"
     style="stroke-width:0.242424" />
  <path
     d="M 6.8276508,14.929333 A 7.0012363,7.0012363 0 0 1 1.0706667,9.172349 0.24239515,0.24239515 0 1 0 0.59244848,9.2518932 7.4857139,7.4857139 0 0 0 6.7481066,15.407551 0.24239515,0.24239515 0 1 0 6.8276508,14.929333 Z"
     id="path3"
     style="stroke-width:0.242424" />
  <path
     d="M 9.172349,1.0706667 A 7.0013624,7.0013624 0 0 1 14.929454,6.8276508 0.24239565,0.24239565 0 1 0 15.407675,6.7481066 7.4858448,7.4858448 0 0 0 9.2518932,0.59244848 0.24239515,0.24239515 0 1 0 9.172349,1.0706667 Z"
     id="path4"
     style="stroke-width:0.242424" />
  <circle
     style="fill:#df5600;fill-opacity:1;stroke:none;stroke-width:1.38853;stroke-opacity:1"
     id="path6"
     cx="8"
     cy="8"
     r="4.3359122" />
  <path
     d="M 10.605867,6.8551963 10.935184,6.8302543 9.8164404,5.623098 10.075189,6.8951442 10.344888,6.8746632 c 0.142758,0.910893 -0.02717,1.7844742 -0.539398,2.440674 L 6.7209862,6.2308331 C 6.8751001,5.8958386 6.8142656,5.4862207 6.538078,5.2102356 c -0.3542592,-0.3542587 -0.9285347,-0.3542587 -1.2827939,0 -0.3542584,0.3542587 -0.3542584,0.9285349 0,1.2827936 0.2755801,0.2755796 0.6841835,0.3366167 1.0189755,0.1835169 L 6.9537792,7.3560657 C 6.6826611,7.6052837 6.3969418,7.8399016 6.1004757,8.0635692 L 6.4815018,8.444595 C 6.7185532,8.1592819 6.9616874,7.8820801 7.2133392,7.6158284 L 9.3589665,9.761456 C 8.7029696,10.273073 7.8297941,10.4428 6.9195088,10.300245 l 0.020477,-0.270104 -1.2720462,-0.2587486 1.2071562,1.1187436 0.024941,-0.328911 c 1.0956265,0.467816 2.2474234,0.438008 3.0538833,-0.148639 l 0.7981529,0.269699 -0.271929,-0.8050409 c 0.564339,-0.8048386 0.587254,-1.9406159 0.12552,-3.021845 z M 5.4974051,6.2515168 c -0.2208285,-0.2208287 -0.2208285,-0.5787374 0,-0.7993633 0.2208284,-0.2206259 0.5787375,-0.2208287 0.7993631,0 0.2208285,0.2208286 0.2208285,0.5787374 0,0.7993633 -0.2208284,0.2206259 -0.5787375,0.2208287 -0.7993631,0 z M 8.4896437,6.4368588 8.1086176,6.055833 C 7.8932644,6.3614242 7.6570243,6.6459262 7.4039537,6.9135973 L 7.6574299,7.1670737 C 7.9240869,6.9097444 8.2006802,6.6653932 8.4898465,6.4368588 Z"
     id="path1-9"
     style="stroke-width:0.202781" />
</svg>
