<?xml version="1.0" encoding="UTF-8" standalone="no"?>
<svg
   viewBox="0 0 8 8"
   x="0px"
   y="0px"
   version="1.1"
   id="svg5"
   sodipodi:docname="dv-castle.svg"
   width="8"
   height="8"
   inkscape:version="1.4.2 (f4327f4, 2025-05-13)"
   xmlns:inkscape="http://www.inkscape.org/namespaces/inkscape"
   xmlns:sodipodi="http://sodipodi.sourceforge.net/DTD/sodipodi-0.dtd"
   xmlns="http://www.w3.org/2000/svg"
   xmlns:svg="http://www.w3.org/2000/svg"
   xmlns:rdf="http://www.w3.org/1999/02/22-rdf-syntax-ns#"
   xmlns:cc="http://creativecommons.org/ns#"
   xmlns:dc="http://purl.org/dc/elements/1.1/">
  <defs
     id="defs5" />
  <sodipodi:namedview
     id="namedview5"
     pagecolor="#ffffff"
     bordercolor="#000000"
     borderopacity="0.25"
     inkscape:showpageshadow="2"
     inkscape:pageopacity="0.0"
     inkscape:pagecheckerboard="0"
     inkscape:deskcolor="#d1d1d1"
     inkscape:zoom="6.3403908"
     inkscape:cx="-32.805549"
     inkscape:cy="-3.3909582"
     inkscape:window-width="1920"
     inkscape:window-height="1009"
     inkscape:window-x="2872"
     inkscape:window-y="-8"
     inkscape:window-maximized="1"
     inkscape:current-layer="svg5" />
  <title
     id="title1">glyph</title>
  <metadata
     id="metadata5">
    <rdf:RDF>
      <cc:Work
         rdf:about="">
        <dc:title>glyph</dc:title>
      </cc:Work>
    </rdf:RDF>
  </metadata>
  <g
     id="g1"
     transform="matrix(0.50001069,0,0,0.50001069,-8.5460577e-5,-8.5460577e-5)">
    <path
       d="M 15.272727,7.2727272 H 14.749091 C 14.402286,4.1016963 11.898303,1.5977142 8.7272726,1.2509091 V 0.72727272 c -2.274e-4,-0.96946907 -1.4547728,-0.96946907 -1.4545454,0 V 1.2509091 C 4.1016964,1.5977144 1.5977144,4.1016964 1.2509091,7.2727272 H 0.72727272 c -0.96946907,2.274e-4 -0.96946907,1.4547728 0,1.4545454 H 1.2509091 c 0.3468051,3.1710304 2.8507872,5.6750134 6.0218181,6.0218184 v 0.523636 c 2.274e-4,0.969469 1.4547728,0.969469 1.4545454,0 V 14.749091 C 11.898304,14.402286 14.402286,11.898304 14.749091,8.7272726 h 0.523636 c 0.969469,-2.274e-4 0.969469,-1.4547728 0,-1.4545454 z M 2.9090909,7.7575757 c 0.3232322,0 0.3232322,0.4848485 0,0.4848485 H 2.4242424 C 2.290521,8.2420248 2.1822175,8.1337213 2.1818182,7.9999999 2.1860771,4.7884726 4.7884726,2.1860771 7.9999999,2.1818182 8.1337213,2.1822175 8.2420248,2.290521 8.2424242,2.4242424 v 0.4848485 c 0,0.3232322 -0.4848485,0.3232322 -0.4848485,0 V 2.6715151 C 5.0036056,2.8000196 2.8000196,5.0036056 2.6715151,7.7575757 Z m 5.090909,6.0606063 C 7.8662782,13.817783 7.7579747,13.709479 7.7575757,13.575757 v -0.484848 c 0,-0.323232 0.4848485,-0.323232 0.4848485,0 v 0.237576 C 10.996394,13.199981 13.199981,10.996394 13.328485,8.2424242 h -0.237576 c -0.323232,0 -0.323232,-0.4848485 0,-0.4848485 h 0.484848 c 0.133722,3.99e-4 0.242026,0.1087025 0.242425,0.2424242 -0.0043,3.2115271 -2.606655,5.8139231 -5.8181821,5.8181821 z M 7.7575757,0.72727272 c 0,-0.32323219 0.4848485,-0.32323219 0.4848485,0 V 1.2193939 c -0.08,-0.00485 -0.16,-0.00727 -0.2424243,-0.00727 -0.082424,0 -0.1624242,0.00242 -0.2424242,0.00727 z M 0.72727272,8.2424242 c -0.32323219,0 -0.32323219,-0.4848485 0,-0.4848485 H 1.2193939 c -0.00485,0.08 -0.00727,0.16 -0.00727,0.2424242 0,0.082424 0.00242,0.1624243 0.00727,0.2424243 z M 8.2424242,15.272727 c 0,0.323232 -0.4848485,0.323232 -0.4848485,0 v -0.492121 c 0.08,0.0048 0.16,0.0073 0.2424242,0.0073 0.082424,0 0.1624243,-0.0024 0.2424243,-0.0073 z M 15.272727,8.2424242 h -0.492121 c 0.0048,-0.08 0.0073,-0.16 0.0073,-0.2424243 0,-0.082424 -0.0024,-0.1624242 -0.0073,-0.2424242 h 0.492121 c 0.323232,0 0.323232,0.4848485 0,0.4848485 z"
       id="path1"
       style="stroke-width:0.242424"
       sodipodi:nodetypes="cccccccccccccccccssccccssccsccssccsscccsscscssscscssscscsscscss" />
    <path
       d="M 8.6327272,9.5442423 9.2703029,9.2703029 11.175757,4.8242424 6.7296969,6.7296969 6.4557575,7.3672727 A 1.662,1.662 0 0 0 8.6327272,9.5442423 Z M 7.9999999,7.030303 A 0.96969696,0.96969696 0 1 1 7.030303,7.9999999 0.96942302,0.96942302 0 0 1 7.9999999,7.030303 Z"
       id="path2"
       style="stroke-width:0.242424" />
    <path
       d="M 6.8276508,14.929333 A 7.0012363,7.0012363 0 0 1 1.0706667,9.172349 0.24239515,0.24239515 0 1 0 0.59244848,9.2518932 7.4857139,7.4857139 0 0 0 6.7481066,15.407551 0.24239515,0.24239515 0 1 0 6.8276508,14.929333 Z"
       id="path3"
       style="stroke-width:0.242424" />
    <path
       d="M 9.172349,1.0706667 A 7.0013624,7.0013624 0 0 1 14.929454,6.8276508 0.24239565,0.24239565 0 1 0 15.407675,6.7481066 7.4858448,7.4858448 0 0 0 9.2518932,0.59244848 0.24239515,0.24239515 0 1 0 9.172349,1.0706667 Z"
       id="path4"
       style="stroke-width:0.242424" />
    <path
       d="M 4.4314088,5.5851663 V 4.6264035 c 0,-0.097966 0.078368,-0.1756886 0.1567451,-0.1756886 h 0.9783576 c 0.096661,0 0.1750366,0.078373 0.1750366,0.1756886 v 0.8020176 h 0.626329 V 4.6264035 c 0,-0.097966 0.078368,-0.1756886 0.1750367,-0.1756886 h 0.9783585 c 0.078368,0 0.1560909,0.078373 0.1560909,0.1756886 v 0.8020176 h 0.645273 V 4.6264035 c 0,-0.097966 0.078368,-0.1756886 0.1560909,-0.1756886 h 0.9783584 c 0.097966,0 0.1567451,0.078373 0.1567451,0.1756886 V 5.4284211 H 10.259103 V 4.6264035 c 0,-0.097966 0.07837,-0.1756886 0.175689,-0.1756886 h 0.958763 c 0.09665,0 0.175036,0.078373 0.175036,0.1756886 v 0.9587628 c 0,0.039187 -0.01894,0.078373 -0.03918,0.097966 l -0.78177,1.3094711 v 4.3803426 c 0,0.09862 -0.05943,0.176339 -0.156092,0.176339 H 5.4091643 c -0.078368,0 -0.156091,-0.07837 -0.156091,-0.176339 V 6.9926037 L 4.4510572,5.6831326 c -0.01959,-0.039839 -0.01959,-0.059433 -0.01959,-0.097966 z M 10.41515,7.0317876 H 5.5847193 V 11.216177 H 7.0319925 V 9.1040023 c 0,-0.2148789 0.1763406,-0.4101465 0.410798,-0.4101465 h 1.1142044 c 0.2155312,0 0.4107978,0.1952844 0.4107978,0.4101465 V 11.216177 H 10.415066 Z M 8.5571121,9.0264239 H 7.4429077 c -0.039189,0 -0.078378,0.039189 -0.078378,0.078368 V 11.216967 L 8.635479,11.216316 V 9.1041408 c 0,-0.039189 -0.039189,-0.077717 -0.078368,-0.077717 z M 4.7637918,4.7825134 v 0.762827 L 5.4671816,6.6993703 H 10.53135 l 0.704042,-1.1540299 v -0.762827 h -0.644621 v 0.8026695 c 0,0.097966 -0.05943,0.1763407 -0.156745,0.1763407 H 9.4563196 c -0.098617,0 -0.1560918,-0.078373 -0.1560918,-0.1763407 V 4.7825134 H 8.6549559 v 0.8026695 c 0,0.097966 -0.077717,0.1763407 -0.1763406,0.1763407 H 7.5205045 c -0.097966,0 -0.1763404,-0.078373 -0.1763404,-0.1763407 V 4.7825134 h -0.645272 v 0.8026695 c 0,0.097966 -0.058778,0.1763407 -0.1567461,0.1763407 H 5.5650923 c -0.078368,0 -0.1567451,-0.078373 -0.1567451,-0.1763407 V 4.7825134 Z"
       id="path1-0"
       style="fill:#ffffff;fill-opacity:1;stroke:#ffffff;stroke-width:0.167195;stroke-opacity:1" />
  </g>
</svg>
