<?xml version="1.0" encoding="UTF-8" standalone="no"?>
<svg
   viewBox="0 0 16 16"
   x="0px"
   y="0px"
   version="1.1"
   id="svg5"
   sodipodi:docname="dv-city_small.svg"
   width="16"
   height="16"
   inkscape:version="1.4.2 (f4327f4, 2025-05-13)"
   xmlns:inkscape="http://www.inkscape.org/namespaces/inkscape"
   xmlns:sodipodi="http://sodipodi.sourceforge.net/DTD/sodipodi-0.dtd"
   xmlns="http://www.w3.org/2000/svg"
   xmlns:svg="http://www.w3.org/2000/svg"
   xmlns:rdf="http://www.w3.org/1999/02/22-rdf-syntax-ns#"
   xmlns:cc="http://creativecommons.org/ns#"
   xmlns:dc="http://purl.org/dc/elements/1.1/">
  <defs
     id="defs5" />
  <sodipodi:namedview
     id="namedview5"
     pagecolor="#ffffff"
     bordercolor="#000000"
     borderopacity="0.25"
     inkscape:showpageshadow="2"
     inkscape:pageopacity="0.0"
     inkscape:pagecheckerboard="0"
     inkscape:deskcolor="#d1d1d1"
     inkscape:zoom="25.361563"
     inkscape:cx="16.3042"
     inkscape:cy="9.2857052"
     inkscape:window-width="1920"
     inkscape:window-height="1009"
     inkscape:window-x="2872"
     inkscape:window-y="-8"
     inkscape:window-maximized="1"
     inkscape:current-layer="svg5" />
  <title
     id="title1">glyph</title>
  <metadata
     id="metadata5">
    <rdf:RDF>
      <cc:Work
         rdf:about="">
        <dc:title>glyph</dc:title>
      </cc:Work>
    </rdf:RDF>
  </metadata>
  <path
     d="M 15.272727,7.2727272 H 14.749091 C 14.402286,4.1016963 11.898303,1.5977142 8.7272726,1.2509091 V 0.72727272 c -2.274e-4,-0.96946907 -1.4547728,-0.96946907 -1.4545454,0 V 1.2509091 C 4.1016964,1.5977144 1.5977144,4.1016964 1.2509091,7.2727272 H 0.72727272 c -0.96946907,2.274e-4 -0.96946907,1.4547728 0,1.4545454 H 1.2509091 c 0.3468051,3.1710304 2.8507872,5.6750134 6.0218181,6.0218184 v 0.523636 c 2.274e-4,0.969469 1.4547728,0.969469 1.4545454,0 V 14.749091 C 11.898304,14.402286 14.402286,11.898304 14.749091,8.7272726 h 0.523636 c 0.969469,-2.274e-4 0.969469,-1.4547728 0,-1.4545454 z M 2.9090909,7.7575757 c 0.3232322,0 0.3232322,0.4848485 0,0.4848485 H 2.4242424 C 2.290521,8.2420248 2.1822175,8.1337213 2.1818182,7.9999999 2.1860771,4.7884726 4.7884726,2.1860771 7.9999999,2.1818182 8.1337213,2.1822175 8.2420248,2.290521 8.2424242,2.4242424 v 0.4848485 c 0,0.3232322 -0.4848485,0.3232322 -0.4848485,0 V 2.6715151 C 5.0036056,2.8000196 2.8000196,5.0036056 2.6715151,7.7575757 Z m 5.090909,6.0606063 C 7.8662782,13.817783 7.7579747,13.709479 7.7575757,13.575757 v -0.484848 c 0,-0.323232 0.4848485,-0.323232 0.4848485,0 v 0.237576 C 10.996394,13.199981 13.199981,10.996394 13.328485,8.2424242 h -0.237576 c -0.323232,0 -0.323232,-0.4848485 0,-0.4848485 h 0.484848 c 0.133722,3.99e-4 0.242026,0.1087025 0.242425,0.2424242 -0.0043,3.2115271 -2.606655,5.8139231 -5.8181821,5.8181821 z M 7.7575757,0.72727272 c 0,-0.32323219 0.4848485,-0.32323219 0.4848485,0 V 1.2193939 c -0.08,-0.00485 -0.16,-0.00727 -0.2424243,-0.00727 -0.082424,0 -0.1624242,0.00242 -0.2424242,0.00727 z M 0.72727272,8.2424242 c -0.32323219,0 -0.32323219,-0.4848485 0,-0.4848485 H 1.2193939 c -0.00485,0.08 -0.00727,0.16 -0.00727,0.2424242 0,0.082424 0.00242,0.1624243 0.00727,0.2424243 z M 8.2424242,15.272727 c 0,0.323232 -0.4848485,0.323232 -0.4848485,0 v -0.492121 c 0.08,0.0048 0.16,0.0073 0.2424242,0.0073 0.082424,0 0.1624243,-0.0024 0.2424243,-0.0073 z M 15.272727,8.2424242 h -0.492121 c 0.0048,-0.08 0.0073,-0.16 0.0073,-0.2424243 0,-0.082424 -0.0024,-0.1624242 -0.0073,-0.2424242 h 0.492121 c 0.323232,0 0.323232,0.4848485 0,0.4848485 z"
     id="path1"
     style="stroke-width:0.242424"
     sodipodi:nodetypes="cccccccccccccccccssccccssccsccssccsscccsscscssscscssscscsscscss" />
  <path
     d="M 8.6327272,9.5442423 9.2703029,9.2703029 11.175757,4.8242424 6.7296969,6.7296969 6.4557575,7.3672727 A 1.662,1.662 0 0 0 8.6327272,9.5442423 Z M 7.9999999,7.030303 A 0.96969696,0.96969696 0 1 1 7.030303,7.9999999 0.96942302,0.96942302 0 0 1 7.9999999,7.030303 Z"
     id="path2"
     style="stroke-width:0.242424" />
  <path
     d="M 6.8276508,14.929333 A 7.0012363,7.0012363 0 0 1 1.0706667,9.172349 0.24239515,0.24239515 0 1 0 0.59244848,9.2518932 7.4857139,7.4857139 0 0 0 6.7481066,15.407551 0.24239515,0.24239515 0 1 0 6.8276508,14.929333 Z"
     id="path3"
     style="stroke-width:0.242424" />
  <path
     d="M 9.172349,1.0706667 A 7.0013624,7.0013624 0 0 1 14.929454,6.8276508 0.24239565,0.24239565 0 1 0 15.407675,6.7481066 7.4858448,7.4858448 0 0 0 9.2518932,0.59244848 0.24239515,0.24239515 0 1 0 9.172349,1.0706667 Z"
     id="path4"
     style="stroke-width:0.242424" />
  <path
     sodipodi:type="star"
     style="fill:#ffffff;stroke:#ffffff"
     id="path5"
     inkscape:flatsided="false"
     sodipodi:sides="5"
     sodipodi:cx="5.756743"
     sodipodi:cy="6.0721807"
     sodipodi:r1="5.5735588"
     sodipodi:r2="0.055037002"
     sodipodi:arg1="-1.5707963"
     sodipodi:arg2="2.829071"
     inkscape:rounded="0"
     inkscape:randomized="0"
     d="M 5.7567431,0.49862194 5.7043719,6.0891024 11.057512,4.3498565 5.724466,6.027602 9.0327985,10.581285 5.7891658,6.0277079 2.4806872,10.581284 5.8090583,6.0892738 0.45597358,4.3498562 5.7566528,6.1272177 Z"
     inkscape:transform-center-y="-0.39726658"
     transform="matrix(0.74642256,0,0,0.74642256,3.7030372,3.6739718)" />
</svg>
