<?xml version="1.0" encoding="UTF-8" standalone="no"?>
<svg
   width="16"
   height="16">
   <g
     id="g1"
     transform="matrix(0.01809715,0,0,0.01809715,0.33893349,0.33893349)"><path
       class="fil0"
       d="M 463.94,54.21 C 302.34,86.41 88.94,162.12 15.19,339.88 H 85.98 C 113.33,256.95 181.49,192.2 265.64,141.95 326.53,105.6 395.88,76.8 463.94,54.21 Z M 528.02,430 h 41.71 c 49.25,0 78.87,39.65 78.87,86.51 v 18.29 c 0,31.05 23.9,51.66 54.17,51.66 h 134.99 v 27.97 H 702.77 c -45.63,0 -82.13,-33.23 -82.13,-79.63 v -18.29 c 0,-31.39 -17.13,-58.55 -50.91,-58.55 h -41.71 z m -295.1,180.36 h 40.61 c 50.09,0 79.97,38.51 79.97,86.51 v 36.59 c 0,31.05 23.89,51.66 54.17,51.66 h 205.77 v 27.96 H 407.67 c -45.64,0 -82.13,-33.23 -82.13,-79.62 v -36.59 c 0,-32.45 -17.47,-58.54 -52.01,-58.54 H 232.92 Z M 404.03,487.09 h 41.71 c 49.25,0 78.87,39.64 78.87,86.51 v 18.29 c 0,31.05 23.9,51.66 54.18,51.66 h 134.98 v 27.96 H 578.79 c -45.64,0 -82.14,-33.22 -82.14,-79.62 V 573.6 c 0,-31.39 -17.13,-58.55 -50.91,-58.55 h -41.71 z m -83.01,60.29 h 40.62 c 50.08,0 79.96,38.51 79.96,86.51 v 36.59 c 0,31.04 23.9,51.66 54.18,51.66 H 701.55 V 750.1 H 495.78 c -45.64,0 -82.14,-33.23 -82.14,-79.62 v -36.59 c 0,-32.45 -17.46,-58.55 -52,-58.55 H 321.02 Z M 8.9,367.84 V 701.62 H 128.42 L 84.08,367.84 Z m 142.2,292.93 c 16.3,-29.53 45.18,-68.6 95.91,-109.5 l -39.76,-183.45 27.3,-5.9 37.01,170.71 c 30.78,-22.08 68.23,-44.34 113.75,-65.61 l -33.18,-226.83 27.64,-4.04 32.03,219.01 C 448.93,439.22 490.94,424 538.46,410.01 l -20.36,-221.26 27.74,-2.52 19.88,216.06 c 30.13,-8.21 62.32,-15.93 96.75,-23.03 L 647.93,33.58 C 539.63,56.7 394.05,97.74 279.95,165.87 198.88,214.28 133.88,276.28 110.48,354.99 Z"
       id="path1" /></g></svg>
