<?xml version="1.0" encoding="UTF-8" standalone="no"?>
<svg
   viewBox="0 0 16 16"
   x="0px"
   y="0px"
   version="1.1"
   id="svg5"
   sodipodi:docname="dv-industry_light.svg"
   width="16"
   height="16"
   inkscape:version="1.4.2 (f4327f4, 2025-05-13)"
   xmlns:inkscape="http://www.inkscape.org/namespaces/inkscape"
   xmlns:sodipodi="http://sodipodi.sourceforge.net/DTD/sodipodi-0.dtd"
   xmlns="http://www.w3.org/2000/svg"
   xmlns:svg="http://www.w3.org/2000/svg"
   xmlns:rdf="http://www.w3.org/1999/02/22-rdf-syntax-ns#"
   xmlns:cc="http://creativecommons.org/ns#"
   xmlns:dc="http://purl.org/dc/elements/1.1/">
  <defs
     id="defs5">
    <linearGradient
       id="swatch7"
       inkscape:swatch="solid">
      <stop
         style="stop-color:#ffffff;stop-opacity:1;"
         offset="0"
         id="stop7" />
    </linearGradient>
  </defs>
  <sodipodi:namedview
     id="namedview5"
     pagecolor="#ffffff"
     bordercolor="#000000"
     borderopacity="0.25"
     inkscape:showpageshadow="2"
     inkscape:pageopacity="0.0"
     inkscape:pagecheckerboard="0"
     inkscape:deskcolor="#d1d1d1"
     inkscape:zoom="22.627417"
     inkscape:cx="11.203223"
     inkscape:cy="12.838407"
     inkscape:window-width="1920"
     inkscape:window-height="1009"
     inkscape:window-x="2872"
     inkscape:window-y="-8"
     inkscape:window-maximized="1"
     inkscape:current-layer="svg5"
     showguides="true" />
  <title
     id="title1">glyph</title>
  <metadata
     id="metadata5">
    <rdf:RDF>
      <cc:Work
         rdf:about="">
        <dc:title>glyph</dc:title>
      </cc:Work>
    </rdf:RDF>
  </metadata>
  <path
     d="m 10.448361,15.011044 c 0,0.183579 -0.150201,0.333779 -0.333779,0.333779 H 2.7714483 c -0.183578,0 -0.333779,-0.1502 -0.333779,-0.333779 v -3.838456 c 0,-0.183578 0.150201,-0.333779 0.333779,-0.333779 l 2.336452,-1.5020048 v 1.5020048 l 2.67023,-1.5020048 V 10.838809 L 10.114582,9.3368042 c 0.183578,0 0.333779,0.1502005 0.333779,0.3337789 z"
     fill="#e96a60"
     id="path1"
     style="fill:none;fill-opacity:1;stroke-width:0.0130382" />
  <path
     d="M 10.114582,15.511713 H 2.7714483 c -0.283712,0 -0.1407757,-0.201792 -0.156918,-0.485044 -0.173095,-1.475421 -0.2920299,-3.148966 0.106851,-4.35475 l 2.303074,-1.4853152 c 0.05007,-0.033378 0.116823,-0.033378 0.166889,0 0.05007,0.033378 0.08345,0.083445 0.08345,0.1502004 v 1.2182928 l 2.419896,-1.3684932 c 0.05007,-0.033378 0.116823,-0.033378 0.16689,0 0.05007,0.033378 0.08344,0.083445 0.08344,0.1502004 V 10.538408 L 10.031138,9.2032927 c 0.03338,-0.016689 0.05007,-0.033378 0.08345,-0.033378 0.283712,0 0.500668,0.2169563 0.500668,0.5006683 v 5.340461 c 0,0.267023 -0.233645,0.500669 -0.500668,0.500669 z"
     fill="#231c1c"
     id="path2"
     style="fill:#000000;fill-opacity:1;stroke-width:0.0130382"
     sodipodi:nodetypes="csscccsccssccssssc" />
  <path
     d="m 2.7714483,15.011044 c 0,0.183579 -0.150201,0.333779 -0.333779,0.333779 h -1.502005 c -0.183578,0 -0.333778,-0.1502 -0.333778,-0.333779 L 0.9356643,9.0030254 0.7687753,7.5010208 c 0,-0.1835783 0.150201,-0.3337788 0.333779,-0.3337788 h 1.168226 c 0.183578,0 0.333779,0.1502005 0.333779,0.3337788 l -0.16689,1.5020046 z"
     fill="#e96a60"
     id="path3"
     style="fill:none;fill-opacity:1;stroke-width:0.0130382" />
  <path
     d="m 2.4376693,15.511713 h -1.502005 c -0.283712,0 -0.500668,-0.216958 -0.500668,-0.500669 L 0.7687753,9.0030254 0.6018863,7.5177097 v -0.016689 c 0,-0.283712 0.216956,-0.5006682 0.500668,-0.5006682 h 1.168226 c 0.283712,0 0.500668,0.2169562 0.500668,0.5006682 v 0.016689 l -0.166889,1.4853157 0.333778,5.9913296 v 0.01669 c 0,0.267022 -0.233645,0.500668 -0.500668,0.500668 z"
     fill="#231c1c"
     id="path4"
     style="stroke-width:0.4;fill:#ffffff;fill-opacity:1;stroke:#000000;stroke-opacity:1;stroke-dasharray:none"
     sodipodi:nodetypes="sscccsssscccss" />
  <path
     d="M 0.67049926,9.0030254 H 2.7028343 V 9.3368042 H 0.67049926 Z m 0,-0.5006682 H 2.7028343 V 8.836136 H 0.67049926 Z"
     fill="#231c1c"
     id="path5"
     style="fill:#000000;fill-opacity:1;stroke-width:0.0151219;stroke-dasharray:none" />
  <path
     d="m 1.2694433,6.8334632 c -0.03338,0 -0.06676,-0.016689 -0.100133,-0.033378 -0.08345,-0.050067 -0.100134,-0.1502005 -0.05007,-0.2336452 0.01669,-0.016689 0.250334,-0.3838456 0.01669,-0.6174908 -0.333779,-0.3337788 -0.16689,-0.834447 -0.01669,-1.0514032 0.05007,-0.083445 0.1502,-0.1001336 0.233645,-0.050067 0.08345,0.050067 0.100134,0.1502004 0.05007,0.2336451 -0.01669,0.016689 -0.250334,0.4005346 -0.01669,0.6174908 0.333779,0.3337788 0.166889,0.8344471 0.01669,1.0514033 -0.03338,0.050067 -0.08344,0.083445 -0.133512,0.083445 z"
     fill="#231c1c"
     id="path12"
     style="stroke-width:0.0130382" />
  <path
     d="m 2.0872013,6.8334632 c -0.06675,0 -0.116822,-0.033378 -0.1502,-0.1001337 -0.03338,-0.083445 0,-0.1835783 0.06676,-0.2169562 0.05007,-0.033378 0.116822,-0.2169562 -0.06676,-0.6174908 -0.400535,-0.8010691 0.05007,-1.0514032 0.06676,-1.0514032 0.08344,-0.033378 0.183578,0 0.216956,0.066756 0.03338,0.083445 0.01669,0.1835784 -0.06676,0.2169563 -0.06676,0.050067 -0.133511,0.2169562 0.06676,0.6174908 0.400534,0.8010691 -0.05007,1.0514032 -0.06676,1.0514032 -0.01669,0.016689 -0.05007,0.033378 -0.06676,0.033378 z"
     fill="#231c1c"
     id="path13"
     style="stroke-width:0.0130382" />
  <path
     d="M 4.9798749,13.162988 H 3.4450205 c -0.092091,0 -0.1534849,-0.0614 -0.1534849,-0.153485 v -0.920912 c 0,-0.09209 0.061398,-0.153485 0.1534849,-0.153485 h 1.5348544 c 0.092091,0 0.1534849,0.0614 0.1534849,0.153485 v 0.920912 c 0,0.07674 -0.076747,0.153484 -0.1534849,0.153485 z"
     fill="#231c1c"
     id="path7"
     style="fill:#000000;fill-opacity:1;stroke:#ffffff;stroke-width:0.275905;stroke-dasharray:none;stroke-opacity:1"
     sodipodi:nodetypes="csssssssc" />
  <path
     d="M 7.4935929,13.162988 H 5.9587395 c -0.092092,0 -0.153485,-0.0614 -0.153485,-0.153485 v -0.920912 c 0,-0.09209 0.061398,-0.153485 0.153485,-0.153485 h 1.5348534 c 0.092091,0 0.1534844,0.0614 0.1534844,0.153485 v 0.920912 c 0,0.07674 -0.076738,0.153484 -0.1534844,0.153485 z"
     fill="#231c1c"
     id="path9"
     style="fill:#000000;fill-opacity:1;stroke:#ffffff;stroke-width:0.275905;stroke-dasharray:none;stroke-opacity:1"
     sodipodi:nodetypes="csssssssc" />
  <path
     d="M 10.007311,13.162988 H 8.4724583 c -0.09209,0 -0.1534862,-0.0614 -0.1534862,-0.153485 v -0.920912 c 0,-0.09209 0.061398,-0.153485 0.1534862,-0.153485 h 1.5348527 c 0.09209,0 0.153485,0.0614 0.153485,0.153485 v 0.920912 c 0,0.07674 -0.07674,0.153484 -0.153485,0.153485 z"
     fill="#231c1c"
     id="path11"
     style="fill:#000000;fill-opacity:1;stroke:#ffffff;stroke-width:0.275905;stroke-dasharray:none;stroke-opacity:1"
     sodipodi:nodetypes="csssssssc" />
  <g
     id="g2"
     transform="matrix(1.1997103,0,0,1.1997103,-2.9194263,-0.23465994)">
    <circle
       style="fill:#ffffff;fill-opacity:1;stroke:#ffffff;stroke-width:1.006;stroke-dasharray:none;stroke-opacity:1"
       id="path2-4"
       cx="11.270369"
       cy="4.7738252"
       r="3.9228287" />
    <circle
       style="fill:none;stroke:#000000;stroke-width:0.572589"
       id="path2-5"
       cx="11.270369"
       cy="4.7738252"
       r="3.896987" />
  </g>
  <path
     d="m 8.9580479,6.3569982 c -0.030877,0.030876 -0.080584,0.030876 -0.1114612,0 -0.030877,-0.030876 -0.030877,-0.081509 0,-0.1123914 L 10.906375,4.1848184 c 0.03088,-0.030876 0.0815,-0.030876 0.112394,0 0.03088,0.030876 0.03088,0.080585 0,0.1114663 z M 8.2562316,6.9473565 c 0.063292,0.06237 0.094787,0.1463565 0.094787,0.2284824 0,0.083059 -0.031495,0.1661174 -0.097875,0.2315731 -0.064843,0.06237 -0.1454227,0.092631 -0.2260153,0.092631 -0.083054,0 -0.1651854,-0.031494 -0.2284829,-0.094789 -0.06391,-0.063296 -0.09572,-0.1463565 -0.09572,-0.229099 0,-0.082134 0.031495,-0.1661173 0.094787,-0.2284825 0.063292,-0.063296 0.1463565,-0.094789 0.2290992,-0.094789 0.083054,0 0.1651842,0.031494 0.2290992,0.094789 z m -0.063292,0.2284824 c 0,-0.041992 -0.016674,-0.0846 -0.049089,-0.1170242 -0.031495,-0.03242 -0.074408,-0.048166 -0.1170192,-0.048166 -0.042611,0 -0.084604,0.015747 -0.1170192,0.048166 -0.032415,0.03242 -0.049089,0.07503 -0.049089,0.1170242 0,0.04261 0.016674,0.085217 0.049089,0.1176405 0.032415,0.031494 0.074408,0.048168 0.1170192,0.048168 0.041061,0 0.081504,-0.01513 0.115469,-0.046622 C 8.176265,7.2610614 8.192939,7.2184524 8.192939,7.175536 Z M 10.228303,6.132547 8.9074115,7.4524904 11.565557,7.4534167 c 0.02996,-0.00247 0.0602,0.01266 0.07503,0.040448 0.125664,0.2284824 0.311542,0.4196091 0.536008,0.5523781 0.216444,0.128137 0.469628,0.2016235 0.73918,0.2016235 0.25226,-9.263e-4 0.488465,-0.063914 0.69472,-0.176306 0.169817,-0.092631 0.319264,-0.2182937 0.439369,-0.3674247 h -0.946068 c -0.02686,0 -0.05311,-0.014204 -0.06793,-0.039522 L 12.55543,6.8322094 c -0.01359,-0.023774 -0.0142,-0.053725 0,-0.079044 L 13.035864,5.920761 c 0.0142,-0.023774 0.03952,-0.039522 0.06793,-0.039522 h 0.946068 C 13.929756,5.7318 13.780311,5.6061291 13.610493,5.5138145 13.404239,5.4014232 13.167725,5.3384332 12.915774,5.3384332 c -0.270478,0 -0.522429,0.072868 -0.739181,0.2006988 -0.222925,0.1321525 -0.407879,0.3217298 -0.533542,0.5486709 -0.01267,0.026862 -0.04044,0.04508 -0.07102,0.04508 H 10.228298 Z M 7.2033175,7.4108346 c -0.017291,-0.066384 -0.02532,-0.1343103 -0.02532,-0.2031649 0,-0.2093382 0.079966,-0.4189925 0.2386712,-0.5786204 L 7.9137795,6.1325627 H 7.4339631 C 7.2530251,6.1316364 7.0878409,6.2060485 6.9683515,6.3261555 6.8488622,6.4456449 6.7747588,6.6108378 6.7747588,6.7917678 c 0,0.1651846 0.060205,0.3152482 0.1596276,0.4316473 0.071938,0.083059 0.1642591,0.1478979 0.2686198,0.1874195 z M 13.266801,3.7455194 c 0.05465,-0.1858782 0.07102,-0.3800875 0.05064,-0.5705976 L 12.648664,3.843699 c -0.01884,0.018834 -0.04817,0.027788 -0.07596,0.01976 L 11.643946,3.6152165 c -0.02594,-0.0071 -0.04817,-0.027788 -0.0562,-0.056194 L 11.340431,2.6349273 c -0.0087,-0.027788 -0.0025,-0.058356 0.01883,-0.080585 L 12.02867,1.885565 c -0.191435,-0.020687 -0.385644,-0.00401 -0.570597,0.051255 -0.2254,0.065458 -0.437828,0.1880361 -0.615676,0.3658834 -0.191435,0.1914348 -0.317715,0.4220753 -0.380087,0.6656944 -0.06484,0.2497927 -0.06175,0.5137813 0.0096,0.7626411 0.01109,0.028406 0.0047,0.061752 -0.01821,0.0846 L 7.5281254,6.7411888 C 7.3999891,6.8693259 7.336074,7.0385259 7.336074,7.2074176 c 0,0.096338 0.020694,0.1920515 0.06391,0.2862236 0.030877,0.06484 0.071938,0.1241222 0.1265962,0.1787722 0.1296777,0.1302949 0.2995023,0.1945176 0.4687031,0.1945176 0.1691995,0 0.338399,-0.063914 0.4662278,-0.1920515 L 11.387061,4.7493302 c 0.01976,-0.018834 0.04971,-0.027788 0.07811,-0.019762 0.250717,0.072868 0.516872,0.076574 0.769746,0.011733 0.242687,-0.06237 0.473335,-0.1895775 0.66477,-0.3810123 0.177852,-0.1769216 0.300432,-0.3896587 0.366812,-0.6150506 z"
     id="path1-7"
     style="stroke-width:0.0790432" />
</svg>
