<?xml version="1.0" encoding="UTF-8" standalone="no"?>
<svg
   viewBox="0 0 16 16"
   x="0px"
   y="0px"
   version="1.1"
   id="svg5"
   sodipodi:docname="dv-industry_heavy.svg"
   width="16"
   height="16"
   inkscape:version="1.4.2 (f4327f4, 2025-05-13)"
   xmlns:inkscape="http://www.inkscape.org/namespaces/inkscape"
   xmlns:sodipodi="http://sodipodi.sourceforge.net/DTD/sodipodi-0.dtd"
   xmlns="http://www.w3.org/2000/svg"
   xmlns:svg="http://www.w3.org/2000/svg"
   xmlns:rdf="http://www.w3.org/1999/02/22-rdf-syntax-ns#"
   xmlns:cc="http://creativecommons.org/ns#"
   xmlns:dc="http://purl.org/dc/elements/1.1/">
  <defs
     id="defs5">
    <linearGradient
       id="swatch7"
       inkscape:swatch="solid">
      <stop
         style="stop-color:#ffffff;stop-opacity:1;"
         offset="0"
         id="stop7" />
    </linearGradient>
  </defs>
  <sodipodi:namedview
     id="namedview5"
     pagecolor="#ffffff"
     bordercolor="#000000"
     borderopacity="0.25"
     inkscape:showpageshadow="2"
     inkscape:pageopacity="0.0"
     inkscape:pagecheckerboard="0"
     inkscape:deskcolor="#d1d1d1"
     inkscape:zoom="22.627417"
     inkscape:cx="-2.1876116"
     inkscape:cy="9.9436891"
     inkscape:window-width="1920"
     inkscape:window-height="1010"
     inkscape:window-x="2873"
     inkscape:window-y="-6"
     inkscape:window-maximized="1"
     inkscape:current-layer="svg5"
     showguides="true" />
  <title
     id="title1">glyph</title>
  <metadata
     id="metadata5">
    <rdf:RDF>
      <cc:Work
         rdf:about="">
        <dc:title>glyph</dc:title>
      </cc:Work>
    </rdf:RDF>
  </metadata>
  <path
     d="m 12.923235,12.845529 c 0,0.183579 -0.150201,0.333779 -0.333779,0.333779 H 5.246322 c -0.183578,0 -0.333779,-0.1502 -0.333779,-0.333779 V 9.0070731 c 0,-0.183578 0.150201,-0.333779 0.333779,-0.333779 L 7.582774,7.1712897 v 1.5020044 l 2.67023,-1.5020044 v 1.5020044 l 2.336452,-1.5020044 c 0.183578,0 0.333779,0.1502005 0.333779,0.3337789 z"
     fill="#e96a60"
     id="path1"
     style="stroke-width:0.0130382;fill:#8c60e9;fill-opacity:1" />
  <path
     d="M 12.589456,13.346198 H 5.246322 c -0.283712,0 -0.500668,-0.216957 -0.500668,-0.500669 V 9.0070731 c 0,-0.250334 0.200267,-0.4672902 0.450601,-0.5006682 L 7.499329,7.0210893 c 0.05007,-0.033378 0.116823,-0.033378 0.166889,0 0.05007,0.033378 0.08345,0.083445 0.08345,0.1502004 v 1.2182926 l 2.419896,-1.368493 c 0.05007,-0.033378 0.116823,-0.033378 0.16689,0 0.05007,0.033378 0.08344,0.083445 0.08344,0.1502004 v 1.2016039 l 2.086118,-1.3351154 c 0.03338,-0.016689 0.05007,-0.033378 0.08345,-0.033378 0.283712,0 0.500668,0.2169563 0.500668,0.5006683 v 5.3404605 c 0,0.267023 -0.233645,0.500669 -0.500668,0.500669 z M 7.415884,7.4716907 5.329767,8.8068061 c -0.03338,0.01669 -0.05007,0.03338 -0.08345,0.03338 -0.100134,0 -0.166889,0.06675 -0.166889,0.166889 v 3.8384559 c 0,0.100134 0.06676,0.16689 0.166889,0.16689 h 7.343134 c 0.100133,0 0.166889,-0.06676 0.166889,-0.16689 V 7.5050686 c 0,-0.083445 -0.05007,-0.1502005 -0.133511,-0.1668894 l -2.286385,1.4686269 c -0.05007,0.03338 -0.116823,0.03338 -0.16689,0 -0.05007,-0.03338 -0.08344,-0.08344 -0.08344,-0.150201 V 7.4383128 L 7.666217,8.8068061 c -0.05007,0.03338 -0.116822,0.03338 -0.166889,0 -0.05007,-0.03338 -0.08344,-0.08344 -0.08344,-0.150201 z"
     fill="#231c1c"
     id="path2"
     style="stroke-width:0.0130382" />
  <path
     d="m 5.246322,12.845529 c 0,0.183579 -0.150201,0.333779 -0.333779,0.333779 H 3.410538 c -0.183578,0 -0.333778,-0.1502 -0.333778,-0.333779 L 3.410538,6.8375109 3.243649,5.3355063 c 0,-0.1835783 0.150201,-0.3337788 0.333779,-0.3337788 h 1.168226 c 0.183578,0 0.333779,0.1502005 0.333779,0.3337788 l -0.16689,1.5020046 z"
     fill="#e96a60"
     id="path3"
     style="stroke-width:0.0130382;fill:#8c60e9;fill-opacity:1" />
  <path
     d="M 4.912543,13.346198 H 3.410538 c -0.283712,0 -0.500668,-0.216957 -0.500668,-0.500669 L 3.243649,6.8375109 3.07676,5.3521952 v -0.016689 c 0,-0.283712 0.216956,-0.5006682 0.500668,-0.5006682 h 1.168226 c 0.283712,0 0.500668,0.2169562 0.500668,0.5006682 v 0.016689 L 5.079433,6.8375109 5.413211,12.82884 v 0.01669 c 0,0.267022 -0.233645,0.500668 -0.500668,0.500668 z M 3.410538,5.3188174 3.577428,6.8041331 v 0.033378 L 3.243649,12.845529 c 0,0.08344 0.08344,0.150201 0.166889,0.150201 h 1.502005 c 0.08344,0 0.16689,-0.06676 0.16689,-0.16689 L 4.745654,6.820822 V 6.7874441 L 4.912543,5.3021284 c 0,-0.083445 -0.08345,-0.1668894 -0.166889,-0.1668894 H 3.577428 C 3.477294,5.168617 3.410538,5.2353727 3.410538,5.3188174 Z"
     fill="#231c1c"
     id="path4"
     style="stroke-width:0.0130382" />
  <path
     d="M 3.410538,6.8375109 H 4.912543 V 7.1712897 H 3.410538 Z m 0,-0.5006682 H 4.912543 V 6.6706215 H 3.410538 Z"
     fill="#231c1c"
     id="path5"
     style="stroke-width:0.0130382" />
  <path
     d="M 5.913879,9.8415201 H 7.582774 V 10.842857 H 5.913879 Z"
     fill="#f8f4bc"
     id="path6"
     style="stroke-width:0.0130382" />
  <path
     d="M 7.582774,11.009746 H 5.913879 c -0.100133,0 -0.166889,-0.06676 -0.166889,-0.166889 V 9.8415201 c 0,-0.100133 0.06676,-0.166889 0.166889,-0.166889 h 1.668895 c 0.100133,0 0.166889,0.06676 0.166889,0.166889 v 1.0013369 c 0,0.08344 -0.08345,0.166889 -0.166889,0.166889 z M 6.080769,10.675967 H 7.415884 V 10.008409 H 6.080769 Z"
     fill="#231c1c"
     id="path7"
     style="stroke-width:0.0130382" />
  <path
     d="m 8.58411,9.8415201 h 1.668894 V 10.842857 H 8.58411 Z"
     fill="#f8f4bc"
     id="path8"
     style="stroke-width:0.0130382" />
  <path
     d="M 10.253004,11.009746 H 8.58411 c -0.100134,0 -0.166889,-0.06676 -0.166889,-0.166889 V 9.8415201 c 0,-0.100133 0.06676,-0.166889 0.166889,-0.166889 h 1.668894 c 0.100134,0 0.166889,0.06676 0.166889,0.166889 v 1.0013369 c 0,0.08344 -0.08344,0.166889 -0.166889,0.166889 z M 8.750999,10.675967 h 1.335116 V 10.008409 H 8.750999 Z"
     fill="#231c1c"
     id="path9"
     style="stroke-width:0.0130382" />
  <path
     d="m 11.254341,9.8415201 h 1.668894 v 1.0013369 h -1.668894 z"
     fill="#f8f4bc"
     id="path10"
     style="stroke-width:0.0130382" />
  <path
     d="m 12.923235,11.009746 h -1.668894 c -0.100134,0 -0.16689,-0.06676 -0.16689,-0.166889 V 9.8415201 c 0,-0.100133 0.06676,-0.166889 0.16689,-0.166889 h 1.668894 c 0.100133,0 0.166889,0.06676 0.166889,0.166889 v 1.0013369 c 0,0.08344 -0.08344,0.166889 -0.166889,0.166889 z M 11.42123,10.675967 h 1.335115 V 10.008409 H 11.42123 Z"
     fill="#231c1c"
     id="path11"
     style="stroke-width:0.0130382" />
  <path
     d="m 3.744317,4.6679487 c -0.03338,0 -0.06676,-0.016689 -0.100133,-0.033378 C 3.560734,4.5845037 3.54405,4.4843702 3.594114,4.4009255 3.610804,4.3842365 3.844448,4.0170799 3.610804,3.7834347 3.277025,3.4496559 3.443914,2.9489877 3.594114,2.7320315 c 0.05007,-0.083445 0.1502,-0.1001336 0.233645,-0.050067 0.08345,0.050067 0.100134,0.1502004 0.05007,0.2336451 -0.01669,0.016689 -0.250334,0.4005346 -0.01669,0.6174908 0.333779,0.3337788 0.166889,0.8344471 0.01669,1.0514033 -0.03338,0.050067 -0.08344,0.083445 -0.133512,0.083445 z"
     fill="#231c1c"
     id="path12"
     style="stroke-width:0.0130382" />
  <path
     d="m 4.562075,4.6679487 c -0.06675,0 -0.116822,-0.033378 -0.1502,-0.1001337 -0.03338,-0.083445 0,-0.1835783 0.06676,-0.2169562 C 4.528705,4.3174808 4.595457,4.1339026 4.411875,3.733368 4.01134,2.9322989 4.461945,2.6819648 4.478635,2.6819648 c 0.08344,-0.033378 0.183578,0 0.216956,0.066756 0.03338,0.083445 0.01669,0.1835784 -0.06676,0.2169563 -0.06676,0.050067 -0.133511,0.2169562 0.06676,0.6174908 0.400534,0.8010691 -0.05007,1.0514032 -0.06676,1.0514032 -0.01669,0.016689 -0.05007,0.033378 -0.06676,0.033378 z"
     fill="#231c1c"
     id="path13"
     style="stroke-width:0.0130382" />
</svg>
