<?xml version="1.0" encoding="UTF-8" standalone="no"?>
<svg
   viewBox="0 0 16 16"
   x="0px"
   y="0px"
   version="1.1"
   id="svg5"
   sodipodi:docname="dv-industry_navy.svg"
   width="16"
   height="16"
   inkscape:version="1.4.2 (f4327f4, 2025-05-13)"
   xmlns:inkscape="http://www.inkscape.org/namespaces/inkscape"
   xmlns:sodipodi="http://sodipodi.sourceforge.net/DTD/sodipodi-0.dtd"
   xmlns="http://www.w3.org/2000/svg"
   xmlns:svg="http://www.w3.org/2000/svg"
   xmlns:rdf="http://www.w3.org/1999/02/22-rdf-syntax-ns#"
   xmlns:cc="http://creativecommons.org/ns#"
   xmlns:dc="http://purl.org/dc/elements/1.1/">
  <defs
     id="defs5">
    <linearGradient
       id="swatch7"
       inkscape:swatch="solid">
      <stop
         style="stop-color:#ffffff;stop-opacity:1;"
         offset="0"
         id="stop7" />
    </linearGradient>
  </defs>
  <sodipodi:namedview
     id="namedview5"
     pagecolor="#ffffff"
     bordercolor="#000000"
     borderopacity="0.25"
     inkscape:showpageshadow="2"
     inkscape:pageopacity="0.0"
     inkscape:pagecheckerboard="0"
     inkscape:deskcolor="#d1d1d1"
     inkscape:zoom="22.627417"
     inkscape:cx="11.203223"
     inkscape:cy="12.838407"
     inkscape:window-width="1920"
     inkscape:window-height="1009"
     inkscape:window-x="2872"
     inkscape:window-y="-8"
     inkscape:window-maximized="1"
     inkscape:current-layer="svg5"
     showguides="true" />
  <title
     id="title1">glyph</title>
  <metadata
     id="metadata5">
    <rdf:RDF>
      <cc:Work
         rdf:about="">
        <dc:title>glyph</dc:title>
      </cc:Work>
    </rdf:RDF>
  </metadata>
  <path
     d="m 10.448361,15.011044 c 0,0.183579 -0.150201,0.333779 -0.333779,0.333779 H 2.7714483 c -0.183578,0 -0.333779,-0.1502 -0.333779,-0.333779 v -3.838456 c 0,-0.183578 0.150201,-0.333779 0.333779,-0.333779 l 2.336452,-1.5020048 v 1.5020048 l 2.67023,-1.5020048 V 10.838809 L 10.114582,9.3368042 c 0.183578,0 0.333779,0.1502005 0.333779,0.3337789 z"
     fill="#e96a60"
     id="path1"
     style="fill:none;fill-opacity:1;stroke-width:0.0130382" />
  <path
     d="M 10.114582,15.511713 H 2.7714483 c -0.283712,0 -0.1407757,-0.201792 -0.156918,-0.485044 -0.173095,-1.475421 -0.2920299,-3.148966 0.106851,-4.35475 l 2.303074,-1.4853152 c 0.05007,-0.033378 0.116823,-0.033378 0.166889,0 0.05007,0.033378 0.08345,0.083445 0.08345,0.1502004 v 1.2182928 l 2.419896,-1.3684932 c 0.05007,-0.033378 0.116823,-0.033378 0.16689,0 0.05007,0.033378 0.08344,0.083445 0.08344,0.1502004 V 10.538408 L 10.031138,9.2032927 c 0.03338,-0.016689 0.05007,-0.033378 0.08345,-0.033378 0.283712,0 0.500668,0.2169563 0.500668,0.5006683 v 5.340461 c 0,0.267023 -0.233645,0.500669 -0.500668,0.500669 z"
     fill="#231c1c"
     id="path2"
     style="fill:#000000;fill-opacity:1;stroke-width:0.0130382"
     sodipodi:nodetypes="csscccsccssccssssc" />
  <path
     d="m 2.7714483,15.011044 c 0,0.183579 -0.150201,0.333779 -0.333779,0.333779 h -1.502005 c -0.183578,0 -0.333778,-0.1502 -0.333778,-0.333779 L 0.9356643,9.0030254 0.7687753,7.5010208 c 0,-0.1835783 0.150201,-0.3337788 0.333779,-0.3337788 h 1.168226 c 0.183578,0 0.333779,0.1502005 0.333779,0.3337788 l -0.16689,1.5020046 z"
     fill="#e96a60"
     id="path3"
     style="fill:none;fill-opacity:1;stroke-width:0.0130382" />
  <path
     d="m 2.4376693,15.511713 h -1.502005 c -0.283712,0 -0.500668,-0.216958 -0.500668,-0.500669 L 0.7687753,9.0030254 0.6018863,7.5177097 v -0.016689 c 0,-0.283712 0.216956,-0.5006682 0.500668,-0.5006682 h 1.168226 c 0.283712,0 0.500668,0.2169562 0.500668,0.5006682 v 0.016689 l -0.166889,1.4853157 0.333778,5.9913296 v 0.01669 c 0,0.267022 -0.233645,0.500668 -0.500668,0.500668 z"
     fill="#231c1c"
     id="path4"
     style="stroke-width:0.4;fill:#ffffff;fill-opacity:1;stroke:#000000;stroke-opacity:1;stroke-dasharray:none"
     sodipodi:nodetypes="sscccsssscccss" />
  <path
     d="M 0.67049926,9.0030254 H 2.7028343 V 9.3368042 H 0.67049926 Z m 0,-0.5006682 H 2.7028343 V 8.836136 H 0.67049926 Z"
     fill="#231c1c"
     id="path5"
     style="fill:#000000;fill-opacity:1;stroke-width:0.0151219;stroke-dasharray:none" />
  <path
     d="m 1.2694433,6.8334632 c -0.03338,0 -0.06676,-0.016689 -0.100133,-0.033378 -0.08345,-0.050067 -0.100134,-0.1502005 -0.05007,-0.2336452 0.01669,-0.016689 0.250334,-0.3838456 0.01669,-0.6174908 -0.333779,-0.3337788 -0.16689,-0.834447 -0.01669,-1.0514032 0.05007,-0.083445 0.1502,-0.1001336 0.233645,-0.050067 0.08345,0.050067 0.100134,0.1502004 0.05007,0.2336451 -0.01669,0.016689 -0.250334,0.4005346 -0.01669,0.6174908 0.333779,0.3337788 0.166889,0.8344471 0.01669,1.0514033 -0.03338,0.050067 -0.08344,0.083445 -0.133512,0.083445 z"
     fill="#231c1c"
     id="path12"
     style="stroke-width:0.0130382" />
  <path
     d="m 2.0872013,6.8334632 c -0.06675,0 -0.116822,-0.033378 -0.1502,-0.1001337 -0.03338,-0.083445 0,-0.1835783 0.06676,-0.2169562 0.05007,-0.033378 0.116822,-0.2169562 -0.06676,-0.6174908 -0.400535,-0.8010691 0.05007,-1.0514032 0.06676,-1.0514032 0.08344,-0.033378 0.183578,0 0.216956,0.066756 0.03338,0.083445 0.01669,0.1835784 -0.06676,0.2169563 -0.06676,0.050067 -0.133511,0.2169562 0.06676,0.6174908 0.400534,0.8010691 -0.05007,1.0514032 -0.06676,1.0514032 -0.01669,0.016689 -0.05007,0.033378 -0.06676,0.033378 z"
     fill="#231c1c"
     id="path13"
     style="stroke-width:0.0130382" />
  <path
     d="M 4.9798749,13.162988 H 3.4450205 c -0.092091,0 -0.1534849,-0.0614 -0.1534849,-0.153485 v -0.920912 c 0,-0.09209 0.061398,-0.153485 0.1534849,-0.153485 h 1.5348544 c 0.092091,0 0.1534849,0.0614 0.1534849,0.153485 v 0.920912 c 0,0.07674 -0.076747,0.153484 -0.1534849,0.153485 z"
     fill="#231c1c"
     id="path7"
     style="fill:#000000;fill-opacity:1;stroke:#ffffff;stroke-width:0.275905;stroke-dasharray:none;stroke-opacity:1"
     sodipodi:nodetypes="csssssssc" />
  <path
     d="M 7.4935929,13.162988 H 5.9587395 c -0.092092,0 -0.153485,-0.0614 -0.153485,-0.153485 v -0.920912 c 0,-0.09209 0.061398,-0.153485 0.153485,-0.153485 h 1.5348534 c 0.092091,0 0.1534844,0.0614 0.1534844,0.153485 v 0.920912 c 0,0.07674 -0.076738,0.153484 -0.1534844,0.153485 z"
     fill="#231c1c"
     id="path9"
     style="fill:#000000;fill-opacity:1;stroke:#ffffff;stroke-width:0.275905;stroke-dasharray:none;stroke-opacity:1"
     sodipodi:nodetypes="csssssssc" />
  <path
     d="M 10.007311,13.162988 H 8.4724583 c -0.09209,0 -0.1534862,-0.0614 -0.1534862,-0.153485 v -0.920912 c 0,-0.09209 0.061398,-0.153485 0.1534862,-0.153485 h 1.5348527 c 0.09209,0 0.153485,0.0614 0.153485,0.153485 v 0.920912 c 0,0.07674 -0.07674,0.153484 -0.153485,0.153485 z"
     fill="#231c1c"
     id="path11"
     style="fill:#000000;fill-opacity:1;stroke:#ffffff;stroke-width:0.275905;stroke-dasharray:none;stroke-opacity:1"
     sodipodi:nodetypes="csssssssc" />
  <g
     id="g2"
     transform="matrix(1.1997103,0,0,1.1997103,-2.9194263,-0.23465994)">
    <circle
       style="fill:#ffffff;fill-opacity:1;stroke:#ffffff;stroke-width:1.006;stroke-dasharray:none;stroke-opacity:1"
       id="path2-4"
       cx="11.270369"
       cy="4.7738252"
       r="3.9228287" />
    <circle
       style="fill:none;stroke:#000000;stroke-width:0.572589"
       id="path2-5"
       cx="11.270369"
       cy="4.7738252"
       r="3.896987" />
  </g>
  <path
     d="m 13.351112,4.5406353 0.329317,-0.024942 -1.118744,-1.2071563 0.258749,1.2720462 0.269699,-0.020481 c 0.142758,0.910893 -0.02717,1.7844742 -0.539398,2.440674 L 9.4662309,3.9162721 C 9.6203448,3.5812776 9.5595103,3.1716597 9.2833227,2.8956746 c -0.3542592,-0.3542587 -0.9285347,-0.3542587 -1.2827939,0 -0.3542584,0.3542587 -0.3542584,0.9285349 0,1.2827936 0.2755801,0.2755796 0.6841835,0.3366167 1.0189755,0.1835169 L 9.6990239,5.0415047 C 9.4279058,5.2907227 9.1421865,5.5253406 8.8457204,5.7490082 L 9.2267465,6.130034 C 9.4637979,5.8447209 9.7069321,5.5675191 9.958584,5.3012674 L 12.104211,7.446895 C 11.448214,7.958512 10.575039,8.128239 9.6647535,7.985684 L 9.6852305,7.71558 8.4131843,7.4568314 9.6203405,8.575575 9.6452815,8.246664 C 10.740908,8.7144796 11.892705,8.6846716 12.699165,8.098025 l 0.798153,0.269699 -0.271929,-0.8050409 c 0.564339,-0.8048386 0.587254,-1.9406159 0.12552,-3.021845 z M 8.2426498,3.9369558 c -0.2208285,-0.2208287 -0.2208285,-0.5787374 0,-0.7993633 0.2208284,-0.2206259 0.5787375,-0.2208287 0.7993631,0 0.2208285,0.2208286 0.2208285,0.5787374 0,0.7993633 -0.2208284,0.2206259 -0.5787375,0.2208287 -0.7993631,0 z M 11.234888,4.1222978 10.853862,3.741272 c -0.215353,0.3055912 -0.451593,0.5900932 -0.704664,0.8577643 l 0.253477,0.2534764 c 0.266657,-0.2573293 0.54325,-0.5016805 0.832416,-0.7302149 z"
     id="path1-9"
     style="stroke-width:0.202781" />
</svg>
