<?xml version="1.0" encoding="UTF-8" standalone="no"?>
<svg
   viewBox="0 0 16 16"
   x="0px"
   y="0px"
   version="1.1"
   id="svg5"
   sodipodi:docname="dv-industry_tech.svg"
   width="16"
   height="16"
   inkscape:version="1.4.2 (f4327f4, 2025-05-13)"
   xmlns:inkscape="http://www.inkscape.org/namespaces/inkscape"
   xmlns:sodipodi="http://sodipodi.sourceforge.net/DTD/sodipodi-0.dtd"
   xmlns="http://www.w3.org/2000/svg"
   xmlns:svg="http://www.w3.org/2000/svg"
   xmlns:rdf="http://www.w3.org/1999/02/22-rdf-syntax-ns#"
   xmlns:cc="http://creativecommons.org/ns#"
   xmlns:dc="http://purl.org/dc/elements/1.1/">
  <defs
     id="defs5">
    <linearGradient
       id="swatch7"
       inkscape:swatch="solid">
      <stop
         style="stop-color:#ffffff;stop-opacity:1;"
         offset="0"
         id="stop7" />
    </linearGradient>
  </defs>
  <sodipodi:namedview
     id="namedview5"
     pagecolor="#ffffff"
     bordercolor="#000000"
     borderopacity="0.25"
     inkscape:showpageshadow="2"
     inkscape:pageopacity="0.0"
     inkscape:pagecheckerboard="0"
     inkscape:deskcolor="#d1d1d1"
     inkscape:zoom="45.254834"
     inkscape:cx="9.1813396"
     inkscape:cy="8.783592"
     inkscape:window-width="1920"
     inkscape:window-height="1009"
     inkscape:window-x="2872"
     inkscape:window-y="-8"
     inkscape:window-maximized="1"
     inkscape:current-layer="svg5"
     showguides="true" />
  <title
     id="title1">glyph</title>
  <metadata
     id="metadata5">
    <rdf:RDF>
      <cc:Work
         rdf:about="">
        <dc:title>glyph</dc:title>
      </cc:Work>
    </rdf:RDF>
  </metadata>
  <path
     d="m 10.448361,15.011044 c 0,0.183579 -0.150201,0.333779 -0.333779,0.333779 H 2.7714483 c -0.183578,0 -0.333779,-0.1502 -0.333779,-0.333779 v -3.838456 c 0,-0.183578 0.150201,-0.333779 0.333779,-0.333779 l 2.336452,-1.5020048 v 1.5020048 l 2.67023,-1.5020048 V 10.838809 L 10.114582,9.3368042 c 0.183578,0 0.333779,0.1502005 0.333779,0.3337789 z"
     fill="#e96a60"
     id="path1"
     style="fill:none;fill-opacity:1;stroke-width:0.0130382" />
  <path
     d="M 10.114582,15.511713 H 2.7714483 c -0.283712,0 -0.1407757,-0.201792 -0.156918,-0.485044 -0.173095,-1.475421 -0.2920299,-3.148966 0.106851,-4.35475 l 2.303074,-1.4853152 c 0.05007,-0.033378 0.116823,-0.033378 0.166889,0 0.05007,0.033378 0.08345,0.083445 0.08345,0.1502004 v 1.2182928 l 2.419896,-1.3684932 c 0.05007,-0.033378 0.116823,-0.033378 0.16689,0 0.05007,0.033378 0.08344,0.083445 0.08344,0.1502004 V 10.538408 L 10.031138,9.2032927 c 0.03338,-0.016689 0.05007,-0.033378 0.08345,-0.033378 0.283712,0 0.500668,0.2169563 0.500668,0.5006683 v 5.340461 c 0,0.267023 -0.233645,0.500669 -0.500668,0.500669 z"
     fill="#231c1c"
     id="path2"
     style="fill:#000000;fill-opacity:1;stroke-width:0.0130382"
     sodipodi:nodetypes="csscccsccssccssssc" />
  <path
     d="m 2.7714483,15.011044 c 0,0.183579 -0.150201,0.333779 -0.333779,0.333779 h -1.502005 c -0.183578,0 -0.333778,-0.1502 -0.333778,-0.333779 L 0.9356643,9.0030254 0.7687753,7.5010208 c 0,-0.1835783 0.150201,-0.3337788 0.333779,-0.3337788 h 1.168226 c 0.183578,0 0.333779,0.1502005 0.333779,0.3337788 l -0.16689,1.5020046 z"
     fill="#e96a60"
     id="path3"
     style="fill:none;fill-opacity:1;stroke-width:0.0130382" />
  <path
     d="m 2.4376693,15.511713 h -1.502005 c -0.283712,0 -0.500668,-0.216958 -0.500668,-0.500669 L 0.7687753,9.0030254 0.6018863,7.5177097 v -0.016689 c 0,-0.283712 0.216956,-0.5006682 0.500668,-0.5006682 h 1.168226 c 0.283712,0 0.500668,0.2169562 0.500668,0.5006682 v 0.016689 l -0.166889,1.4853157 0.333778,5.9913296 v 0.01669 c 0,0.267022 -0.233645,0.500668 -0.500668,0.500668 z"
     fill="#231c1c"
     id="path4"
     style="stroke-width:0.4;fill:#ffffff;fill-opacity:1;stroke:#000000;stroke-opacity:1;stroke-dasharray:none"
     sodipodi:nodetypes="sscccsssscccss" />
  <path
     d="M 0.67049926,9.0030254 H 2.7028343 V 9.3368042 H 0.67049926 Z m 0,-0.5006682 H 2.7028343 V 8.836136 H 0.67049926 Z"
     fill="#231c1c"
     id="path5"
     style="fill:#000000;fill-opacity:1;stroke-width:0.0151219;stroke-dasharray:none" />
  <path
     d="m 1.2694433,6.8334632 c -0.03338,0 -0.06676,-0.016689 -0.100133,-0.033378 -0.08345,-0.050067 -0.100134,-0.1502005 -0.05007,-0.2336452 0.01669,-0.016689 0.250334,-0.3838456 0.01669,-0.6174908 -0.333779,-0.3337788 -0.16689,-0.834447 -0.01669,-1.0514032 0.05007,-0.083445 0.1502,-0.1001336 0.233645,-0.050067 0.08345,0.050067 0.100134,0.1502004 0.05007,0.2336451 -0.01669,0.016689 -0.250334,0.4005346 -0.01669,0.6174908 0.333779,0.3337788 0.166889,0.8344471 0.01669,1.0514033 -0.03338,0.050067 -0.08344,0.083445 -0.133512,0.083445 z"
     fill="#231c1c"
     id="path12"
     style="stroke-width:0.0130382" />
  <path
     d="m 2.0872013,6.8334632 c -0.06675,0 -0.116822,-0.033378 -0.1502,-0.1001337 -0.03338,-0.083445 0,-0.1835783 0.06676,-0.2169562 0.05007,-0.033378 0.116822,-0.2169562 -0.06676,-0.6174908 -0.400535,-0.8010691 0.05007,-1.0514032 0.06676,-1.0514032 0.08344,-0.033378 0.183578,0 0.216956,0.066756 0.03338,0.083445 0.01669,0.1835784 -0.06676,0.2169563 -0.06676,0.050067 -0.133511,0.2169562 0.06676,0.6174908 0.400534,0.8010691 -0.05007,1.0514032 -0.06676,1.0514032 -0.01669,0.016689 -0.05007,0.033378 -0.06676,0.033378 z"
     fill="#231c1c"
     id="path13"
     style="stroke-width:0.0130382" />
  <path
     d="M 4.9798749,13.162988 H 3.4450205 c -0.092091,0 -0.1534849,-0.0614 -0.1534849,-0.153485 v -0.920912 c 0,-0.09209 0.061398,-0.153485 0.1534849,-0.153485 h 1.5348544 c 0.092091,0 0.1534849,0.0614 0.1534849,0.153485 v 0.920912 c 0,0.07674 -0.076747,0.153484 -0.1534849,0.153485 z"
     fill="#231c1c"
     id="path7"
     style="fill:#000000;fill-opacity:1;stroke:#ffffff;stroke-width:0.275905;stroke-dasharray:none;stroke-opacity:1"
     sodipodi:nodetypes="csssssssc" />
  <path
     d="M 7.4935929,13.162988 H 5.9587395 c -0.092092,0 -0.153485,-0.0614 -0.153485,-0.153485 v -0.920912 c 0,-0.09209 0.061398,-0.153485 0.153485,-0.153485 h 1.5348534 c 0.092091,0 0.1534844,0.0614 0.1534844,0.153485 v 0.920912 c 0,0.07674 -0.076738,0.153484 -0.1534844,0.153485 z"
     fill="#231c1c"
     id="path9"
     style="fill:#000000;fill-opacity:1;stroke:#ffffff;stroke-width:0.275905;stroke-dasharray:none;stroke-opacity:1"
     sodipodi:nodetypes="csssssssc" />
  <path
     d="M 10.007311,13.162988 H 8.4724583 c -0.09209,0 -0.1534862,-0.0614 -0.1534862,-0.153485 v -0.920912 c 0,-0.09209 0.061398,-0.153485 0.1534862,-0.153485 h 1.5348527 c 0.09209,0 0.153485,0.0614 0.153485,0.153485 v 0.920912 c 0,0.07674 -0.07674,0.153484 -0.153485,0.153485 z"
     fill="#231c1c"
     id="path11"
     style="fill:#000000;fill-opacity:1;stroke:#ffffff;stroke-width:0.275905;stroke-dasharray:none;stroke-opacity:1"
     sodipodi:nodetypes="csssssssc" />
  <g
     id="g2"
     transform="matrix(1.1997103,0,0,1.1997103,-2.9194263,-0.23465994)">
    <circle
       style="fill:#ffffff;fill-opacity:1;stroke:#ffffff;stroke-width:1.006;stroke-dasharray:none;stroke-opacity:1"
       id="path2-4"
       cx="11.270369"
       cy="4.7738252"
       r="3.9228287" />
    <circle
       style="fill:none;stroke:#000000;stroke-width:0.572589"
       id="path2-5"
       cx="11.270369"
       cy="4.7738252"
       r="3.896987" />
  </g>
  <path
     d="M 13.591194,7.7777845 11.749512,4.8273017 V 2.5828888 c 0.228467,-0.037179 0.403298,-0.2352815 0.403298,-0.4739634 0,-0.2650777 -0.2157,-0.4807785 -0.480778,-0.4807785 H 9.5542585 c -0.2650784,0 -0.4807786,0.2157008 -0.4807786,0.4807785 0,0.2531622 0.1966792,0.4606238 0.4453003,0.4790784 l -0.00908,2.2372927 c -0.2142764,0.3292182 -1.519816,2.3369038 -1.84822,2.8795706 -0.1524107,0.2520287 -0.1856139,0.464598 -0.098485,0.6323314 0.1157989,0.222792 0.3845682,0.2471971 0.414931,0.2491879 l 5.3192098,5.667e-4 0.02611,-0.00851 c 0.182207,-0.0596 0.265077,-0.1759652 0.302546,-0.2628109 0.101885,-0.2378317 -0.02044,-0.5080244 -0.03463,-0.5378206 z M 9.3147411,6.7815997 c 0.042005,0 0.07606,0.034058 0.07606,0.076347 0,0.042004 -0.034054,0.076064 -0.07606,0.076064 -0.042287,0 -0.076349,-0.034058 -0.076349,-0.076064 0,-0.042006 0.034054,-0.076347 0.076349,-0.076347 z m 0.03235,0.9405304 c -0.093661,0 -0.1691502,-0.07578 -0.1691502,-0.1691502 0,-0.093661 0.075779,-0.1691501 0.1691502,-0.1691501 0.093377,0 0.1691502,0.07578 0.1691502,0.1691501 0,0.09337 -0.075497,0.1691502 -0.1691502,0.1691502 z M 9.876687,6.9047514 c -0.119483,0 -0.216267,-0.096494 -0.216267,-0.2159841 0,-0.1194899 0.09678,-0.2159842 0.216267,-0.2159842 0.119199,0 0.215985,0.096494 0.215985,0.2159842 0,0.1194898 -0.09678,0.2159841 -0.215985,0.2159841 z m 1.10575,0.3564643 c -0.145311,0 -0.262811,-0.1174991 -0.262811,-0.2628109 0,-0.1453118 0.1175,-0.2628108 0.262811,-0.2628108 0.145028,0 0.262811,0.117499 0.262811,0.2628108 0,0.1453118 -0.117783,0.2628109 -0.262811,0.2628109 z m 0.16915,-0.7886796 c -0.09366,0 -0.16915,-0.07578 -0.16915,-0.1691502 0,-0.093661 0.07578,-0.1691502 0.16915,-0.1691502 0.09337,0 0.16915,0.07578 0.16915,0.1691502 0,0.093661 -0.07578,0.1691502 -0.16915,0.1691502 z M 9.686848,5.1865996 C 9.771998,5.0557609 9.854866,4.9283297 9.854866,4.9283297 l 0.0096,-2.3386476 h 1.539433 v 2.3366133 l 0.162628,0.2602533 z M 9.5543099,2.2440363 c -0.074355,0 -0.1350965,-0.060736 -0.1350965,-0.1350964 0,-0.074356 0.060737,-0.1350963 0.1350965,-0.1350963 h 2.1177741 c 0.07436,0 0.135095,0.060736 0.135095,0.1350963 0,0.074356 -0.06074,0.1350964 -0.135095,0.1350964 z m 2.5015421,5.0532894 c -0.09366,0 -0.16915,-0.07578 -0.16915,-0.1691502 0,-0.093661 0.07578,-0.1691501 0.16915,-0.1691501 0.09338,0 0.16915,0.07578 0.16915,0.1691501 0,0.09337 -0.07607,0.1691502 -0.16915,0.1691502 z"
     id="path1-1"
     style="stroke-width:0.0726559" />
</svg>
