<?xml version="1.0" encoding="UTF-8" standalone="no"?>
<svg
   viewBox="0 0 16 16"
   x="0px"
   y="0px"
   version="1.1"
   id="svg5"
   sodipodi:docname="dv-mine_coal.svg"
   width="16"
   height="16"
   inkscape:version="1.4.2 (f4327f4, 2025-05-13)"
   xmlns:inkscape="http://www.inkscape.org/namespaces/inkscape"
   xmlns:sodipodi="http://sodipodi.sourceforge.net/DTD/sodipodi-0.dtd"
   xmlns="http://www.w3.org/2000/svg"
   xmlns:svg="http://www.w3.org/2000/svg"
   xmlns:rdf="http://www.w3.org/1999/02/22-rdf-syntax-ns#"
   xmlns:cc="http://creativecommons.org/ns#"
   xmlns:dc="http://purl.org/dc/elements/1.1/">
  <defs
     id="defs5">
    <linearGradient
       id="swatch7"
       inkscape:swatch="solid">
      <stop
         style="stop-color:#ffffff;stop-opacity:1;"
         offset="0"
         id="stop7" />
    </linearGradient>
  </defs>
  <sodipodi:namedview
     id="namedview5"
     pagecolor="#ffffff"
     bordercolor="#000000"
     borderopacity="0.25"
     inkscape:showpageshadow="2"
     inkscape:pageopacity="0.0"
     inkscape:pagecheckerboard="0"
     inkscape:deskcolor="#d1d1d1"
     inkscape:zoom="16"
     inkscape:cx="22.09375"
     inkscape:cy="-5.125"
     inkscape:window-width="1920"
     inkscape:window-height="1010"
     inkscape:window-x="2873"
     inkscape:window-y="-6"
     inkscape:window-maximized="1"
     inkscape:current-layer="svg5"
     showguides="true" />
  <title
     id="title1">glyph</title>
  <metadata
     id="metadata5">
    <rdf:RDF>
      <cc:Work
         rdf:about="">
        <dc:title>glyph</dc:title>
      </cc:Work>
    </rdf:RDF>
  </metadata>
  <path
     fill="#000000"
     d="m 12.21281,0.50002 c -0.66773,0.0424 -1.36397,0.44506 -2.079,0.95243 -0.74369,0.52773 -1.49538,1.15301 -2.3091,1.4962 A 0.28584223,0.28584223 0 0 1 7.49867,2.87275 C 6.96235,2.25426 6.13556,1.78119 4.8825,1.89803 4.19919,1.96163 3.73012,2.27767 3.32151,2.74323 3.13343,2.95761 2.96428,3.20683 2.80235,3.47124 H 14.3298 C 13.78634,2.40483 13.29183,1.178 12.21278,0.50005 Z M 0.5681,4.04289 V 5.61502 H 15.4319 V 4.04289 Z m 0.65654,2.14382 1.76308,6.66595 h 0.36734 c 0.1103,-0.23554 0.26119,-0.45321 0.44888,-0.64093 0.42576,-0.42577 1.02296,-0.67552 1.63798,-0.67552 0.61507,0 1.21115,0.24975 1.63692,0.67548 0.18765,0.18773 0.33825,0.4054 0.44877,0.64093 h 1.53533 c 0.1109,-0.23117 0.26019,-0.44448 0.44327,-0.62753 0.42615,-0.42612 1.01417,-0.66994 1.61679,-0.66994 0.60267,0 1.19068,0.24382 1.6168,0.66994 0.18308,0.18308 0.3324,0.39632 0.44327,0.62753 h 0.21552 L 14.79432,6.18671 H 1.22468 Z m 13.14321,4.82359 -0.21667,1.03617 H 15.4319 V 11.0103 Z m -8.92593,1.12775 c -0.41768,0 -0.8478,0.17562 -1.1523,0.48011 -0.30449,0.30449 -0.49129,0.75041 -0.49129,1.19139 0,0.44091 0.1868,0.88682 0.49129,1.19139 0.3045,0.30449 0.73462,0.48011 1.1523,0.48011 0.41769,0 0.8467,-0.17562 1.15123,-0.48015 0.30443,-0.30449 0.49237,-0.7504 0.49237,-1.19135 0,-0.44098 -0.18794,-0.8869 -0.49237,-1.19139 C 6.28862,12.31367 5.85961,12.13802 5.44192,12.13802 Z m 5.68112,0.0457 c -0.43009,0 -0.86825,0.18161 -1.17238,0.48571 -0.30414,0.30417 -0.48572,0.7423 -0.48572,1.17242 0,0.43012 0.18158,0.86825 0.48572,1.17242 0.30413,0.30406 0.74229,0.48568 1.17238,0.48568 0.43012,0 0.86824,-0.18158 1.17242,-0.48572 0.30406,-0.30406 0.48564,-0.74226 0.48564,-1.17238 0,-0.43012 -0.18151,-0.86825 -0.48568,-1.17242 -0.30417,-0.30406 -0.74233,-0.48568 -1.17245,-0.48568 z"
     id="path1"
     style="stroke-width:0.0357303" />
</svg>
