<?xml version="1.0" encoding="UTF-8" standalone="no"?>
<svg
   viewBox="0 0 16 16"
   x="0px"
   y="0px"
   version="1.1"
   id="svg5"
   sodipodi:docname="dv-mine_materials.svg"
   width="16"
   height="16"
   inkscape:version="1.4.2 (f4327f4, 2025-05-13)"
   xmlns:inkscape="http://www.inkscape.org/namespaces/inkscape"
   xmlns:sodipodi="http://sodipodi.sourceforge.net/DTD/sodipodi-0.dtd"
   xmlns="http://www.w3.org/2000/svg"
   xmlns:svg="http://www.w3.org/2000/svg"
   xmlns:rdf="http://www.w3.org/1999/02/22-rdf-syntax-ns#"
   xmlns:cc="http://creativecommons.org/ns#"
   xmlns:dc="http://purl.org/dc/elements/1.1/">
  <defs
     id="defs5">
    <linearGradient
       id="swatch7"
       inkscape:swatch="solid">
      <stop
         style="stop-color:#ffffff;stop-opacity:1;"
         offset="0"
         id="stop7" />
    </linearGradient>
  </defs>
  <sodipodi:namedview
     id="namedview5"
     pagecolor="#ffffff"
     bordercolor="#000000"
     borderopacity="0.25"
     inkscape:showpageshadow="2"
     inkscape:pageopacity="0.0"
     inkscape:pagecheckerboard="0"
     inkscape:deskcolor="#d1d1d1"
     inkscape:zoom="22.627417"
     inkscape:cx="-1.789864"
     inkscape:cy="8.905126"
     inkscape:window-width="1920"
     inkscape:window-height="1009"
     inkscape:window-x="2872"
     inkscape:window-y="-8"
     inkscape:window-maximized="1"
     inkscape:current-layer="svg5"
     showguides="true" />
  <title
     id="title1">glyph</title>
  <metadata
     id="metadata5">
    <rdf:RDF>
      <cc:Work
         rdf:about="">
        <dc:title>glyph</dc:title>
      </cc:Work>
    </rdf:RDF>
  </metadata>
  <path
     fill="#000000"
     d="M 7.9719407,5.8774732 C 7.5350874,5.9052128 7.0795818,6.1686477 6.6117832,6.5005876 6.1252341,6.8458477 5.6334512,7.2549286 5.1010861,7.479456 A 0.18700839,0.18700839 0 0 1 4.8877788,7.4297994 C 4.5368988,7.0251608 3.9959826,6.7156612 3.1761852,6.7921022 2.7291389,6.8337116 2.4222563,7.0404765 2.1549288,7.3450627 2.0318801,7.4853179 1.9212159,7.6483668 1.8152755,7.8213534 H 9.3569519 C 9.0014009,7.1236692 8.677875,6.3210324 7.9719209,5.8774928 Z M 0.35354783,8.1953476 V 9.2238922 H 10.077986 V 8.1953476 Z M 0.78308018,9.5979125 1.9365513,13.959019 h 0.2403271 c 0.072162,-0.154099 0.17088,-0.296506 0.2936736,-0.419319 0.2785478,-0.278554 0.6692577,-0.441949 1.0716262,-0.441949 0.4024011,0 0.7923783,0.163395 1.0709326,0.441923 0.1227674,0.122819 0.2212954,0.265228 0.2936016,0.41932 h 1.0044687 c 0.072555,-0.15124 0.1702257,-0.290795 0.2900033,-0.410554 0.278803,-0.278783 0.663507,-0.438298 1.0577629,-0.438298 0.3942882,0 0.7789866,0.159515 1.0577697,0.438298 0.1197769,0.119778 0.217468,0.259288 0.2900029,0.410554 H 8.7477215 L 9.6608585,9.5979125 H 0.78310635 Z m 8.59876622,3.1557695 -0.141754,0.677899 h 0.8378936 v -0.677899 z m -5.8396682,0.737814 c -0.2732615,0 -0.5546617,0.114898 -0.7538766,0.314105 -0.1992085,0.199209 -0.3214198,0.490946 -0.3214198,0.779451 0,0.28846 0.1222113,0.580189 0.3214198,0.779451 0.1992149,0.199208 0.4806151,0.314105 0.7538766,0.314105 0.273268,0 0.5539419,-0.114898 0.7531765,-0.314132 0.1991692,-0.199208 0.3221264,-0.490939 0.3221264,-0.779424 0,-0.288505 -0.1229572,-0.580242 -0.3221264,-0.779451 C 4.0961201,13.606393 3.8154462,13.491476 3.5421782,13.491476 Z m 3.7167952,0.0299 c -0.2813804,0 -0.5680407,0.118815 -0.7670136,0.317768 -0.1989794,0.199 -0.3177756,0.48564 -0.3177756,0.76704 0,0.2814 0.1187962,0.568041 0.3177756,0.76704 0.1989729,0.198927 0.4856332,0.31775 0.7670136,0.31775 0.2814003,0 0.5680342,-0.118797 0.7670396,-0.317777 0.1989271,-0.198927 0.3177238,-0.485613 0.3177238,-0.767013 0,-0.2814 -0.1187511,-0.56804 -0.3177495,-0.76704 -0.1989996,-0.198928 -0.4856594,-0.31775 -0.7670597,-0.31775 z"
     id="path1"
     style="stroke-width:0.0233761" />
  <g
     id="g2"
     transform="matrix(1.1997103,0,0,1.1997103,-2.8253327,-0.36759556)">
    <circle
       style="fill:#ffffff;fill-opacity:1;stroke:#ffffff;stroke-width:1.006;stroke-dasharray:none;stroke-opacity:1"
       id="path2-4"
       cx="11.270369"
       cy="4.7738252"
       r="3.9228287" />
    <circle
       style="fill:none;stroke:#000000;stroke-width:0.572589"
       id="path2"
       cx="11.270369"
       cy="4.7738252"
       r="3.896987" />
  </g>
  <path
     d="M 9.801946,4.098449 9.5098748,2.709058 h 3.1142322 l 0.328316,1.389391 z m -0.4859476,0 H 9.6167705 L 9.325061,2.709058 H 8.6474164 L 8.3557068,4.098449 Z M 8.5742136,5.6682744 H 8.8749868 L 8.5832762,4.2788834 H 8.2444586 L 7.9056408,4.2792451 7.6139312,5.6686362 H 7.9147047 Z M 7.5022753,5.8494602 H 7.1634572 L 6.8717476,7.2388511 H 8.1328403 L 7.8411298,5.8494602 Z M 10.543684,5.6682744 h 3.151247 l -0.328316,-1.389391 -0.298964,3.617e-4 h -3.63e-4 -2.815332 z m -0.485949,0 H 10.35851 L 10.066799,4.2788834 H 9.7279815 L 9.3895266,4.2792451 9.097816,5.6686362 H 9.3985892 Z M 8.9861698,5.3182223 9.2043231,4.27931 H 8.7680247 Z M 13.80938,5.8494694 h -3.63e-4 -2.814961 l 0.291709,1.389391 h 3.151248 l -0.328317,-1.389391 z m -3.339288,0 h -0.338819 l -0.2917095,1.389391 h 1.2610925 l -0.29171,-1.389391 z m -0.9603384,0 0.2181543,1.0389123 0.2181531,-1.0389123 z m -0.5236305,0 H 8.6473055 L 8.3555949,7.2388604 H 9.6166876 L 9.3249781,5.8494694 Z m -0.9603377,0 0.218154,1.0389123 0.2181533,-1.0389123 z"
     id="path1-4"
     style="stroke-width:0.0927682" />
</svg>
