<?xml version="1.0" encoding="UTF-8" standalone="no"?>
<svg
   viewBox="0 0 16 16"
   x="0px"
   y="0px"
   version="1.1"
   id="svg5"
   sodipodi:docname="dv-mine_petrol.svg"
   width="16"
   height="16"
   inkscape:version="1.4.2 (f4327f4, 2025-05-13)"
   xmlns:inkscape="http://www.inkscape.org/namespaces/inkscape"
   xmlns:sodipodi="http://sodipodi.sourceforge.net/DTD/sodipodi-0.dtd"
   xmlns="http://www.w3.org/2000/svg"
   xmlns:svg="http://www.w3.org/2000/svg"
   xmlns:rdf="http://www.w3.org/1999/02/22-rdf-syntax-ns#"
   xmlns:cc="http://creativecommons.org/ns#"
   xmlns:dc="http://purl.org/dc/elements/1.1/">
  <defs
     id="defs5">
    <linearGradient
       id="swatch7"
       inkscape:swatch="solid">
      <stop
         style="stop-color:#ffffff;stop-opacity:1;"
         offset="0"
         id="stop7" />
    </linearGradient>
  </defs>
  <sodipodi:namedview
     id="namedview5"
     pagecolor="#ffffff"
     bordercolor="#000000"
     borderopacity="0.25"
     inkscape:showpageshadow="2"
     inkscape:pageopacity="0.0"
     inkscape:pagecheckerboard="0"
     inkscape:deskcolor="#d1d1d1"
     inkscape:zoom="22.627417"
     inkscape:cx="-1.0827573"
     inkscape:cy="6.1871843"
     inkscape:window-width="1920"
     inkscape:window-height="1010"
     inkscape:window-x="2873"
     inkscape:window-y="-6"
     inkscape:window-maximized="1"
     inkscape:current-layer="svg5"
     showguides="true" />
  <title
     id="title1">glyph</title>
  <metadata
     id="metadata5">
    <rdf:RDF>
      <cc:Work
         rdf:about="">
        <dc:title>glyph</dc:title>
      </cc:Work>
    </rdf:RDF>
  </metadata>
  <path
     d="m 13.600325,14.710346 h -0.197867 v -3.95071 c 0.20142,-0.0179 0.359967,-0.185152 0.359967,-0.391314 0,-0.206158 -0.158467,-0.373388 -0.359967,-0.391315 v -3.95418 c 0.20142,-0.0179 0.359967,-0.185157 0.359967,-0.391314 0,-0.206158 -0.158467,-0.373388 -0.359967,-0.391311 V 1.289571 h 0.197866 c 0.217999,0 0.394789,-0.176785 0.394789,-0.394786 -10e-7,-0.218001 -0.176786,-0.394787 -0.394789,-0.394787 H 13.007671 2.992327 2.399673 c -0.218001,0 -0.394786,0.176785 -0.394786,0.394787 0,0.218001 0.176785,0.394786 0.394786,0.394786 H 2.59754 v 3.950711 c -0.20142,0.0179 -0.359966,0.185152 -0.359966,0.391314 0,0.206158 0.158546,0.373388 0.359966,0.391311 V 9.97709 c -0.20142,0.0179 -0.359966,0.185157 -0.359966,0.391315 0,0.206157 0.158546,0.373388 0.359966,0.391314 v 3.95071 H 2.399673 c -0.218001,0 -0.394786,0.176785 -0.394786,0.394784 0,0.217999 0.176785,0.394789 0.394786,0.394789 h 0.592654 10.015344 0.592654 c 0.217999,0 0.394788,-0.176785 0.394788,-0.394789 0,-0.217999 -0.176785,-0.394864 -0.394788,-0.394867 z M 11.049213,8.046504 c 0,1.681318 -1.367857,3.049175 -3.049174,3.049175 -1.681318,0 -3.049175,-1.367857 -3.049175,-3.049175 0,-1.681317 1.367857,-3.049174 3.049175,-3.049174 1.681317,0 3.049174,1.367857 3.049174,3.049174 z m -6.983856,6.342722 c 0,0.218 -0.176785,0.394785 -0.394786,0.394785 -0.218002,0 -0.394787,-0.176785 -0.394787,-0.394785 v -3.191455 c 0,-0.218 0.176786,-0.394789 0.394787,-0.394789 0.218001,0 0.394786,0.176785 0.394786,0.394789 z m 0,-4.948335 c 0,0.217999 -0.176785,0.394788 -0.394786,0.394788 -0.218002,0 -0.394787,-0.176785 -0.394787,-0.394788 V 6.369372 c 0,-0.218 0.176786,-0.394785 0.394787,-0.394785 0.218001,0 0.394786,0.176785 0.394786,0.394785 z m 0,-4.796658 c 0,0.217999 -0.176785,0.394784 -0.394786,0.394784 -0.218002,0 -0.394787,-0.176785 -0.394787,-0.394784 V 1.579029 c 0,-0.218001 0.176786,-0.394786 0.394787,-0.394786 0.218001,0 0.394786,0.176785 0.394786,0.394786 z m 5.337832,4.149445 c 0,0.773703 -0.629448,1.40315 -1.40315,1.40315 -0.773703,0 -1.403151,-0.629447 -1.403151,-1.40315 0,-0.182079 0.03499,-0.360203 0.103984,-0.52941 0.0011,-0.0028 0.0022,-0.0054 0.0034,-0.0081 L 7.637861,6.104497 C 7.700471,5.960162 7.842752,5.866836 8.00004,5.866836 c 7.8e-5,0 1.57e-4,0 2.36e-4,0 0.157364,7.9e-5 0.299644,0.09364 0.362098,0.238057 L 9.31152,8.299115 c 0.0035,0.008 0.0066,0.01613 0.0096,0.02426 0.05448,0.153018 0.08212,0.311249 0.08212,0.470349 z"
     id="path1"
     style="stroke-width:0.0789573" />
</svg>
