<?xml version="1.0" encoding="UTF-8" standalone="no"?>
<svg
   viewBox="0 0 16 16"
   x="0px"
   y="0px"
   version="1.1"
   id="svg5"
   sodipodi:docname="dv-mine_iron.svg"
   width="16"
   height="16"
   inkscape:version="1.4.2 (f4327f4, 2025-05-13)"
   xmlns:inkscape="http://www.inkscape.org/namespaces/inkscape"
   xmlns:sodipodi="http://sodipodi.sourceforge.net/DTD/sodipodi-0.dtd"
   xmlns="http://www.w3.org/2000/svg"
   xmlns:svg="http://www.w3.org/2000/svg"
   xmlns:rdf="http://www.w3.org/1999/02/22-rdf-syntax-ns#"
   xmlns:cc="http://creativecommons.org/ns#"
   xmlns:dc="http://purl.org/dc/elements/1.1/">
  <defs
     id="defs5">
    <linearGradient
       id="swatch7"
       inkscape:swatch="solid">
      <stop
         style="stop-color:#ffffff;stop-opacity:1;"
         offset="0"
         id="stop7" />
    </linearGradient>
  </defs>
  <sodipodi:namedview
     id="namedview5"
     pagecolor="#ffffff"
     bordercolor="#000000"
     borderopacity="0.25"
     inkscape:showpageshadow="2"
     inkscape:pageopacity="0.0"
     inkscape:pagecheckerboard="0"
     inkscape:deskcolor="#d1d1d1"
     inkscape:zoom="22.627417"
     inkscape:cx="-1.0827573"
     inkscape:cy="6.1871843"
     inkscape:window-width="1920"
     inkscape:window-height="1010"
     inkscape:window-x="2873"
     inkscape:window-y="-6"
     inkscape:window-maximized="1"
     inkscape:current-layer="svg5"
     showguides="true" />
  <title
     id="title1">glyph</title>
  <metadata
     id="metadata5">
    <rdf:RDF>
      <cc:Work
         rdf:about="">
        <dc:title>glyph</dc:title>
      </cc:Work>
    </rdf:RDF>
  </metadata>
  <path
     fill="#000000"
     d="m 9.558443,1.1331854 c -0.770228,0.03369 -2.077924,1.038962 -3.116886,1.558445 -1.038958,-0.346319 -2.568961,-1.21234 -3.116882,-1.038962 -0.72065,0.22803 -1.538118,1.43357 -2.322499,2.305196 h 14.14672 c -0.285258,-0.662209 -1.020744,-2.276396 -1.434609,-2.305196 -0.519416,-0.03621 -2.597403,1.558441 -2.597403,1.558441 -0.519479,-0.69263 -1.18734,-2.094157 -1.558441,-2.077924 z M 0.569252,4.5422784 2.002501,11.23059 H 3.551947 V 4.5422784 Z m 3.567113,0 v 0.454544 h 1.493506 v -0.454544 z m 2.07792,0 V 11.23059 h 7.783281 l 1.433182,-6.6883116 z m -2.07792,1.038962 v 0.454544 h 1.493506 v -0.454544 z m 0,1.038958 v 0.454548 h 1.493506 v -0.454548 z m 0,1.038962 v 0.454548 h 1.493506 v -0.454548 z m 0,1.038962 v 0.454544 h 1.493506 v -0.454544 z m 0,1.038962 V 10.191628 H 5.629871 V 9.7370844 Z m 0,1.0389616 v 0.454544 h 1.493506 v -0.454544 z m -3.636364,1.038957 v 0.974028 h 14.999998 v -0.974028 z m 0.38384,1.558445 C 0.804801,13.517467 0.75974,13.6833 0.75974,13.86046 c 0,0.55932 0.447175,1.006494 1.006495,1.006494 0.559319,0 1.006494,-0.447174 1.006494,-1.006494 0,-0.17716 -0.04502,-0.342993 -0.1241,-0.487012 z m 2.597402,0 c -0.07904,0.144019 -0.1241,0.309852 -0.1241,0.487012 0,0.55932 0.447174,1.006494 1.006494,1.006494 0.559316,0 1.006495,-0.447174 1.006495,-1.006494 0,-0.17716 -0.04502,-0.342993 -0.124101,-0.487012 z m 2.653895,0 0.487015,0.974023 H 9.377834 L 9.864845,13.373448 H 6.135171 Z m 4.618831,0 c -0.07904,0.144019 -0.124101,0.309852 -0.124101,0.487012 0,0.55932 0.447175,1.006494 1.00649,1.006494 0.55932,0 1.006495,-0.447174 1.006495,-1.006494 0,-0.17716 -0.04502,-0.342993 -0.124101,-0.487012 z m 2.597402,0 c -0.07904,0.144019 -0.1241,0.309852 -0.1241,0.487012 0,0.55932 0.447175,1.006494 1.00649,1.006494 0.55932,0 1.006495,-0.447174 1.006495,-1.006494 0,-0.17716 -0.04502,-0.342993 -0.124101,-0.487012 z"
     id="path1"
     style="stroke-width:0.0324676" />
</svg>
