<?xml version="1.0" encoding="UTF-8" standalone="no"?>
<!-- Generator: Adobe Illustrator 16.0.0, SVG Export Plug-In . SVG Version: 6.00 Build 0)  -->

<svg
   version="1.1"
   id="Layer_1"
   x="0px"
   y="0px"
   width="486.81464"
   height="343.22473"
   viewBox="75.924 78.925 486.81463 343.22473"
   enable-background="new 75.924 78.925 482.16 482.16"
   xml:space="preserve"
   sodipodi:docname="scale_8--2.svg"
   inkscape:version="1.2.1 (9c6d41e410, 2022-07-14)"
   xmlns:inkscape="http://www.inkscape.org/namespaces/inkscape"
   xmlns:sodipodi="http://sodipodi.sourceforge.net/DTD/sodipodi-0.dtd"
   xmlns="http://www.w3.org/2000/svg"
   xmlns:svg="http://www.w3.org/2000/svg"><defs
   id="defs3783">
	

		
		
		
		
		
		
		
		
	
			
		
			
		
			
		
			
		
			
		
			
		
			
		
			
		
				
			
				
			
				
			
				
			
				
			
				
			
				
			
				
			
					
				
					
				
					
				
					
				
					
				
					
				
					
				
					
				
						
					
							
						
								
							
									
									
									
									
									
									
									
									
									
									
									
									
									
									
									
									
									
									
									
									
									
									
									
									
									
									
									
									
									
									
									
									
									
									
									
									
									
									
									
									
									
									
									
									
									
									
									
									
									
									
									
									
									
									
									
									
									
									
									
									
									
									
									
									
									
									
									
									
									
									
									
									
									
									
									
									
									
									
									
									
									
								
						
					
							
						
								
							
									
									
									
									
									
									
									
									
									
									
									
									
									
									
									
									
									
									
									
									
									
									
									
									
									
									
									
									
									
									
									
									
									
									
									
									
									
									
									
									
									
									
									
									
									
									
									
									
									
									
									
									
									
									
									
									
									
									
									
									
									
									
									
									
									
									
									
									
									
									
									
									
									
									
									
									
									
									
									
									
									
								
						
					
							
						
								
							
									
									
									
									
									
									
									
									
									
									
									
									
									
									
									
									
									
									
									
									
									
									
									
									
									
									
									
									
									
									
									
									
									
									
									
									
									
									
									
									
									
									
									
									
									
									
									
									
									
									
									
									
									
									
									
									
									
									
									
									
									
									
									
									
									
									
									
									
									
									
									
									
									
									
									
									
									
									
									
									
									
								
						
					
							
						
								
							
									
									
									
									
									
									
									
									
									
									
									
									
									
									
									
									
									
									
									
									
									
									
									
									
									
									
									
									
									
									
									
									
									
									
									
									
									
									
									
									
									
									
									
									
									
									
									
									
									
									
									
									
									
									
									
									
									
									
									
									
									
									
									
									
									
									
									
									
									
									
									
									
									
									
									
									
									
									
									
									
									
								
						
					
							
						
								
							
									
									
									
									
									
									
									
									
									
									
									
									
									
									
									
									
									
									
									
									
									
									
									
									
									
									
									
									
									
									
									
									
									
									
									
									
									
									
									
									
									
									
									
									
									
									
									
									
									
									
									
									
									
									
									
									
									
									
									
									
									
									
									
									
									
									
									
									
									
									
									
									
									
									
									
									
									
									
									
									
									
								
						
					
							
						
								
							
									
									
									
									
									
									
									
									
									
									
									
									
									
									
									
									
									
									
									
									
									
									
									
									
									
									
									
									
									
									
									
									
									
									
									
									
									
									
									
									
									
									
									
									
									
									
									
									
									
									
									
									
									
									
									
									
									
									
									
									
									
									
									
									
									
									
									
									
									
									
									
									
									
									
									
									
									
									
									
									
									
								</defs><sodipodi:namedview
   id="namedview3781"
   pagecolor="#ffffff"
   bordercolor="#000000"
   borderopacity="0.25"
   inkscape:showpageshadow="2"
   inkscape:pageopacity="0.0"
   inkscape:pagecheckerboard="0"
   inkscape:deskcolor="#d1d1d1"
   showgrid="false"
   showguides="true"
   inkscape:zoom="1.2157614"
   inkscape:cx="134.07236"
   inkscape:cy="101.9937"
   inkscape:window-width="1920"
   inkscape:window-height="1009"
   inkscape:window-x="1912"
   inkscape:window-y="-8"
   inkscape:window-maximized="1"
   inkscape:current-layer="Layer_1"><sodipodi:guide
     position="110.21899,226.4255"
     orientation="0,-1"
     id="guide392"
     inkscape:locked="false" /><sodipodi:guide
     position="115.15417,115.38397"
     orientation="0,-1"
     id="guide394"
     inkscape:locked="false" /><sodipodi:guide
     position="173.55379,293.05041"
     orientation="0,-1"
     id="guide1133"
     inkscape:locked="false" /></sodipodi:namedview>

<path
   d="m 127.78065,206.31747 -0.18371,1.15627 c 0.14769,-0.51102 0.19327,-0.86745 0.18371,-1.15627 z"
   id="path2442" /><path
   d="m 132.01496,199.64289 -0.5569,-0.58503 c 0.1701,0.54461 0.36013,0.84225 0.5569,0.58503 z"
   id="path2444" /><path
   d="m 242.80921,114.37322 c 0.23689,-3.21757 0.64709,-8.08378 -0.58347,-6.44244 0,0 -0.2516,0.51668 -0.50004,1.03313 -0.25572,0.50431 -0.51089,1.00731 -0.51089,1.00731 0.99737,1.55407 1.43341,3.07051 1.5944,4.402 z"
   id="path2446" /><path
   d="m 168.49898,144.21355 c 0.22893,0.0286 0.46717,0.0587 0.70409,0.0883 -0.0754,-0.7221 -0.14695,-1.40137 -0.2106,-2.0102 -0.14859,0.57863 -0.31665,1.23486 -0.49349,1.92188 z"
   id="path2448" /><path
   d="m 172.24856,150.46548 -2.3268,0.53116 c 0.61465,-0.0162 1.37376,-0.17657 2.3268,-0.53116 z"
   id="path2450" /><path
   d="m 120.73132,228.93158 c 0,0 0.44574,-0.29451 0.85313,-0.60546 0.41131,-0.30935 0.78243,-0.63436 0.78243,-0.63436 -0.29083,-0.1089 -0.90706,0.601 -1.63556,1.23982 z"
   id="path2452" /><path
   d="m 113.6722,194.10813 c -0.10989,0.7793 0.0323,1.22392 0.37396,1.40476 0.13264,-0.78451 0.0705,-1.31481 -0.37396,-1.40476 z"
   id="path2456" /><path
   d="m 183.54487,261.17004 c 0.0451,0.0765 0.1073,0.13932 0.14964,0.23759 1.27038,-0.26006 0.78887,-0.33229 -0.14964,-0.23759 z"
   id="path2476" /><path
   d="m 216.7896,123.34756 c 0.10767,-0.65799 0.24876,-1.16406 0.41802,-1.55398 0.0846,-0.19385 0.17625,-0.36033 0.27564,-0.50075 0.11575,-0.15055 0.10013,-0.20581 0.17069,-0.28316 0.21104,-0.26973 0.54076,-0.23354 0.88682,-0.15325 0,0 -0.54198,-1.12815 -1.18321,-2.20595 -0.6324,-1.0826 -1.36405,-2.11485 -1.36405,-2.11485 0,0 0.0409,0.43073 0.13464,1.05948 0.0464,0.31457 0.10792,0.6781 0.18465,1.06235 0.0568,0.3937 0.0843,0.83116 0.13042,1.25865 0.1718,1.71631 0.34638,3.43146 0.34638,3.43146 z"
   id="path2480" /><path
   d="m 119.32529,223.27591 2.53213,-1.62817 c 0.55085,4.7089 0.31468,3.17254 2.27224,4.16947 -0.24271,-0.11827 -0.49274,-0.24105 -0.81146,-0.39573 -0.19922,-0.19292 -0.35117,-0.40243 -0.46484,-0.62151 -0.22773,-0.43908 -0.29782,-0.92373 -0.26329,-1.43821 0.0678,-1.0295 0.55394,-2.17828 1.03829,-3.32629 0.24245,-0.57466 0.48489,-1.14932 0.67668,-1.71031 0.20982,-0.54903 0.37776,-1.08156 0.43392,-1.59102 0.11454,-1.01878 -0.19011,-1.94073 -1.34161,-2.6633 l 1.82498,-0.94626 c -0.28161,0.40131 -0.0394,0.62173 -0.31701,1.01702 3.86598,-1.62856 -2.25767,-4.04436 0.49956,-7.45354 1.10819,-1.09324 2.35971,-1.55578 2.37354,-0.37074 l 0.59039,-3.52 c 0.59922,-0.77109 1.27741,-0.0754 0.68625,0.68907 l 2.28753,-4.54599 0.11455,0.11784 c -0.35077,-1.07828 -0.5812,-3.19512 -0.56765,-4.1574 1.38456,-0.64421 0.11016,0.85394 0.86565,0.95105 l 0.50678,-3.063 c 1.81627,-0.15847 1.62687,2.53159 0.36441,4.01171 5.99326,0.85238 0.18979,-2.68914 5.98708,-5.54286 l -0.9163,2.56034 c 1.74511,0.17834 2.66781,-0.30016 3.56071,-0.99174 0.44599,-0.34559 0.88514,-0.74363 1.4117,-1.13498 0.53727,-0.38392 1.19223,-0.73808 2.01575,-1.03178 -0.60205,-0.0184 -2.50071,0.39594 -4.06844,0.5238 -1.59173,0.10432 -2.97195,-0.17625 -2.66327,-1.82532 0.80077,-0.48479 1.64654,-1.24985 1.76709,-3.20496 1.56101,1.13739 2.1456,-0.40735 3.26911,-2.06341 l 1.94761,1.66812 c 0.70787,-2.14747 -0.41934,-2.81734 -0.55286,-4.54321 0.41465,-0.4409 0.84175,-0.71783 1.27401,-0.87654 0.44792,-0.14468 0.89708,-0.17274 1.34204,-0.13071 0.89147,0.0877 1.7678,0.4649 2.5939,0.78181 2.77784,-2.64454 -4.16633,-0.001 -1.60077,-3.77136 1.41239,-0.90861 2.27664,-1.95257 2.95922,-3.27165 0.34129,-0.65955 0.63816,-1.38612 0.93304,-2.19754 0.31553,-0.7984 0.65436,-1.65755 1.03238,-2.6145 2.1951,-1.04634 0.88388,1.34576 1.97617,1.25049 l -0.1307,-2.83765 c 0.37151,-0.32409 0.71953,0.22066 0.89581,0.49588 0.57705,-1.76934 -1.77071,-1.84867 -0.43976,-4.2816 -0.75749,-1.23072 0.903,-1.5613 2.80344,-2.0566 1.92331,-0.48214 4.00926,-1.18657 4.09426,-3.48465 1.08698,-0.0356 0.79874,1.40645 1.66267,1.95042 1.82034,-4.61772 1.66664,-3.82653 2.62282,-8.35583 l 3.51557,-0.81769 c -3.02634,0.0765 -2.26526,-3.58457 -1.42239,-6.78217 -1.23866,-0.1578 -2.31635,-0.29641 -2.94067,-0.26964 l 1.19613,-1.94033 c 0.30076,-0.48743 0.60283,-0.97433 0.82876,-1.34033 0.22268,-0.37114 0.38992,-0.59537 0.38992,-0.59537 0.68395,0.007 0.87872,0.94339 1.01934,2.22379 0.0836,-0.36154 0.17761,-0.68518 0.22476,-0.97069 1.81511,-0.21546 2.10496,1.43068 2.15476,3.20255 -0.72094,-0.0639 -1.44668,-0.13662 -2.16945,-0.22035 0.19235,1.88664 0.57109,3.83493 1.70227,4.83717 0.0145,-0.40196 0.24738,-0.94005 0.59291,-1.42676 0.0659,0.50051 0.17691,0.90183 0.43683,1.0172 0.27977,0.11355 0.24437,-0.60366 0.34687,-1.55556 l 2.532,1.5876 -0.53768,-1.01716 5.38825,-1.9293 c 0.65337,-2.30571 0.98575,-4.88769 1.79465,-7.39643 0.82473,-2.48394 2.0537,-4.99444 4.32997,-7.30692 -0.10925,2.63038 1.65471,3.01121 2.9791,5.10909 -2.88429,-1.18157 -3.30175,3.67251 -6.21768,5.06595 1.53169,-0.74069 1.92433,0.42956 1.82319,1.00237 l 3.28212,-5.20976 c 1.04879,1.73855 1.85735,0.5542 3.54124,0.39817 -1.57861,-1.33172 -1.09404,-2.5102 -0.022,-3.61972 1.09934,-1.06783 2.75776,-2.07756 3.42289,-3.22122 0.83965,1.05958 1.10306,2.51618 -1.46976,3.75039 4.26011,0.88591 0.9097,-6.12795 4.90587,-5.61494 -0.57415,0.39941 -1.00162,0.42487 -0.87634,1.15207 0.37437,-0.9424 1.53558,-1.74663 2.57295,-2.12252 1.04231,-0.36929 1.99177,-0.25709 1.87597,0.46938 l -0.59055,0.36291 c 2.13341,-0.92717 5.1864,-2.63738 7.59202,-4.54106 0.60164,-0.47602 1.16331,-0.96454 1.66014,-1.45512 0.50888,-0.46961 0.95771,-0.93245 1.31175,-1.39887 0.70925,-0.93008 1.05469,-1.8484 0.82227,-2.68355 0.23939,0.37128 1.32902,3.92234 1.40016,4.65492 0,0 0.51101,-3.45848 1.11627,-6.96629 0.19193,-1.69983 0.63084,-3.5218 1.12926,-4.95661 0.48474,-1.43125 0.93999,-2.44448 0.93999,-2.44448 -0.0754,1.65198 1.01387,3.83557 1.52998,6.17303 0.55018,2.31013 0.69167,4.64652 0.11004,5.86249 0.31605,0.0734 0.63722,0.16412 0.96952,0.0463 0.33884,-0.11515 0.67544,-0.40614 1.18849,-1.20938 -0.1718,-0.15345 -0.46731,-1.19312 -0.72412,-2.22843 -0.24943,-1.0384 -0.40508,-2.09883 -0.0325,-2.41253 1.1253,1.3008 1.30708,1.70277 1.64311,1.9684 9.26444,-11.26425 8.80204,-8.10751 18.97269,-5.98423 0.29029,-0.54594 0.57966,-1.0915 0.57966,-1.0915 -0.0879,-0.14745 -0.14261,-0.28284 -0.24316,-0.42934 -0.3157,-2.555 -1.34537,-0.84074 -2.04581,1.20817 -0.63619,-0.69382 -1.27309,-1.2214 -1.8738,-1.45616 0.82638,-2.01502 0.0938,-3.0675 -0.59533,-4.09155 -0.70179,-1.05672 -1.3542,-2.06042 -0.80203,-4.97654 -0.37903,0.1331 -0.86405,-0.298814 -1.40312,-0.949893 -0.26927,-0.326195 -0.55323,-0.708042 -0.84707,-1.103093 -0.14484,-0.195146 -0.29331,-0.39636 -0.44401,-0.597721 -0.0374,-0.192515 -0.24938,0.05698 -0.38997,0.122519 l -0.46347,0.311719 c -2.47936,1.684112 -4.82669,3.553559 -5.678,5.795949 0.0713,-0.51473 -0.34921,-0.56051 0.52434,-0.98042 -1.65392,0.31264 -3.54409,0.73422 -5.19234,2.51731 0,0 -0.16447,-0.59578 -0.35382,-1.18112 -0.18752,-0.58611 -0.39954,-1.16084 -0.39954,-1.16084 0,0 -1.0937,1.38866 -2.01284,2.6997 -0.93588,1.32023 -1.69828,2.56545 -1.69828,2.56545 -2.47479,-0.42837 -4.10643,-0.60771 -1.94006,-3.73737 -1.43457,1.49382 -2.34386,2.41244 -3.06375,3.07694 -0.35764,0.33128 -0.66239,0.59479 -0.93946,0.82609 -0.2544,0.22069 -0.38217,0.36326 -0.56579,0.53038 -0.67534,0.64145 -1.27856,1.24285 -2.449,3.43811 l -0.54767,-1.4956 c -1.29553,0.71421 -2.39186,3.63104 -3.76211,2.94283 -2.14334,-0.51981 -5.76616,1.39602 -9.92728,3.65715 -2.02691,1.22735 -4.18673,2.54629 -6.38508,3.69594 -1.0999,0.57568 -2.20908,1.10861 -3.31876,1.568 -1.11826,0.44673 -2.17028,0.92204 -3.25167,1.23182 3.98864,2.90005 -4.43966,0.55927 -2.6537,3.72037 -1.04014,-0.6175 -2.38465,-0.43585 -1.80216,-2.01659 -1.47113,1.71415 -3.10298,2.25504 -4.38376,3.01728 -1.28112,0.75371 -2.29234,1.60776 -2.55103,3.74016 -1.07438,-0.56732 -0.24849,-1.85764 -0.99962,-2.10191 -0.13497,0.40698 -0.515,1.61748 -1.28219,1.37886 -0.75812,-0.24025 -0.0613,-1.12499 0.19906,-1.936 -3.46752,2.9341 -1.68214,5.85358 0.076,8.52744 -1.36585,0.0843 -2.20742,0.38667 -2.69834,0.98431 -0.49562,0.5942 -0.64283,1.48352 -0.57263,2.80541 -1.2571,-0.29213 -2.95934,-0.26505 -1.11899,-2.35005 -1.24071,0.9016 -8.23058,5.01956 -6.54119,7.08784 -0.78786,-0.14318 -1.68749,1.35381 -1.77677,1.84897 -2.59959,2.28121 -2.98469,2.3301 -5.26424,4.85437 l 0.9738,-0.3568 c 1.19513,3.08162 -1.48737,2.47366 -3.09414,4.71979 l -0.17667,-0.27613 c -2.94883,1.51138 -3.22544,2.19583 -3.51141,2.83214 -0.14352,0.31947 -0.29314,0.62957 -0.78789,1.03468 -0.49058,0.40987 -1.35838,0.88484 -2.81943,1.66203 l 1.65529,1.01321 c 1.35916,1.58655 0.0353,2.20745 -1.78892,2.92563 -1.8213,0.71479 -4.15713,1.54474 -4.70538,3.41369 l 1.68161,-0.29063 c -0.0702,1.20188 -2.07832,1.3064 -4.17654,1.39779 -2.11944,0.0667 -4.4555,0.0204 -5.2703,0.6629 -0.55049,0.13026 -0.0371,-0.90198 0.1261,-1.55181 -5.13366,2.71393 1.57334,2.08121 -0.31972,5.52343 -1.52303,-0.2358 -2.193,-2.80799 -4.00393,-0.84923 -0.4208,0.10076 -0.70319,0.69653 -0.95048,1.55412 -0.21554,0.87897 -0.39022,2.02061 -0.63782,3.18744 -0.49867,2.33836 -1.28517,4.76611 -3.38096,5.52457 1.31826,-0.0763 2.61889,-0.12995 2.259,1.78465 -0.30516,0.6216 -0.945,1.16679 -1.66455,1.73136 -0.7066,0.57215 -1.52952,1.14108 -2.27386,1.7551 -1.48683,1.22726 -2.65977,2.6416 -1.90351,4.55394 -0.42682,0.15101 -0.73021,0.12329 -0.96015,0.002 -0.17287,1.12785 -0.81951,2.73661 -1.17752,4.37928 -0.36664,1.63762 -0.57447,3.23242 -0.0973,4.21643 -3.35818,-0.77328 -4.24514,2.50791 -4.91953,5.54367 -0.55682,3.10137 -0.91928,5.9682 -3.65384,4.60338 l -3.33191,7.75445 -0.53213,-0.32971 c -1.419735,2.73808 -1.968633,4.67781 -2.009922,6.01831 -0.04426,1.35151 0.407983,2.14967 0.903201,2.85387 -0.996008,1.24678 -1.3188,0.55804 -1.650063,0.51817 -1.200302,1.9898 -2.135174,3.59919 -2.823343,4.92821 -0.344351,0.66517 -0.627659,1.26132 -0.855033,1.80471 -0.0186,0.0642 -0.07722,0.14413 -0.06117,0.1927 l 0.213448,0.0796 0.427873,0.15115 c 0.287111,0.0975 0.578741,0.18758 0.876586,0.27185 8.272243,3.46786 15.717273,-8.87807 24.229433,-11.70634 0.91001,-0.30724 1.77194,-0.50427 1.77194,-0.50427 -0.2767,-0.1734 -1.32389,-0.0146 -2.49191,0.2903 -1.15159,0.26658 -2.42494,0.67973 -2.53544,-0.41267 -0.14319,-0.80861 0.57752,-0.94418 1.43544,-0.86405 0.86151,0.0732 1.92191,0.22233 2.39948,0.11727 -0.66824,-0.2845 -1.54908,-0.90488 -1.85111,-1.68368 -0.4678,-0.43481 0.33065,-2.40014 2.0671,-3.34285 -0.0268,1.24331 -0.78722,1.84999 -1.06234,2.88412 z m 18.5593,-33.87805 c -0.0958,0.85688 0.0866,2.79978 -1.15411,2.59837 -1.33165,-1.96794 -0.0846,-1.9167 1.15411,-2.59837 z m 37.5201,-45.9818 c -0.0528,0.85076 -0.93875,1.14031 -2.1831,1.18338 0.46915,-0.56681 1.16171,-1.01485 2.1831,-1.18338 z"
   id="path2482"
   sodipodi:nodetypes="ccccccsccccccccccccccccccccccccccccccscccccccccccccccccccccccccccccccccccccccccccccccccccccccccccccccccccccccccccccccccccccccccccccccccccccccccccccccccccccccccccccccccccccccccccccccccccccccccc" /><path
   d="m 171.82764,149.72901 c -0.37237,-0.10938 -0.64901,-0.34463 -0.92191,-0.58904 -0.0168,0.44304 0.22176,0.73224 0.92191,0.58904 z"
   id="path2484" /><path
   d="m 120.39737,229.1488 c -0.002,0.016 0.0142,0.0157 0.0137,0.03 0.11364,-0.0781 0.2201,-0.16291 0.32026,-0.24726 z"
   id="path2486" /><path
   d="m 145.49548,187.95507 -0.40428,-0.50052 c -0.72851,-0.15941 -1.05726,0.18902 -1.72077,0.8819 z"
   id="path2524" /><polygon
   points="183.039,140.909 184.761,142.472 185.167,142.217 "
   id="polygon2526"
   transform="rotate(-22.775188,323.95912,315.36604)" /><path
   d="m 123.65582,225.87949 c 0.11167,-0.008 -0.43249,-0.095 -0.29686,-0.1465 0.19569,0.0838 -0.49378,0.0251 -0.88872,0.0738 -0.38883,0.0374 -0.43043,0.0701 1.18558,0.0727 z"
   id="path2528" /><path
   d="m 101.85017,375.74792 0.6875,0.94776 c -0.25642,-0.46608 -0.47596,-0.75133 -0.6875,-0.94776 z"
   id="path2618" /><path
   d="m 100.12556,368.03411 -0.806746,-0.0203 c 0.505029,0.26517 0.849156,0.34086 0.806746,0.0203 z"
   id="path2620" /><path
   d="m 118.17457,229.39552 c -2.10786,-2.44245 -5.25853,-6.17262 -4.9681,-4.14278 0,0 0.18862,0.54226 0.37725,1.08452 0.17553,0.53691 0.35107,1.07382 0.35107,1.07382 1.80391,0.39334 3.18384,1.15883 4.23978,1.98444 z"
   id="path2622" /><path
   d="m 86.729404,303.04157 c 0.182386,-0.14165 0.372296,-0.28863 0.560362,-0.43483 -0.564011,-0.45732 -1.094871,-0.88734 -1.571303,-1.27297 0.304392,0.51317 0.648974,1.09624 1.010941,1.7078 z"
   id="path2624" /><path
   d="m 93.800766,304.8111 -1.269603,2.02106 c 0.42402,-0.44699 0.847569,-1.09661 1.269603,-2.02106 z"
   id="path2626" /><path
   d="m 112.85731,396.72332 c 0,0 0.10681,-0.52314 0.17543,-1.03133 0.0727,-0.50881 0.10536,-1.0019 0.10536,-1.0019 -0.28365,0.12776 -0.2181,1.06659 -0.28079,2.03323 z"
   id="path2628" /><path
   d="m 83.241898,377.09014 c 0.473322,0.6288 0.887597,0.84314 1.258211,0.72875 -0.460835,-0.64814 -0.87989,-0.97977 -1.258211,-0.72875 z"
   id="path2632" /><path
   d="m 180.06818,375.10319 c 0.0854,0.0227 0.1746,0.0232 0.27424,0.0616 0.7143,-1.08079 0.3227,-0.79165 -0.27424,-0.0616 z"
   id="path2652" /><g
   id="g10663"
   inkscape:transform-center-x="67.710299"
   inkscape:transform-center-y="-40.383972"
   transform="rotate(-56.031602,316.77103,326.55662)"><circle
     style="fill:#c33535;fill-opacity:1;paint-order:markers fill stroke"
     id="path9863"
     cx="315.53723"
     cy="327.24091"
     r="37.219475" /><path
     style="fill:#c33535;fill-opacity:1;paint-order:markers fill stroke"
     d="m 302.34313,128.25957 -23.88331,195.7734 74.14323,-0.01 -25.41925,-195.69463 z"
     id="path10659"
     sodipodi:nodetypes="ccccc" /></g><path
   d="m 107.8636,393.71815 0.63995,-2.94213 c 3.7193,2.94047 2.46565,2.02109 4.55443,1.3415 -0.25592,0.0879 -0.51829,0.17856 -0.85398,0.29347 -0.27722,0.004 -0.53364,-0.0362 -0.76892,-0.11099 -0.47095,-0.15042 -0.8639,-0.44312 -1.20349,-0.83089 -0.67957,-0.77647 -1.14939,-1.93166 -1.61791,-3.08632 -0.23472,-0.57714 -0.4689,-1.15558 -0.73088,-1.68656 -0.23961,-0.53713 -0.49726,-1.03197 -0.81812,-1.43195 -0.63802,-0.8015 -1.50682,-1.23822 -2.83162,-0.93471 l 0.62192,-1.95954 c 0.0855,0.48254 0.41189,0.46697 0.49464,0.94305 1.58263,-3.88454 -4.45652,-1.26331 -4.91619,-5.62331 0.0103,-1.55634 0.56842,-2.76893 1.41621,-1.94054 l -2.071347,-2.9057 c -0.122317,-0.96813 0.849947,-0.95662 0.972467,0.002 l -1.597257,-4.83246 0.163854,0.003 c -1.010169,-0.51511 -2.670712,-1.84823 -3.341201,-2.53849 0.524419,-1.43489 0.681813,0.52608 1.285475,0.06 l -1.807081,-2.52426 c 1.171757,-1.39649 2.940822,0.63941 3.094696,2.57908 4.841084,-3.63552 -1.766833,-2.03575 0.313284,-8.15295 l 1.16205,2.45778 c 1.36054,-1.107 1.67447,-2.09778 1.81682,-3.21825 0.0707,-0.56004 0.0991,-1.15112 0.19412,-1.80053 0.10855,-0.65076 0.32207,-1.36403 0.69624,-2.15451 -0.43834,0.41288 -1.48791,2.04873 -2.50667,3.2465 -1.051597,1.19962 -2.226263,1.97696 -3.174329,0.59199 0.223769,-0.90846 0.280909,-2.04846 -1.017149,-3.51533 1.907656,-0.29987 1.228879,-1.80549 0.852626,-3.7711 l 2.557014,-0.19724 c -1.017707,-2.0184 -2.289068,-1.6961 -3.603433,-2.82208 -0.01772,-0.60534 0.08693,-1.10263 0.280418,-1.52008 0.213326,-0.41927 0.510874,-0.75677 0.856874,-1.04086 0.692001,-0.56819 1.579508,-0.92129 2.387229,-1.28102 0.09399,-3.83434 -2.946565,2.94531 -3.798484,-1.53524 0.356553,-1.64098 0.228125,-2.99048 -0.220868,-4.40604 -0.224303,-0.70731 -0.529111,-1.43072 -0.89362,-2.21366 -0.341753,-0.78815 -0.709204,-1.63493 -1.118611,-2.57905 0.81202,-2.29206 1.577507,0.3268 2.282542,-0.51258 l -2.098504,-1.91385 c 0.03344,-0.49125 0.665587,-0.35212 0.98416,-0.28306 -0.842962,-1.65903 -2.559084,-0.0557 -3.337916,-2.71665 -1.405298,-0.33512 -0.46457,-1.74198 0.527918,-3.43629 1.019465,-1.70239 1.996277,-3.67427 0.43078,-5.35965 0.743697,-0.79379 1.559939,0.42962 2.554713,0.20284 -1.978425,-4.55203 -1.526535,-3.88387 -4.0546,-7.76373 l 1.907469,-3.06433 c -2.085523,2.19335 -4.136466,-0.93241 -5.801759,-3.7906 -0.986931,0.76468 -1.84798,1.42879 -2.269734,1.88893 0,0 -0.263086,-1.10967 -0.525785,-2.21843 -0.131128,-0.55772 -0.263177,-1.11506 -0.361463,-1.53256 -0.105754,-0.41979 -0.146121,-0.69676 -0.146121,-0.69676 0.488859,-0.47856 1.288206,0.0459 2.293471,0.85156 -0.197006,-0.31424 -0.358426,-0.61088 -0.527525,-0.84573 1.131342,-1.43592 2.500254,-0.47709 3.787944,0.74035 -0.55559,0.46427 -1.119569,0.92665 -1.690425,1.37782 1.470097,1.19725 3.114958,2.30702 4.624254,2.21562 -0.274492,-0.29472 -0.488969,-0.83914 -0.589797,-1.42802 0.400452,0.30799 0.762931,0.51263 1.028272,0.41098 0.278454,-0.11691 -0.254244,-0.60039 -0.854342,-1.34515 l 2.912663,-0.66759 -1.098001,-0.33941 2.445674,-5.17418 c -1.168828,-2.09161 -2.760039,-4.15338 -3.961399,-6.49814 -1.173039,-2.33929 -2.079364,-4.98361 -2.104623,-8.22886 1.782795,1.93687 3.29969,0.95944 5.720027,1.50612 -2.875132,1.20387 0.261369,4.93131 -0.814913,7.97854 0.559569,-1.60691 1.664293,-1.05774 1.998894,-0.58111 l -1.363667,-6.00425 c 1.970252,0.48728 1.705433,-0.92101 2.785754,-2.22271 -2.058919,0.17466 -2.548417,-1.00156 -2.575753,-2.54426 0.02262,-1.53222 0.481964,-3.41917 0.143573,-4.69787 1.342811,0.15528 2.559333,0.99914 1.612395,3.69057 3.639157,-2.3858 -3.690196,-4.97648 -0.501782,-7.43875 -0.123135,0.68834 -0.408344,1.00873 0.195427,1.43417 -0.401757,-0.93107 -0.14883,-2.3203 0.318539,-3.32018 0.47537,-0.99891 1.225846,-1.59056 1.657923,-0.99542 l -0.160326,0.67466 c 0.852442,-2.16478 1.802936,-5.53229 2.158056,-8.57934 0.089,-0.76186 0.14046,-1.50469 0.14457,-2.20271 0.0274,-0.69154 0.0178,-1.33713 -0.0612,-1.91784 -0.15583,-1.15904 -0.56141,-2.05271 -1.315264,-2.47913 0.431324,0.0922 3.713294,1.83347 4.281944,2.30186 0,0 -2.08546,-2.80759 -4.137887,-5.71473 -1.065016,-1.33804 -2.044199,-2.93662 -2.707061,-4.3036 -0.668599,-1.35481 -1.064183,-2.39258 -1.063261,-2.39297 1.114855,1.22167 3.428729,1.99525 5.445849,3.28386 2.02269,1.24506 3.77498,2.7967 4.22412,4.06795 0.2753,-0.1709 0.56671,-0.33446 0.71862,-0.65203 0.15836,-0.32027 0.19,-0.76413 -0.0145,-1.69558 -0.23028,0.0121 -1.17432,-0.51343 -2.08797,-1.06473 -0.91098,-0.55784 -1.7708,-1.19789 -1.72926,-1.68278 1.71595,0.12443 2.12791,0.27901 2.55386,0.22923 0.40371,0.008 0.82293,-0.19692 2.10404,0.3823 -0.31304,-0.0714 -1.23565,-1.34665 -1.97101,-2.8372 -0.74084,-1.47523 -1.25556,-3.27207 -0.93443,-3.90472 0.36896,0.97955 2.9286,5.15416 3.11593,6.01366 0,0 -0.54065,-1.77077 -0.95008,-3.88513 -0.0983,-0.53897 -0.19715,-1.07663 -0.28967,-1.58115 -0.0316,-0.15268 -0.0285,-0.22554 -0.0198,-0.28233 l 0.0186,-0.19328 c 0.0163,-0.12397 0.0308,-0.24178 0.0442,-0.34935 0.0638,-0.42918 0.13494,-0.70414 0.13494,-0.70414 -0.21452,0.34927 0.29029,1.58522 0.94729,2.94598 0.66224,1.3629 1.43753,2.83234 1.93087,3.72063 -0.30494,-0.59972 0.14878,-0.39218 0.70431,-0.0842 0.55815,0.30902 1.17975,0.70203 1.41443,0.55578 0,0 -0.26552,-0.38959 -0.53142,-0.7801 -0.29563,-0.40189 -0.59165,-0.80471 -0.59165,-0.80471 0.68634,0.46453 1.08588,0.29245 1.48515,-0.14633 -8.42892,-14.7928 -8.89166,-5.85533 -1.21964,-14.42344 -0.83945,-2.00973 -2.10177,-2.23677 -3.3128,-2.47341 -1.24337,-0.24909 -2.41544,-0.49884 -4.08701,-2.95093 -0.1751,0.36309 -0.82246,0.39953 -1.66383,0.32005 -0.42134,-0.04 -0.89184,-0.10928 -1.3782,-0.18273 -0.240554,-0.0357 -0.487807,-0.0718 -0.736756,-0.10931 -0.163066,-0.10941 -0.137107,0.21591 -0.188867,0.36128 l -0.10713,0.54822 c -0.56302,2.94453 -0.900859,5.92685 0.08291,8.11242 -0.314583,-0.41346 -0.643635,-0.14841 -0.322117,-1.06429 -0.949153,1.39197 -1.986883,3.02502 -1.891229,5.45115 0,0 -0.537828,-0.30454 -1.085819,-0.58421 -0.546921,-0.28229 -1.103618,-0.53878 -1.103618,-0.53878 0,0 0.208681,1.75505 0.486036,3.33269 0.272097,1.59612 0.612868,3.01481 0.612868,3.01481 -2.052699,1.4475 -3.333075,2.4742 -4.014077,-1.2712 0.04208,2.07121 0.0492,3.36427 0.0095,4.34184 -0.01922,0.48636 -0.04728,0.88967 -0.08,1.2483 -0.02363,0.33637 -0.01296,0.52711 -0.0249,0.77507 -0.02355,0.93068 -0.02486,1.78261 0.699979,4.16258 l -1.444975,-0.66986 c -0.410996,1.42089 0.87601,4.25895 -0.579454,4.74205 -1.883201,1.14857 -3.090514,5.06425 -4.433363,9.60513 -0.566147,2.30162 -1.160637,4.76048 -1.901527,7.12895 -0.370251,1.1847 -0.778412,2.34628 -1.237791,3.4556 -0.474849,1.10606 -0.88346,2.18648 -1.427794,3.17096 4.870468,-0.77051 -2.744503,3.53507 0.753762,4.50767 -1.172578,0.29926 -1.995196,1.3778 -2.700578,-0.15245 0.172183,2.25193 -0.599728,3.78964 -0.966509,5.23318 -0.373178,1.43863 -0.484296,2.75747 0.840988,4.44935 -1.160802,0.3583 -1.488397,-1.13751 -2.192504,-0.77898 0.192424,0.3834 0.779475,1.50781 0.06803,1.88243 -0.706008,0.36692 -0.838503,-0.75203 -1.229328,-1.50982 -0.37696,4.52688 2.950151,5.32948 6.083149,5.97714 -0.905995,1.02462 -1.28765,1.83343 -1.212329,2.60438 0.06955,0.77012 0.594231,1.50316 1.578556,2.38811 -1.095308,0.6822 -2.280228,1.90527 -2.452215,-0.87058 -0.240201,1.51511 -2.269994,9.36926 0.386129,9.63798 -0.658611,0.45656 -0.236095,2.15004 0.05118,2.56303 -0.22549,3.45139 -0.462276,3.75796 -0.29068,7.15543 l 0.436068,-0.94011 c 3.024321,1.33427 0.697441,2.80035 1.149754,5.52575 l -0.319348,-0.0709 c -1.016145,3.1543 -0.7273,3.83452 -0.479608,4.48647 0.123891,0.32866 0.238231,0.65266 0.174571,1.28891 -0.05604,0.63631 -0.334473,1.58507 -0.818105,3.16877 l 1.887392,-0.45404 c 2.082829,0.16128 1.586169,1.5357 0.804194,3.3336 -0.782989,1.7929 -1.847386,4.03148 -0.914058,5.74042 l 0.983839,-1.39459 c 0.800517,0.89921 -0.54582,2.39395 -1.964632,3.9408 -1.451505,1.54648 -3.136355,3.1649 -3.258869,4.19569 -0.296772,0.48143 -0.663197,-0.61089 -1.007835,-1.18634 -1.711271,5.54912 2.584677,0.35945 3.680291,4.13142 -1.243924,0.90945 -3.536116,-0.43503 -3.430811,2.23108 -0.227002,0.36861 -0.0051,0.99017 0.426802,1.77085 0.469487,0.77465 1.153167,1.70557 1.803112,2.70596 1.301291,2.00671 2.4613,4.27881 1.515922,6.29715 0.878792,-0.98608 1.759737,-1.94378 2.859257,-0.33498 0.222852,0.65478 0.157433,1.4935 0.04712,2.40095 -0.09532,0.90442 -0.274343,1.88845 -0.365741,2.8487 -0.183181,1.91958 -0.0126,3.7492 1.873925,4.56663 -0.194202,0.40799 -0.428982,0.60308 -0.677466,0.6803 0.675495,0.91917 1.35544,2.51541 2.263506,3.92911 0.899381,1.41626 1.879767,2.69222 2.912895,3.05019 -2.920977,1.82831 -1.227446,4.77442 0.440366,7.39837 1.798867,2.58736 3.569909,4.8708 0.671445,5.83828 l 3.127648,7.83947 -0.610076,0.14335 c 0.931975,2.94048 1.915748,4.69982 2.834786,5.67726 0.92514,0.9868 1.808497,1.23087 2.656057,1.37934 0.177761,1.58583 -0.538328,1.32685 -0.800769,1.53356 0.55781,2.25596 1.035613,4.05529 1.487942,5.48137 0.227012,0.71377 0.448007,1.33572 0.671799,1.88165 0.032,0.0581 0.047,0.15595 0.093,0.18006 l 0.20659,-0.0943 c 0.13836,-0.0657 0.27449,-0.13152 0.41009,-0.19604 0.27202,-0.13481 0.54133,-0.27608 0.8123,-0.4289 2.13767,-1.20118 4.42923,-3.04071 7.67514,-6.03252 0,0 0.0691,0.50566 0.1392,1.01094 0.0839,0.49946 0.16871,0.99854 0.16871,0.99854 0.95808,-1.01937 3.52915,-1.25288 7.29954,-2.13525 0.93588,-0.21723 1.93703,-0.47272 2.97321,-0.77653 0.51875,-0.15164 1.04507,-0.31622 1.57544,-0.49442 0.42114,-0.14645 0.84597,-0.29445 1.27265,-0.44323 1.40565,-0.52942 2.74894,-1.27453 3.85199,-2.36452 0.0345,0.22952 0.0748,0.63018 -0.23911,1.06565 5.07209,-4.65331 16.42799,-0.93223 15.82099,-8.50792 l 3.253,-3.29522 c -5.31678,1.62165 -0.45347,-3.20863 -3.01655,-3.43399 1.84128,-1.23291 6.02772,-0.16857 3.70675,1.20827 l -0.52516,-0.17104 c 0.55206,3.85159 6.85261,-1.43027 7.70833,0.99018 9.96154,-4.38409 20.54788,-6.56965 30.00847,-10.36708 l -2.21478,-2.24246 3.34378,-1.22169 c 1.12427,0.26765 2.0401,1.62494 -0.34462,2.49602 1.87144,1.0114 3.38461,-2.92749 3.20533,-3.54308 5.03884,-0.82928 -0.4679,3.89697 0.96345,3.37194 l 1.82237,-1.00156 -0.56337,-0.13548 c 1.08364,-1.75102 0.73055,-2.97691 3.59834,-4.02261 2.00467,-0.20828 1.61078,1.27917 2.35473,1.09046 0.0751,0.19188 0.35004,0.18275 1.1063,-0.37446 l 4.22617,-1.50431 -2.5456,-1.43656 c 1.38969,-1.8177 3.93044,-1.51897 1.01151,-3.13176 4.36077,2.54642 15.96807,-5.13269 18.17179,-4.69897 1.91188,-2.63019 4.45486,-3.66424 7.66927,-4.79365 -0.96624,-0.116 -2.43813,-2.31463 0.39021,-3.15723 1.08483,5.35562 5.85266,0.0654 9.53059,2.70333 -2.94402,-1.53825 7.44324,-3.8105 2.97318,-5.87069 2.42422,-0.54712 0.91355,1.79099 3.1143,2.23571 4.56718,-4.16908 12.35741,-3.7252 18.72466,-7.15878 -0.16756,-0.69101 -1.69646,-1.21718 -0.67815,-2.78025 l 4.86743,1.77189 c 1.17758,-0.86858 -0.36552,-4.25203 2.97564,-3.00523 -0.56703,-0.40508 -1.41775,-1.01316 -0.62562,-1.59085 14.33266,-2.29863 25.48736,-13.74745 41.18911,-13.35094 -2.31677,-0.50665 -1.1767,-1.13389 0.16894,-1.752 -1.0145,0.0713 -0.65252,-1.61101 -1.19571,-2.41654 l 6.55412,0.11908 c -0.0165,-2.86281 17.37569,-4.29965 16.97309,-6.87565 l -18.025,6.91329 c 34.07378,5.72936 11.85664,-11.33169 10.71437,-15.00814 -1.29286,4.22598 -21.57083,0.71927 -23.96713,6.99525 -1.2465,-0.3237 0.32776,-1.47705 -0.52127,-2.08367 -0.44828,1.97014 -1.62517,2.83518 -4.33818,3.17492 l 0.11721,-0.49063 c -6.66188,3.233 -10.21146,2.96739 -18.28885,5.18737 l 1.30102,1.5101 c -1.74377,0.45772 -2.32078,0.0547 -3.27471,-0.0578 -0.77652,3.44089 4.68539,-1.79255 4.19034,1.85119 -3.6757,-2.63774 -11.62936,4.81862 -14.80018,1.39951 -2.54133,1.04312 1.59118,1.71038 -0.94947,2.74997 l -1.13036,-0.81171 -0.0488,1.6766 c -1.75813,0.46484 -3.16904,-0.5501 -3.61948,-1.44989 0.44899,-0.0595 1.03677,-0.73896 1.43367,-0.99996 -2.69243,-0.38363 -5.88546,2.98727 -6.80014,2.87783 l 2.71583,-0.34852 c -6.48038,3.92358 -15.52024,6.0314 -21.26241,11.05714 l 0.85397,0.61323 c -4.458,3.66448 -4.4629,0.80871 -9.76518,3.86241 l 0.12132,-0.28195 c -0.77535,1.29188 -2.09668,2.33469 -3.66897,2.88311 1.00816,-1.55881 -3.44692,-0.75989 -2.04192,-2.6057 -4.84044,3.95736 -2.19379,2.43403 -4.55865,7.03092 l -1.41552,-1.01301 c -0.72562,1.75905 -0.5548,2.4552 -3.20214,3.98208 1.79976,-2.1352 -2.65954,-1.33341 -0.74228,-3.9637 -7.12138,-0.52731 -7.4417,6.67635 -11.96959,3.43223 -1.10506,4.91609 5.95802,-0.0298 4.78985,1.41402 1.78308,0.70794 -1.03495,3.76305 -3.03613,4.15532 -1.90918,0.7018 -5.21929,-3.50371 -9.90251,-1.45285 0.47628,-0.18044 0.38801,-0.47851 0.86245,-0.65819 -2.16955,-0.22573 -2.90815,2.75782 -5.73026,2.09893 -0.25203,2.79662 -2.86478,1.04769 -1.98901,4.11264 l 4.04042,-2.48919 c -2.13153,1.79186 -2.99497,6.17268 -7.72911,6.21136 0.0674,-0.72027 0.94366,-1.99918 1.58863,-2.77755 -1.54308,-0.3662 -2.0341,1.52536 -3.63019,1.15431 -0.87771,-3.06956 4.98885,-2.84185 6.67952,-6.17198 -1.78575,-0.70139 -4.07908,4.20277 -4.08863,0.48347 -0.20777,4.82135 -4.85718,1.44279 -6.75977,5.85427 l -0.52321,-1.83774 c -0.3903,0.48598 -1.08995,1.7515 -2.03755,2.09837 l 0.73093,-2.97599 c -1.77189,3.02043 -5.69301,0.40005 -7.72934,2.49358 5.16727,-2.23348 2.05078,1.61937 4.78176,1.97597 -5.41839,5.0297 -5.6037,-3.03213 -12.41837,0.81597 0.86584,-0.65527 4.08386,-0.4793 2.90725,0.9702 -1.51597,0.21242 -3.59982,0.29669 -4.82221,-0.26923 -4.59593,2.35693 1.48459,1.49267 -0.0847,3.41724 -2.51172,-1.45404 -1.96716,1.84757 -3.76264,3.40398 l -0.76188,-1.77333 c -5.89065,1.13052 0.1223,4.31077 -5.32792,4.97654 l 1.02259,-3.3327 -2.27178,1.70324 -0.326,-2.24374 c -2.13272,2.66217 -3.15595,2.63518 -6.1015,3.20378 1.15623,0.98956 1.00255,3.37722 -1.3702,4.43958 -2.07786,-0.3716 0.20483,-2.07726 -3.08562,-0.39533 0.2995,-1.4359 0.5526,-3.18636 2.71929,-2.16661 -0.0914,-0.64383 0.28688,-1.43494 0.20362,-2.07241 -2.27077,-0.47715 -4.54004,1.58078 -5.76345,2.11287 0.50141,-0.13352 1.10726,-0.27401 1.50416,-0.14239 l -3.88981,4.53218 c -1.05609,-0.34291 -0.66639,-1.13774 -0.2772,-1.91826 -0.91712,0.61064 -1.26304,1.71897 -2.66611,2.48701 -0.22713,-1.60524 -0.94553,-3.06061 0.84465,-4.61154 l -4.01902,3.57345 c -0.5775,-0.49721 -3.13302,-0.7149 -2.7477,-1.50464 -0.73999,0.0612 -1.43475,0.43428 -2.12293,0.96507 -0.17103,0.13254 -0.34318,0.27531 -0.51485,0.4244 l -0.129,0.11381 c -0.0277,0.0322 -0.012,0.0463 -0.02,0.0713 l -0.0149,0.1375 c -0.0233,0.18984 -0.0554,0.40285 -0.10516,0.62006 -0.16784,0.85569 -0.79349,1.86347 -1.28334,1.40972 -0.0704,0.35927 -0.20118,0.72978 -0.48366,1.09023 -0.54245,0.0358 -0.85492,-0.45014 -1.16647,-0.59807 -0.0819,-0.035 -0.16852,-0.0475 -0.27167,-0.0193 -0.0462,9.7e-4 -0.11906,0.0652 -0.15818,0.0469 -0.0271,-0.0439 -0.0607,-0.0775 -0.10143,-0.0995 -0.16216,-0.0892 -0.42935,0.0132 -0.90747,0.28231 0,0 0.38632,-0.96044 0.81687,-1.81038 0.42628,-0.86008 0.89548,-1.6102 0.89548,-1.6102 -0.31818,0.0739 -0.94611,0.92649 -1.5569,1.96707 -0.62575,1.0024 -1.23452,2.19505 -2.08448,1.50097 -0.67251,-0.47034 -0.25992,-1.0763 0.40398,-1.62618 0.6608,-0.55726 1.51605,-1.20158 1.77963,-1.61483 -0.67458,0.27129 -1.73508,0.45517 -2.49984,0.11901 -0.63756,0.0236 -1.46402,-1.93189 -0.90207,-3.82503 0.86251,0.89705 0.75321,1.86373 1.28972,2.79028 z m -10.831399,-37.079 c 0.538371,0.67523 2.041746,1.91816 1.02089,2.6537 -2.333074,-0.44991 -1.415135,-1.29625 -1.02089,-2.6537 z m -5.984469,-59.04392 c 0.564118,0.63839 0.141985,1.46962 -0.707091,2.37923 -0.06891,-0.73243 0.104599,-1.53844 0.707091,-2.37923 z m 104.562768,85.0677 -0.84369,-0.19348 c 1.24973,-1.12555 1.03376,-0.49042 0.84369,0.19348 z"
   id="path2658"
   sodipodi:nodetypes="ccccccccccccccccccccccccccccccccccsccsccccccccccccccccccccccccccccccccccccccccccccccccccccccccccccccccccccccccccccccccccccccccccccccccccccccccccccccccccccccccccccccccccccccccccccccccccccccccccccccccccccccccccccccccccccccccccccccccccccccccccccccccccccccccccccccccccccccccccccccccccccccccccccccccccccccccccccccccccccccccccccccccccccccccccc" /><path
   d="m 92.982774,304.58839 c -0.340419,0.18631 -0.702651,0.21475 -1.068367,0.2349 0.301189,0.32472 0.674901,0.35979 1.068367,-0.2349 z"
   id="path2660" /><path
   d="m 112.77459,397.11269 c 0.01,0.0132 0.021,9.5e-4 0.0306,0.011 0.0255,-0.13546 0.0413,-0.27111 0.0517,-0.4013 z"
   id="path2662" /><path
   d="m 101.39278,350.23692 -0.63911,-0.0679 c -0.62814,0.40255 -0.61369,0.88129 -0.59293,1.84 z"
   id="path2700" /><polygon
   points="95.639,288.088 97.962,287.976 98.069,287.508 "
   id="polygon2702"
   transform="rotate(-22.775188,323.95912,315.36604)" /><path
   d="m 112.76655,392.49801 c 0.0742,-0.0843 -0.37259,0.23885 -0.31357,0.10562 0.19664,-0.0793 -0.33177,0.36705 -0.57569,0.67987 -0.24818,0.30267 -0.25512,0.35331 0.88926,-0.78549 z"
   id="path2704" /><path
   d="m 536.82186,268.91783 -0.6875,-0.94776 c 0.25642,0.46608 0.47689,0.75095 0.6875,0.94776 z"
   id="path3322" /><path
   d="m 538.54739,276.63126 0.80675,0.0203 c -0.5041,-0.26556 -0.84916,-0.34085 -0.80675,-0.0203 z"
   id="path3324" /><path
   d="m 520.498,415.26893 c 2.10786,2.44245 5.2593,6.17446 4.9681,4.14278 0,0 -0.18824,-0.54134 -0.37725,-1.08452 -0.17553,-0.53691 -0.35145,-1.07475 -0.35145,-1.07475 -1.80315,-0.3915 -3.184,-1.1566 -4.2394,-1.98351 z"
   id="path3326" /><path
   d="m 551.94355,341.6238 c -0.182,0.14257 -0.37229,0.28862 -0.56089,0.43613 0.56532,0.45786 1.09448,0.88642 1.57091,1.27206 -0.30478,-0.5141 -0.64805,-1.09663 -1.01002,-1.70819 z"
   id="path3328" /><path
   d="m 544.87219,339.85427 1.2696,-2.02107 c -0.42402,0.447 -0.84757,1.09661 -1.2696,2.02107 z"
   id="path3330" /><path
   d="m 525.81565,247.94205 c 9.2e-4,-3.9e-4 -0.10681,0.52314 -0.17544,1.03133 -0.0727,0.50881 -0.10444,1.00151 -0.10444,1.00151 0.28274,-0.12738 0.21719,-1.0662 0.27988,-2.03284 z"
   id="path3332" /><path
   d="m 452.44693,386.98753 c 1.06825,1.1675 2.01498,1.86216 2.90976,2.31943 -1.21912,-1.57593 -1.94192,-3.48605 -2.90976,-2.31943 z"
   id="path3334" /><path
   d="m 555.43106,267.57522 c -0.47148,-0.62957 -0.88668,-0.84352 -1.25729,-0.72913 0.46083,0.64814 0.87897,0.98016 1.25729,0.72913 z"
   id="path3336" /><path
   d="m 459.18339,390.8629 c -0.16816,-0.25585 -0.3641,-0.43063 -0.54542,-0.6636 -1.07804,-0.12654 -2.14031,-0.30851 -3.28205,-0.89418 0.89725,1.17095 2.07474,2.144 3.82747,1.55778 z"
   id="path3338" /><path
   d="m 473.11239,384.88789 c 0.0283,0.0131 0.0513,0.024 0.0848,0.0392 -0.1654,-0.43271 -0.13973,-0.35347 -0.0848,-0.0392 z"
   id="path3348" /><path
   d="m 532.93851,393.47581 c 0.007,0.0305 0.0451,0.0635 0.0579,0.0939 0.0243,-0.0145 0.0555,-0.0331 0.0789,-0.0472 z"
   id="path3358" /><path
   d="m 532.5522,390.52531 c 0.38809,0.54203 0.64733,0.99933 0.80132,1.39453 0.0775,0.1974 0.13088,0.37888 0.1618,0.5481 0.0238,0.18847 0.0748,0.21695 0.0792,0.32032 0.0407,0.33974 -0.2169,0.54767 -0.52031,0.73688 0,0 1.18136,0.41395 2.39751,0.7222 1.21172,0.32094 2.45998,0.53002 2.46037,0.53094 0,0 -0.33306,-0.27663 -0.84263,-0.65595 -0.25597,-0.18861 -0.5564,-0.40303 -0.88176,-0.61999 -0.31903,-0.23806 -0.64766,-0.5274 -0.98247,-0.79788 -1.33658,-1.08846 -2.673,-2.17915 -2.673,-2.17915 z"
   id="path3360" /><path
   d="m 530.80935,250.94722 -0.63995,2.94213 c 6.8653,-11.7107 -1.4634,-0.93038 -0.11289,2.39439 0.2338,0.57752 0.4689,1.15558 0.73088,1.68656 0.23961,0.53712 0.49818,1.03158 0.81719,1.43233 0.63895,0.80112 1.50683,1.23823 2.83163,0.93471 l -0.62193,1.95954 c -0.0855,-0.48254 -0.41188,-0.46696 -0.49463,-0.94305 -1.58263,3.88454 4.45652,1.26331 4.91526,5.6237 -0.009,1.55595 -0.56842,2.76894 -1.41713,1.94093 l 2.07135,2.9057 c 0.12047,0.96891 -0.84903,0.95623 -0.97247,-0.002 l 1.59818,4.83207 -0.16385,-0.003 c 1.01109,0.51472 2.67071,1.84823 3.34212,2.5381 -0.5235,1.43451 -0.68181,-0.52607 -1.28455,-0.0604 l 1.80616,2.52465 c -1.17176,1.39649 -2.94121,-0.64033 -3.09378,-2.57946 -4.84016,3.63513 1.76776,2.03537 -0.31328,8.15295 l -1.16113,-2.45817 c -1.36146,1.10739 -1.67355,2.09739 -1.81774,3.21864 -0.0711,0.55911 -0.0991,1.15111 -0.19451,1.79961 -0.11039,0.65153 -0.32168,1.36495 -0.69677,2.15582 0.43742,-0.4125 1.48699,-2.04835 2.50575,-3.24612 1.05252,-1.20001 2.22626,-1.97696 3.17433,-0.59199 -0.22562,0.90923 -0.28184,2.04885 1.01622,3.51572 -1.90765,0.29987 -1.22888,1.80549 -0.85262,3.7711 l -2.55886,0.19801 c 1.0177,2.0184 2.28907,1.69611 3.60343,2.82209 0.0173,0.60441 -0.0879,1.10301 -0.28042,1.52007 -0.21425,0.41966 -0.51271,0.75755 -0.85687,1.04087 -0.69108,0.5678 -1.57951,0.92128 -2.38723,1.28101 -0.0922,3.83357 2.94657,-2.94531 3.79848,1.53525 -0.35655,1.64097 -0.22812,2.99047 0.22087,4.40603 0.22523,0.70693 0.53004,1.43034 0.89362,2.21366 0.34229,0.78685 0.70882,1.63401 1.119,2.57998 -0.8111,2.29167 -1.5762,-0.32627 -2.28254,0.51257 l 2.09889,1.91478 c -0.0351,0.48979 -0.66559,0.35212 -0.98508,0.28344 0.84388,1.65864 2.56,0.0553 3.33791,2.71666 1.40569,0.33603 0.46549,1.74159 -0.52753,3.43721 -1.01893,1.70107 -1.99666,3.67335 -0.43116,5.35873 -0.74355,0.79155 -1.55902,-0.43001 -2.55418,-0.20416 1.97973,4.55257 1.526,3.88519 4.05368,7.76412 l -1.90747,3.06433 c 2.0846,-2.19296 4.13685,0.93333 5.80175,3.7906 0.98732,-0.76376 1.84798,-1.42879 2.27013,-1.88801 0,0 0.26216,1.11006 0.52578,2.21843 0.13166,0.55641 0.26318,1.11506 0.36224,1.53441 0.10575,0.41979 0.14389,0.69661 0.1435,0.69569 -0.48847,0.47948 -1.28782,-0.045 -2.29163,-0.85233 0.19701,0.31424 0.35897,0.60957 0.5253,0.84558 -1.13096,1.43684 -2.49933,0.4767 -3.78756,-0.73943 0.5552,-0.4652 1.12049,-0.92704 1.69135,-1.3782 -1.47141,-1.19779 -3.11535,-2.30795 -4.62372,-2.21694 0.27449,0.29472 0.48936,0.84006 0.5898,1.42802 -0.40099,-0.30668 -0.76294,-0.51262 -1.0275,-0.40914 -0.27938,0.1173 0.25347,0.59855 0.85395,1.34423 l -2.91212,0.66628 1.09892,0.33902 -2.44568,5.17419 c 1.16883,2.09161 2.75927,4.15154 3.96102,6.49721 1.17396,2.3389 2.07897,4.98269 2.10554,8.22848 -1.7841,-1.9374 -3.29969,-0.95945 -5.71949,-1.50743 2.87498,-1.20164 -0.26152,-4.92907 0.81622,-7.97801 -0.56049,1.6073 -1.66468,1.05683 -1.99758,0.58165 l 1.36235,6.00371 c -1.97063,-0.48819 -1.70543,0.92102 -2.78536,2.22364 2.05892,-0.17466 2.54895,1.00025 2.57667,2.54387 -0.0213,1.53276 -0.48157,3.42009 -0.14304,4.69656 -1.34295,-0.15305 -2.55986,-0.99783 -1.61293,-3.68926 -3.63824,2.38541 3.69151,4.97701 0.50125,7.44006 0.12406,-0.68873 0.40965,-1.00819 -0.19504,-1.43325 0.40268,0.93068 0.14844,2.31938 -0.31854,3.32018 -0.47391,0.99722 -1.22531,1.58925 -1.65739,0.99412 l 0.15994,-0.67559 c -0.85283,2.16385 -1.80385,5.53268 -2.15898,8.57973 -0.089,0.76186 -0.14084,1.50377 -0.14456,2.2027 -0.0274,0.69154 -0.0165,1.33767 0.0621,1.91746 0.15437,1.16074 0.56102,2.05179 1.31565,2.48006 -0.4308,-0.0935 -3.71368,-1.8344 -4.28287,-2.30148 0,0 2.08454,2.80798 4.13789,5.71473 1.06594,1.33765 2.0442,2.93662 2.70706,4.3036 0.6686,1.35481 1.06418,2.39258 1.06418,2.39258 -1.11616,-1.22221 -3.42965,-1.99486 -5.44715,-3.2844 -2.02269,-1.24506 -3.77459,-2.79577 -4.2232,-4.06833 -0.274,0.17143 -0.56579,0.33407 -0.71993,0.65149 -0.15797,0.3212 -0.18962,0.76506 0.0145,1.69558 0.23028,-0.0121 1.17432,0.51344 2.08759,1.06381 0.91097,0.55784 1.77079,1.1979 1.72964,1.6837 -1.71596,-0.12442 -2.12792,-0.279 -2.55478,-0.22884 -0.40187,-0.009 -0.82293,0.19692 -2.10404,-0.3823 0.31434,0.0719 1.23565,1.34665 1.97192,2.83682 0.74032,1.47654 1.25557,3.27207 0.93536,3.90432 -0.36989,-0.97915 -2.9286,-5.15415 -3.11685,-6.01326 0,0 0.54011,1.77208 0.95007,3.88513 0.0988,0.53766 0.19677,1.0757 0.28875,1.58153 0.0321,0.15138 0.0272,0.225 0.0185,0.2818 l -0.0182,0.1942 c -0.0163,0.12397 -0.0312,0.24086 -0.0447,0.35066 -0.0638,0.42918 -0.13494,0.70414 -0.13494,0.70414 0.21636,-0.35005 -0.28845,-1.58599 -0.94637,-2.94637 -0.66224,-1.3629 -1.43792,-2.83326 -1.93125,-3.72155 0.30624,0.60025 -0.14786,0.39179 -0.70524,0.0846 -0.55814,-0.30903 -1.17791,-0.70281 -1.41482,-0.55671 0,0 0.26775,0.38974 0.53143,0.7801 0.29524,0.40097 0.5898,0.80548 0.5898,0.80548 -0.68595,-0.4636 -1.0851,-0.29059 -1.48438,0.14818 -0.39272,0.44145 -0.76463,1.15723 -1.23367,1.85089 -0.9043,1.39807 -2.334,2.64257 -4.56791,1.60224 0.44291,-0.31936 1.19933,-1.55557 1.60426,-2.88498 0.20882,-0.66249 0.34791,-1.34125 0.3792,-1.91511 0.0107,-0.58149 0.0599,-0.99909 -0.56944,-1.41054 -1.96975,1.68381 -9.04969,8.27118 -13.88657,8.20983 l -0.30019,-1.54419 -3.76448,0.0827 c 3.30152,-2.39696 11.64582,-6.86667 15.76747,-8.24792 -1.38136,-1.69111 0.0938,-1.63911 -2.61225,-2.6157 -0.47353,-1.52565 2.15745,-1.14116 2.96813,-0.88936 l -5.8911,-3.26719 c -0.74249,2.60233 -5.75527,0.56175 -6.36747,2.73304 l 7.77941,0.16752 c -0.74204,2.59564 -6.77564,5.47808 -10.98417,3.24518 -0.71138,-1.44639 2.64408,-4.08942 2.89342,-4.95763 -0.92038,0.62611 -4.83396,-0.0648 -4.98767,-0.83641 l 2.40431,-0.57129 c -2.06002,-1.93327 -5.33357,1.67208 -7.29819,-1.90422 -0.94802,-0.57374 -1.71597,-4.44098 -2.49264,-3.04118 0.49177,3.51684 -2.77561,12.43503 -4.74943,14.11947 -0.27707,-0.33702 -4.20966,-4.88853 -4.79298,-6.76611 -0.75927,-2.90888 4.67309,-4.28622 4.03456,-6.77835 -0.33798,0.65707 -1.60328,1.11781 -2.09797,1.23116 -0.82684,-1.01615 1.30147,-1.92708 -1.13711,-2.5637 -1.41752,2.36624 -4.61619,-2.13442 -1.96359,1.68556 -2.55564,-0.20246 -2.19085,-1.50091 -4.8935,-2.47459 0.17882,1.97583 -4.65292,4.57709 -7.21272,4.36988 0.39526,-0.58785 0.2282,-1.63155 0.13643,-2.11361 -4.54077,-2.1227 -6.56379,-4.28299 -10.87643,-6.07415 -0.1491,-0.7736 -1.9322,-2.36762 -0.59892,-3.09008 -0.80425,0.19233 -1.72487,0.81529 -3.08442,0.33082 -1.68955,-3.23628 3.11069,0.87611 2.21486,-2.54917 -0.76759,1.39817 -4.27565,0.61406 -6.54836,0.75483 -0.3406,2.50301 4.21198,2.22821 6.48769,2.08942 -1.26899,3.12815 -5.91657,5.04691 -11.0246,4.64714 -3.9078,-0.69003 -0.73042,-2.65419 -1.53622,-2.46554 -6.52036,-3.30126 -7.97668,3.10825 -12.65478,-1.43393 -1.40987,-2.89819 1.51746,-4.00359 1.61333,-5.64032 3.23274,0.44093 3.97364,3.0994 5.98925,3.82901 l -2.05696,-1.93889 c 1.2004,-0.27949 3.35828,0.014 4.1858,1.02666 -1.13077,-2.55118 -11.25229,-5.00098 -15.78124,-8.77718 -1.19891,0.29079 -3.07612,0.32734 -2.64758,1.43588 l 1.76031,0.39538 c 0.85834,2.22522 -4.00596,0.95417 -2.22739,2.55551 -2.67055,0.22647 -5.87149,0.99015 -8.61079,-1.18935 l 0.34327,-2.50956 c -0.20404,0.69194 1.48093,2.18399 2.63802,1.84786 -1.70871,0.47663 -3.51339,-5.02034 -6.14676,-2.62843 l 1.53768,2.46384 c -2.68229,0.23466 -6.41027,1.52546 -8.87289,-0.31794 0.33747,2.75409 0.73978,0.003 1.6263,3.4266 -0.36496,-3.95618 6.99228,3.01744 5.66627,-1.52544 0.76455,3.86432 2.95059,2.71116 4.51454,6.38194 0.22534,-0.78331 -0.34507,-1.81385 1.81735,-0.49947 0.19406,-0.17584 0.55305,-0.3515 0.77754,-0.45226 0.0636,0.0481 0.0822,0.0718 0.13279,0.11994 -0.0334,-0.0511 -0.0578,-0.0885 -0.0906,-0.14091 0.14535,-0.0697 0.16521,-0.0921 -0.0358,-0.049 -0.41742,-0.55248 -0.70283,-1.12894 -0.71324,-1.6213 1.85007,-1.25071 5.50777,0.30569 7.11559,-0.0754 1.22556,0.91706 -0.92538,0.62712 -0.5027,1.72944 l 2.40207,-0.57143 c -0.49567,1.73842 2.51954,4.25218 -1.11295,3.90534 l 2.88067,1.26334 c 1.33189,1.63271 3.53697,2.96604 5.27616,2.86164 1.22619,0.92114 4.22055,-0.42499 2.49175,0.3887 l 4.98374,0.8348 -0.12728,0.43304 c 4.41788,2.04957 10.39722,1.03474 14.31823,6.1399 1.6877,0.1992 3.46352,0.32669 5.80769,1.83373 l -0.093,1.64095 c 2.15158,0.29401 5.25655,3.82753 6.70543,2.6726 0.51798,4.73138 9.10125,4.70565 12.24568,6.79098 l 0.8959,-1.8262 c 2.31445,1.06942 4.79175,1.45986 8.02265,1.90156 l 0.49984,-1.73367 c 3.07957,-0.33204 6.00225,3.82898 10.06076,5.28867 -0.53082,0.52329 -1.475,-0.0542 -2.03345,-0.7308 3.23184,5.69819 11.17032,1.38042 14.37506,5.87744 0.66332,-0.0811 1.16649,0.009 1.57981,0.21087 0.23029,0.10938 0.33502,0.2064 0.61224,0.39911 0.27682,0.19179 0.53932,0.4037 0.79817,0.63015 -0.15832,-0.0593 -0.31123,-0.0852 -0.45215,-0.0824 0.16425,0.0916 0.42331,0.1997 0.69029,0.30344 0.65031,0.5957 1.34003,1.25945 2.14514,1.89319 -0.64144,-0.72957 -1.22629,-1.35276 -1.7679,-1.74898 1.32088,0.49311 3.38134,1.08676 5.31676,1.38259 0,0 0.16559,0.58555 0.3291,1.16873 0.18091,0.59105 0.36143,1.18117 0.36143,1.18117 0.16896,0.0408 0.30142,0.098 0.47713,0.13156 2.0303,1.5835 1.54604,-0.3552 0.592,-2.29946 0.94187,0.0373 1.76536,-0.0395 2.35605,-0.29616 0.83945,2.00973 2.10084,2.23716 3.31371,2.47303 1.24469,0.24962 2.41491,0.50014 4.08741,2.95185 0.17562,-0.3644 0.82246,-0.39954 1.66421,-0.31913 0.42096,0.0391 0.89184,0.10928 1.37781,0.18181 0.24148,0.0353 0.4882,0.0727 0.73676,0.10931 0.16307,0.1094 0.13803,-0.2163 0.18979,-0.36167 l 0.10674,-0.54914 c 0.5621,-2.94415 0.90125,-5.92593 -0.0838,-8.11203 0.31458,0.41345 0.64455,0.14802 0.32226,1.06205 0.94823,-1.39158 1.98688,-3.02501 1.89123,-5.45115 0,0 0.53783,0.30455 1.08397,0.58499 0.54785,0.2819 1.10454,0.53839 1.10454,0.53839 0,0 -0.21052,-1.75428 -0.48603,-3.33269 -0.2721,-1.59612 -0.61195,-3.0152 -0.61195,-3.0152 2.05217,-1.44619 3.33308,-2.4742 4.01408,1.2712 -0.0402,-2.07198 -0.0479,-3.36373 -0.009,-4.34223 0.0183,-0.48597 0.0482,-0.89005 0.0809,-1.24868 0.0227,-0.33599 0.0139,-0.5275 0.0258,-0.77546 0.0236,-0.93068 0.0249,-1.78261 -0.69998,-4.16258 l 1.44575,0.6717 c 0.41191,-1.42127 -0.8764,-4.25987 0.57799,-4.74035 1.88505,-1.14935 3.09105,-5.06555 4.43482,-9.60683 0.56562,-2.30031 1.16064,-4.76047 1.90153,-7.12895 0.37156,-1.18416 0.7788,-2.34535 1.23818,-3.45468 0.47354,-1.10659 0.88215,-2.18701 1.42871,-3.17134 -4.87085,0.76959 2.74305,-3.53337 -0.75337,-4.50675 1.17073,-0.29848 1.99389,-1.37833 2.70058,0.15245 -0.17257,-2.25285 0.60026,-3.79095 0.96651,-5.23318 0.37279,-1.43955 0.48429,-2.75747 -0.84153,-4.44804 1.16095,-0.36053 1.48932,1.13712 2.19266,0.77675 -0.19151,-0.38379 -0.77871,-1.50597 -0.0689,-1.88205 0.70639,-0.36599 0.83889,0.75296 1.22933,1.50983 0.37788,-4.52727 -2.9487,-5.33118 -6.08277,-5.97623 0.90561,-1.02553 1.28673,-1.83303 1.21233,-2.60437 -0.0705,-0.76973 -0.59423,-1.50316 -1.57855,-2.38811 1.0953,-0.6822 2.28207,-1.90604 2.45405,0.86981 0.24021,-1.51512 2.27,-9.36927 -0.38705,-9.6376 0.65716,-0.45486 0.2361,-2.15003 -0.0517,-2.56172 0.2251,-3.45231 0.46228,-3.75796 0.29068,-7.15543 l -0.43699,0.9405 c -3.02393,-1.33335 -0.69836,-2.79996 -1.14975,-5.52575 l 0.32027,0.0705 c 1.01483,-3.15484 0.72637,-3.83414 0.4796,-4.48647 -0.12258,-0.32814 -0.23784,-0.65175 -0.17365,-1.28931 0.057,-0.63669 0.3354,-1.58545 0.81719,-3.16838 l -1.88739,0.45404 c -2.08191,-0.16166 -1.58486,-1.53517 -0.80328,-3.33399 0.78207,-1.79251 1.84831,-4.03187 0.91314,-5.74003 l -0.98384,1.39459 c -0.80052,-0.89921 0.54767,-2.39472 1.96556,-3.94118 1.45242,-1.54687 3.13543,-3.16452 3.25794,-4.19531 0.29677,-0.48143 0.6632,0.61089 1.00968,1.18557 1.71127,-5.54912 -2.58375,-0.35984 -3.68029,-4.13142 1.24392,-0.90945 3.53612,0.43503 3.42989,-2.23069 0.22792,-0.36901 0.006,-0.99056 -0.4268,-1.77085 -0.46949,-0.77466 -1.15317,-1.70557 -1.80311,-2.70597 -1.3013,-2.00671 -2.46038,-4.27919 -1.51593,-6.29714 -0.87694,0.9853 -1.75973,1.94377 -2.85925,0.33498 -0.22286,-0.65478 -0.15744,-1.4935 -0.0471,-2.40096 0.0953,-0.90441 0.27435,-1.88844 0.36574,-2.84869 0.18357,-1.91866 0.0126,-3.74921 -1.87354,-4.56571 0.19513,-0.40838 0.42899,-0.60309 0.67839,-0.68069 -0.67549,-0.91917 -1.35544,-2.51541 -2.26258,-3.92949 -0.89846,-1.41665 -1.87977,-2.69223 -2.91474,-3.04942 2.92098,-1.82831 1.22837,-4.77481 -0.44037,-7.39837 -1.79794,-2.58775 -3.56898,-4.87119 -0.67052,-5.83867 l -3.12857,-7.83908 0.61008,-0.14335 c -0.9329,-2.9401 -1.91391,-4.7006 -2.83479,-5.67726 -0.92514,-0.9868 -1.80757,-1.23126 -2.65644,-1.38027 -0.17738,-1.58491 0.53925,-1.32723 0.79984,-1.53317 -0.55781,-2.25596 -1.03561,-4.05528 -1.48794,-5.48137 -0.22701,-0.71377 -0.448,-1.33571 -0.67179,-1.88165 -0.032,-0.0581 -0.047,-0.15595 -0.0948,-0.17928 l -0.20659,0.0943 c -0.13836,0.0657 -0.27541,0.1319 -0.41008,0.19603 -0.27202,0.13482 -0.54133,0.27609 -0.81138,0.42851 -2.13768,1.20119 -4.42924,3.04071 -7.67514,6.03252 0,0 -0.0691,-0.50566 -0.13736,-1.0117 13.3119,49.5604 -2.88355,10.55846 1.69979,18.53515 0.67251,0.47033 0.259,1.07669 -0.4049,1.62656 -2.39648,1.90003 -1.26841,1.24184 0.72114,1.49544 0.63755,-0.0237 1.46401,1.93188 0.90206,3.82503 -0.85097,-0.89539 -0.74166,-1.86207 -1.27818,-2.78862 z m 10.83141,37.079 c -0.53799,-0.67431 -2.04083,-1.91855 -1.02089,-2.6537 2.33215,0.45029 1.41513,1.29624 1.02089,2.6537 z m 5.98393,59.04523 c -0.56358,-0.63971 -0.14199,-1.46962 0.70762,-2.38055 0.0689,0.73244 -0.10421,1.53937 -0.70762,2.38055 z m -113.25621,32.33983 c 0.0428,-0.0169 0.0732,-0.0297 0.11216,-0.0558 1.32567,1.35441 0.86722,0.84627 -0.11216,0.0558 z m -3.02728,-2.1421 c -0.43784,0.11441 -0.51577,0.37055 -0.47601,0.67706 0.41757,-0.35644 1.1824,-0.0821 1.98669,0.39469 -0.0491,-0.56395 -0.34812,-1.06421 -1.51068,-1.07175 z"
   id="path3362"
   sodipodi:nodetypes="ccccccccccccccccccccccccccccccccccccccccccccccccccccccccccccccccccccccccccccccccccccccccccccccccccccccccccccccccccccccccccccccccccccccccccccccccccccccccccccccccccccccccccccccccccccccccccccccccccccccccccccccccccccccccccccccccccccccccccccccccccccccccccccccccccccccccccccccccccccccccccccccccccccccccccc" /><path
   d="m 545.69018,340.07697 c 0.34081,-0.18538 0.70227,-0.21567 1.06798,-0.23582 -0.3008,-0.3238 -0.67359,-0.35925 -1.06798,0.23582 z"
   id="path3364" /><path
   d="m 525.89836,247.55267 c -0.01,-0.0132 -0.0219,-5.5e-4 -0.0306,-0.011 -0.0246,0.13506 -0.0403,0.27072 -0.0517,0.40129 z"
   id="path3366" /><path
   d="m 489.32788,383.28677 c 0.58309,0.5415 0.83386,1.02513 0.95221,1.46458 0.21478,-0.42097 0.0509,-0.91722 -0.95221,-1.46458 z"
   id="path3368" /><path
   d="m 426.69342,376.53193 c -0.55399,-0.67627 -1.23168,1.73942 -1.38325,0.96252 -1.57708,1.58836 5.68785,-0.37619 1.38325,-0.96252 z"
   id="path3378" /><path
   d="m 450.547,377.96234 2.83231,0.53856 c 0.52612,-0.52674 -0.0276,-1.20747 -1.10574,-1.35239 -0.80512,0.1851 -1.87668,0.0352 -1.72657,0.81383 z"
   id="path3388" /><polygon
   points="445.075,452.384 448.413,449.916 447.882,449.431 "
   id="polygon3394"
   transform="rotate(-22.775188,323.95912,315.36604)" /><path
   d="m 525.92212,395.07138 c -0.76032,-1.36402 -0.64382,2.45245 -1.45129,0.80563 -0.6261,0.78455 0.71617,1.36737 0.22438,2.06625 1.11641,-0.64226 1.3539,0.0758 1.22691,-2.87188 z"
   id="path3396" /><path
   d="m 524.69521,397.94326 c -0.18274,0.0995 -0.38955,0.22428 -0.64314,0.40559 0.36035,-0.12852 0.52973,-0.27013 0.64314,-0.40559 z"
   id="path3398" /><path
   d="m 537.28017,294.42845 0.63911,0.0679 c 0.6263,-0.40177 0.61277,-0.88089 0.59386,-1.84038 z"
   id="path3404" /><polygon
   points="538.361,351.912 536.037,352.024 535.931,352.492 "
   id="polygon3406"
   transform="rotate(-22.775188,323.95912,315.36604)" /><path
   d="m 525.90641,252.16736 c -0.0742,0.0843 0.37351,-0.23925 0.31356,-0.10562 -0.19755,0.0797 0.33178,-0.36706 0.57662,-0.68026 0.24726,-0.30229 0.2542,-0.35292 -0.89018,0.78588 z"
   id="path3408" /><path
   d="m 527.29594,245.80541 c 3.21665,0.23729 8.08286,0.64748 6.44191,-0.58215 0,0 -0.51722,-0.25029 -1.03405,-0.49966 -0.50339,-0.2561 -1.00639,-0.51128 -1.00639,-0.51128 -1.55315,0.99699 -3.07037,1.43118 -4.40147,1.59309 z"
   id="path3502" /><path
   d="m 447.56103,116.6684 c -0.77969,-0.11081 -1.2243,0.0314 -1.40384,0.37358 0.78267,0.13341 1.31389,0.0709 1.40384,-0.37358 z"
   id="path3512" /><path
   d="m 520.68137,221.59864 c 0.029,0.0149 0.0771,0.0132 0.10945,0.0256 0.008,-0.0282 0.0168,-0.0634 0.0234,-0.089 z"
   id="path3534" /><path
   d="m 518.32252,219.78541 c 0.65838,0.1086 1.16499,0.24839 1.55399,0.41802 0.19384,0.0846 0.36124,0.17587 0.50075,0.27565 0.14962,0.11613 0.20488,0.10052 0.28223,0.17108 0.26973,0.21104 0.23447,0.54037 0.15325,0.88682 0,0 1.12815,-0.54199 2.20503,-1.18283 1.0826,-0.6324 2.11577,-1.36443 2.11577,-1.36443 0,0 -0.42981,0.0405 -1.05856,0.13425 -0.31549,0.0468 -0.67902,0.1083 -1.06235,0.18465 -0.39461,0.0572 -0.83116,0.0843 -1.25865,0.13041 -1.71723,0.1722 -3.43146,0.34638 -3.43146,0.34638 z"
   id="path3536" /><path
   d="m 418.39325,122.32149 1.62818,2.53214 c -4.70983,0.55123 -3.17163,0.31429 -4.1704,2.27262 0.11827,-0.24271 0.24105,-0.49273 0.39757,-0.81224 0.19292,-0.19921 0.40336,-0.35155 0.62151,-0.46484 0.43908,-0.22773 0.92374,-0.29781 1.43914,-0.26367 1.02857,0.0681 2.17736,0.55433 3.32537,1.03868 0.57558,0.24206 1.14932,0.48489 1.7103,0.67668 0.55034,0.21035 1.08157,0.37776 1.59103,0.43392 1.01877,0.11454 1.9398,-0.18972 2.66329,-1.34161 l 0.94626,1.82498 c -0.40222,-0.28122 -0.62226,-0.0381 -1.01609,-0.3174 1.62856,3.86598 4.04435,-2.25767 7.45353,0.49956 1.09324,1.1082 1.55579,2.35972 0.37075,2.37354 l 3.51999,0.59039 c -0.61317,1.62339 0.93084,1.49968 3.85877,2.97301 l -0.11692,0.11416 c 1.0792,-0.35116 3.19605,-0.58159 4.15832,-0.56804 0.64422,1.38456 -0.85394,0.11016 -0.95158,0.86697 l 3.063,0.50677 c 0.15754,1.81666 -2.53121,1.62779 -4.01172,0.36442 -0.85237,5.99325 2.6873,0.19056 5.54287,5.98707 l -2.56034,-0.9163 c -0.17927,1.7455 0.29924,2.6682 0.99081,3.5611 0.3456,0.44599 0.74417,0.88383 1.13552,1.41039 0.38392,0.53727 0.73808,1.19223 1.03086,2.01614 0.0184,-0.60206 -0.39502,-2.5011 -0.52196,-4.06922 -0.10432,-1.59172 0.17625,-2.97195 1.82532,-2.66327 0.48479,0.80077 1.24986,1.64655 3.20496,1.76709 -1.13554,1.56024 0.40828,2.14521 2.06433,3.26873 l -1.66811,1.9476 c 2.14747,0.70787 2.81734,-0.41933 4.54268,-0.55155 0.43997,0.41504 0.71782,0.84175 0.87614,1.2731 0.14468,0.44791 0.17274,0.89707 0.13072,1.34203 -0.0877,0.89147 -0.46398,1.76742 -0.78274,2.59429 2.64454,2.77784 10e-4,-4.16633 3.77229,-1.60116 0.90768,1.41278 1.95256,2.27664 3.27072,2.95961 0.65955,0.34129 1.38612,0.63816 2.19754,0.93304 0.7984,0.31553 1.65663,0.65474 2.6145,1.03238 0.0998,-0.84557 7.04752,8.92529 10.91413,9.19922 0.0356,1.08698 -1.40553,0.79835 -1.9495,1.66229 4.61865,1.81994 3.82654,1.66663 8.35584,2.62282 l 0.81861,3.51517 c -0.0765,-3.02634 3.58456,-2.26526 6.78347,-1.42185 0.15688,-1.23828 0.29642,-2.31635 0.26965,-2.94067 l 1.94033,1.19613 c 0.48651,0.30115 0.97433,0.60283 1.3394,0.82914 0.37207,0.2223 0.59629,0.38954 0.59537,0.38993 -0.007,0.68394 -0.94247,0.87833 -2.22286,1.01895 0.36153,0.0836 0.68517,0.17761 0.97069,0.22476 0.21546,1.81511 -1.43122,2.10627 -3.20256,2.15476 0.0657,-0.72172 0.13754,-1.44707 0.2222,-2.17022 -1.88664,0.19234 -3.83677,0.57186 -4.83718,1.70227 0.40105,0.0149 0.94006,0.24738 1.42677,0.5929 -0.50051,0.0659 -0.90183,0.17691 -1.01628,0.43645 -0.11447,0.28016 0.60366,0.24437 1.55464,0.34725 l -1.58668,2.53162 1.01716,-0.53768 1.9293,5.38825 c 2.30571,0.65337 4.88862,0.98537 7.39736,1.79426 2.48393,0.82473 4.99443,2.0537 7.30692,4.32998 -2.63039,-0.10926 -3.01122,1.6547 -5.10871,2.98001 1.18157,-2.88429 -3.67066,-3.30252 -5.06595,-6.21767 0.74069,1.53169 -0.42917,1.92524 -1.00199,1.8241 l 5.20977,3.28212 c -1.73855,1.0488 -0.55328,1.85697 -0.39725,3.54086 1.33172,-1.57861 2.5102,-1.09404 3.61972,-0.022 1.06968,1.09856 2.07941,2.75698 3.22214,3.4225 -1.05919,0.84057 -2.51525,1.10267 -3.75039,-1.46976 -0.88814,4.25996 6.12888,0.90931 5.61402,4.90626 -0.39941,-0.57415 -0.42487,-1.00162 -1.153,-0.87595 0.94241,0.37437 1.74663,1.53558 2.12252,2.57295 0.36929,1.04231 0.25802,1.99138 -0.46845,1.87558 l -0.36199,-0.59094 c 0.92625,2.1338 2.63738,5.18641 4.54106,7.59202 0.47602,0.60164 0.96362,1.1637 1.45328,1.66092 0.46961,0.50888 0.93283,0.95862 1.39979,1.31136 0.92916,0.70964 1.84748,1.05507 2.68262,0.82265 -0.37127,0.2394 -3.92233,1.32903 -4.65583,1.40055 0,0 3.45939,0.51063 6.96628,1.11628 1.69983,0.19193 3.52272,0.63045 4.95754,1.12887 1.43124,0.48474 2.44448,0.93999 2.44448,0.93999 -1.65198,-0.0754 -3.83557,1.01386 -6.17303,1.52997 -2.31013,0.55019 -4.64653,0.69168 -5.86157,0.10966 -0.0734,0.31605 -0.16412,0.63722 -0.0472,0.9699 0.11515,0.33884 0.40522,0.67583 1.20846,1.18888 0.15346,-0.1718 1.1922,-0.46692 2.22843,-0.72412 1.04025,-0.2502 2.09976,-0.40546 2.41254,-0.0325 -1.30172,1.12569 -1.70185,1.3067 -1.96748,1.64272 -0.29147,0.27964 -0.44312,0.72182 -1.7587,1.21778 0.27123,-0.17028 1.82568,0.0784 3.40021,0.61247 1.56649,0.52014 3.20011,1.42749 3.42086,2.10051 -0.95341,-0.43157 -5.71375,-1.57383 -6.45543,-2.04874 0,0 1.63429,0.87019 3.41895,2.07528 0.45046,0.31085 0.90184,0.62132 1.32263,0.91318 0.13016,0.0853 0.17992,0.13921 0.21359,0.18581 l 0.12456,0.14943 c 0.0763,0.0992 0.14906,0.19229 0.21683,0.2788 0.25887,0.34791 0.40215,0.5936 0.40215,0.5936 -0.0959,-0.39897 -1.32603,-0.9161 -2.75377,-1.41315 -1.43142,-0.49551 -3.01861,-0.98744 -3.99467,-1.26633 0.64056,0.20826 0.17234,0.38207 -0.4385,0.55719 -1.12499,0.40444 -1.80976,0.52942 -0.46695,0.78388 0.49344,0.0748 0.98818,0.15017 0.98818,0.15017 -0.81542,0.15798 -0.97387,0.56072 -0.94634,1.15326 0.0344,0.59076 0.27738,1.36072 0.43638,2.18114 13.35852,-10.324 5.17819,-7.75721 7.79814,10.14197 l 1.05869,0.59452 c 0.54686,0.2899 1.09188,0.58058 1.09188,0.58058 0.14668,-0.0898 0.28023,-0.14369 0.42842,-0.24278 2.55593,-0.31608 0.84074,-1.34536 -1.20647,-2.04435 0.69305,-0.63804 1.22102,-1.27401 1.45446,-1.87526 2.01449,0.8277 3.06828,0.0957 4.09233,-0.59348 1.05595,-0.70363 2.06149,-1.35682 4.97615,-0.80295 -0.13349,-0.37995 0.29882,-0.86405 0.95082,-1.40351 0.3258,-0.27019 0.70804,-0.55323 1.10348,-0.84615 0.19607,-0.14522 0.39597,-0.29423 0.59956,-0.44478 0.19121,-0.038 -0.0561,-0.24977 -0.12344,-0.38959 l -0.31172,-0.46346 c -1.6845,-2.48029 -3.55302,-4.828 -5.79595,-5.678 0.51435,0.0704 0.55921,-0.34975 0.9795,0.52473 -0.31118,-1.65563 -0.73422,-3.5441 -2.51731,-5.19235 0,0 0.59486,-0.16408 1.18112,-0.35382 0.58611,-0.18751 1.16269,-0.40031 1.16269,-0.40031 0,0 -1.38828,-1.09278 -2.70062,-2.01245 -1.32024,-0.93589 -2.56454,-1.69867 -2.56454,-1.69867 0.42837,-2.47479 0.6068,-4.10605 3.73553,-1.93929 -1.49198,-1.43535 -2.4106,-2.34463 -3.07509,-3.06452 -0.33128,-0.35764 -0.59572,-0.662 -0.82517,-0.93984 -0.21977,-0.25479 -0.36419,-0.38179 -0.5313,-0.56541 -0.64053,-0.67573 -1.24193,-1.27895 -3.43904,-2.44861 l 1.49745,-0.54845 c -0.71421,-1.29553 -3.63288,-2.39108 -2.94467,-3.76134 0.52073,-2.14372 -1.39695,-5.76577 -3.65624,-9.92766 -1.22734,-2.02691 -2.5472,-4.18634 -3.69686,-6.38469 -0.57475,-1.1003 -1.10861,-2.20908 -1.568,-3.31877 -0.44673,-1.11825 -0.92204,-2.17027 -1.23182,-3.25167 -2.90004,3.98865 -0.55927,-4.43965 -3.71944,-2.65408 0.61841,-1.04053 0.43585,-2.38465 2.01751,-1.80255 -1.71415,-1.47113 -2.25596,-3.10259 -3.01728,-4.38376 -0.75279,-1.2815 -1.60776,-2.29234 -3.74016,-2.55103 0.56639,-1.074 1.85764,-0.24849 2.10099,-0.99923 -0.40606,-0.13536 -1.61748,-0.515 -1.37887,-1.28219 0.24026,-0.75812 1.12499,-0.0613 1.93693,0.19867 -2.9341,-3.46752 -5.85358,-1.68214 -8.52744,0.076 -0.0852,-1.36547 -0.3876,-2.20703 -0.98339,-2.69873 -0.5942,-0.49562 -1.48352,-0.64283 -2.80541,-0.57263 0.29213,-1.2571 0.26597,-2.95973 2.35005,-1.11899 -0.90199,-1.24163 -5.01864,-8.23096 -7.08784,-6.54119 0.1441,-0.78824 -1.35473,-1.6871 -1.84897,-1.77676 -2.28121,-2.5996 -2.3301,-2.9847 -4.85437,-5.26425 l 0.35587,0.97419 c -3.08254,1.19552 -2.47365,-1.48737 -4.71925,-3.09544 l 0.27468,-0.17498 c -1.51231,-2.94845 -2.1953,-3.22675 -2.83307,-3.51103 -0.31801,-0.14521 -0.62956,-0.29314 -1.03283,-0.78866 -0.40987,-0.49058 -0.88484,-1.35838 -1.66204,-2.81943 l -1.0132,1.65529 c -1.58564,1.35877 -2.20746,0.0353 -2.92563,-1.78892 -0.71479,-1.8213 -1.54382,-4.15752 -3.4137,-4.70538 l 0.29064,1.68161 c -1.2015,-0.0693 -1.30549,-2.0787 -1.3974,-4.17562 -0.0667,-2.11944 -0.0204,-4.45549 -0.66198,-5.27068 -0.12934,-0.55088 0.9012,-0.0389 1.55273,0.12571 -2.71485,-5.13327 -2.08121,1.57334 -5.52489,-0.31802 0.23764,-1.5238 2.80761,-2.19393 0.84884,-4.00486 -0.10075,-0.4208 -0.6956,-0.70357 -1.5532,-0.95087 -0.87989,-0.21515 -2.0206,-0.39021 -3.18782,-0.63874 -2.33836,-0.49866 -4.76519,-1.28555 -5.52457,-3.38096 0.0772,1.31787 0.12903,2.61928 -1.78465,2.259 -0.6216,-0.30516 -1.16772,-0.94461 -1.73136,-1.66454 -0.57215,-0.70661 -1.14108,-1.52953 -1.7551,-2.27387 -1.22818,-1.48644 -2.64068,-2.66016 -4.55394,-1.90351 -0.15193,-0.42643 -0.12329,-0.7302 -0.002,-0.96015 -1.12785,-0.17287 -2.73661,-0.81951 -4.37836,-1.1779 -1.63761,-0.36664 -3.23334,-0.57409 -4.21735,-0.097 0.77328,-3.35818 -2.50883,-4.24475 -5.54367,-4.91952 -3.10229,-0.55644 -5.96728,-0.91968 -4.603,-3.65292 l -7.75483,-3.33284 0.33156,-0.5329 c -2.74032,-1.41988 -4.67874,-1.96825 -6.01832,-2.00992 -1.35151,-0.0443 -2.14967,0.40798 -2.85202,0.90242 -1.24863,-0.99523 -0.55897,-1.31841 -0.52002,-1.64928 -1.98795,-1.201081 -3.59734,-2.135953 -4.92636,-2.824122 -0.66517,-0.344352 -1.26225,-0.627272 -1.80602,-0.855568 -0.0651,-0.01821 -0.14506,-0.07684 -0.19271,-0.06117 l -0.0787,0.213061 -0.15115,0.427872 c -0.0974,0.287112 -0.18758,0.578742 -0.27185,0.876587 -0.66191,2.36026 -0.98184,5.28191 -1.16242,9.69272 0,0 -0.40584,-0.3079 -0.81298,-0.61633 -0.41357,-0.29273 -0.82437,-0.58662 -0.82437,-0.58662 24.84222,25.24388 16.3088,1.58334 11.79978,22.17617 0.48031,-0.56607 0.7078,-1.321 0.82001,-2.18261 0.0268,-0.21515 0.0492,-0.43821 0.0628,-0.6641 l 0.0105,-0.17141 c -0.003,-0.0423 -0.0247,-0.0406 -0.0366,-0.0638 l -0.0856,-0.1083 c -0.11825,-0.14991 -0.24618,-0.32287 -0.36454,-0.51178 -0.48681,-0.72292 -0.75717,-1.87834 -0.0894,-1.90492 -0.20443,-0.30353 -0.37409,-0.65853 -0.42955,-1.11354 0.35781,-0.40835 0.92299,-0.28665 1.24753,-0.4023 0.0828,-0.0326 0.15322,-0.0871 0.20682,-0.17902 0.0314,-0.0338 0.0377,-0.12972 0.0778,-0.14545 0.0513,0.011 0.0979,0.011 0.14222,-0.002 0.17779,-0.0519 0.295,-0.31257 0.44072,-0.8412 0,0 0.40751,0.95252 0.70389,1.85733 0.30724,0.91002 0.50334,1.77234 0.50334,1.77234 0.17525,-0.27748 0.0137,-1.32351 -0.29029,-2.49192 -0.26659,-1.15159 -0.67881,-2.42532 0.41267,-2.53543 0.80861,-0.1432 0.94326,0.5779 0.8622,1.4362 -0.0723,0.86113 -0.22049,1.92115 -0.11542,2.39871 0.2845,-0.66824 0.9058,-1.54946 1.6846,-1.8515 0.43389,-0.46741 2.40014,0.33065 3.34193,2.06749 -1.26559,-0.0153 -1.87227,-0.7757 -2.9064,-1.05082 z m 33.87805,18.55931 c -0.85688,-0.0958 -2.79847,0.0871 -2.59745,-1.1545 1.96609,-1.33088 1.91578,-0.0842 2.59745,1.1545 z m 45.98181,37.5201 c -0.85077,-0.0528 -1.14032,-0.93876 -1.18154,-2.18388 0.56496,0.46993 1.013,1.16249 1.18154,2.18388 z"
   id="path3538"
   sodipodi:nodetypes="cccccsccccccccccccccccccccccccccccccccccccccccccccccccccccccccccccccccccccsccccccccccccccccccccccccccccccccccccccccscccccccccccccccccccccccccccccccccccccccccccccccccccccccccccccccccccsccccccccccccccccccccccccccccccccccccc" /><path
   d="m 516.84794,227.68844 c -1.50178,-0.42801 1.27933,2.18946 -0.45575,1.59586 0.11186,0.99747 1.47318,0.46062 1.61915,1.30169 0.33601,-1.24299 1.0104,-0.90251 -1.1634,-2.89755 z"
   id="path3572" /><path
   d="m 518.01134,230.58599 c -0.0607,0.19901 -0.11706,0.43417 -0.16699,0.74146 0.16353,-0.34414 0.1817,-0.56435 0.16699,-0.74146 z"
   id="path3574" /><path
   d="m 265.92032,104.84677 -0.94868,0.68788 c 0.467,-0.25681 0.75317,-0.47674 0.94868,-0.68788 z"
   id="path3674" /><path
   d="m 273.63505,103.12177 0.0203,-0.80675 c -0.26517,0.50503 -0.34178,0.84954 -0.0203,0.80675 z"
   id="path3676" /><path
   d="m 412.27272,121.17116 c 2.44245,-2.10786 6.17446,-5.2593 4.14278,-4.9681 0,0 -0.54134,0.18824 -1.08452,0.37725 -0.53691,0.17553 -1.07474,0.35145 -1.07474,0.35145 -0.3915,1.80315 -1.15699,3.18308 -1.98352,4.2394 z"
   id="path3678" /><path
   d="m 338.62759,89.725609 c 0.14257,0.181999 0.28955,0.371909 0.43575,0.559975 0.45824,-0.564398 0.88642,-1.094484 1.27206,-1.570916 -0.51318,0.304392 -1.09625,0.648974 -1.70781,1.010941 z"
   id="path3680" /><path
   d="M 336.85806,96.796971 334.837,95.527368 c 0.44699,0.424021 1.09661,0.847569 2.02106,1.269603 z"
   id="path3682" /><path
   d="m 244.94585,115.85351 c 0,0 0.52313,0.10682 1.03132,0.17544 0.50882,0.0727 1.00283,0.10497 1.00283,0.10497 -0.12908,-0.28419 -1.06752,-0.21772 -2.03415,-0.28041 z"
   id="path3684" /><path
   d="m 264.5781,86.238491 c -0.62972,0.473709 -0.84222,0.887209 -0.72914,1.257289 0.64945,-0.460301 0.98108,-0.879355 0.72914,-1.257289 z"
   id="path3688" /><path
   d="m 390.47961,108.73065 c 0.0301,-0.008 0.064,-0.0464 0.0939,-0.0579 -0.0149,-0.0252 -0.0335,-0.0564 -0.0472,-0.0789 z"
   id="path3710" /><path
   d="m 387.52911,109.11696 c 0.54164,-0.38901 0.99932,-0.64733 1.39375,-0.80317 0.1974,-0.0774 0.37926,-0.12995 0.54887,-0.15995 0.18809,-0.0247 0.21696,-0.0748 0.32033,-0.0792 0.33935,-0.0416 0.54767,0.2169 0.7361,0.51847 0,0 0.41434,-1.18044 0.72258,-2.39659 0.32018,-1.21356 0.53095,-2.46037 0.53095,-2.46037 0,0 -0.27664,0.33306 -0.65517,0.84447 -0.18901,0.25505 -0.4025,0.5551 -0.62039,0.88084 -0.23806,0.31903 -0.5274,0.64766 -0.79788,0.98248 -1.08845,1.33657 -2.17914,2.67299 -2.17914,2.67299 z"
   id="path3712" /><path
   d="m 247.95101,110.85981 2.94213,0.63995 c -2.66121,2.48474 -1.18192,5.01883 -1.63405,3.70006 -0.004,-0.27722 0.0353,-0.53325 0.11007,-0.76853 0.14949,-0.47057 0.4422,-0.86351 0.82997,-1.2031 0.77647,-0.67957 1.93166,-1.1494 3.08724,-1.6183 0.57714,-0.23472 1.15558,-0.46891 1.68657,-0.73089 0.53804,-0.23999 1.0338,-0.49803 1.43378,-0.81889 0.80058,-0.63763 1.23823,-1.50682 0.93471,-2.83162 l 1.95862,0.62231 c -0.48254,0.0855 -0.46788,0.41227 -0.94397,0.49502 3.88546,1.58225 1.26331,-4.45651 5.62331,-4.91618 1.55726,0.01 2.76986,0.56803 1.94054,1.4162 l 2.90478,-2.07095 c 0.96906,-0.12271 0.95715,0.84863 -0.002,0.97247 l 4.83246,-1.59726 -0.003,0.16385 c 0.51472,-1.01109 1.8473,-2.670326 2.53849,-3.341202 1.43489,0.52442 -0.52516,0.681426 -0.0601,1.285472 l 2.52335,-1.80669 c 1.39649,1.171757 -0.64034,2.94121 -2.57816,3.09431 3.63552,4.84108 2.03575,-1.766835 8.15295,0.31328 l -2.45962,1.16283 c 1.107,1.36054 2.0987,1.67408 3.22009,1.81604 0.55819,0.0715 1.14927,0.0999 1.80053,0.19412 0.65076,0.10855 1.36495,0.32169 2.15543,0.69586 -0.4138,-0.43796 -2.04873,-1.48792 -3.24742,-2.50629 -1.19778,-1.05237 -1.97696,-2.22626 -0.59015,-3.1751 0.90846,0.22377 2.04662,0.28168 3.51534,-1.01715 0.29986,1.90766 1.80549,1.22888 3.77017,0.853014 l 0.19816,2.556626 c 2.0184,-1.01771 1.69519,-2.28868 2.82209,-3.603433 0.60441,-0.01733 1.1017,0.08732 1.52007,0.280418 0.41835,0.213713 0.75677,0.510874 1.04087,0.856874 0.56818,0.692001 0.92128,1.579511 1.28101,2.387231 3.83435,0.094 -2.94346,-2.947342 1.53617,-3.798873 1.64097,0.356553 2.99048,0.228125 4.40511,-0.220481 0.7064,-0.223916 1.4298,-0.528724 2.21366,-0.89362 0.78723,-0.341366 1.63401,-0.708817 2.57998,-1.118998 2.29206,0.81202 -0.32588,1.57712 0.5135,2.282155 l 1.91385,-2.098504 c 0.49033,0.03383 0.35119,0.665974 0.28306,0.98416 1.65902,-0.842963 0.0557,-2.559084 2.71665,-3.337916 0.33604,-1.405685 1.74159,-0.465492 3.43721,0.52753 1.70146,1.019853 3.67427,1.996278 5.35873,0.431167 0.79194,0.744472 -0.42962,1.55994 -0.20377,2.555101 4.55296,-1.978812 3.8848,-1.526922 7.76465,-4.054988 l 3.06342,1.907857 c -2.19336,-2.085524 0.93332,-4.136853 3.79059,-5.801759 -0.76376,-0.987318 -1.42878,-1.84798 -1.88801,-2.270121 0,0 1.10968,-0.263086 2.21843,-0.525785 0.55773,-0.131128 1.11506,-0.263178 1.53441,-0.362238 0.41979,-0.105754 0.69584,-0.145733 0.69584,-0.145733 0.47856,0.488858 -0.0459,1.288206 -0.85248,2.293858 0.31424,-0.197007 0.60996,-0.35804 0.84573,-0.527525 1.43592,1.131342 0.47616,2.500641 -0.74035,3.787944 -0.46428,-0.55559 -0.92665,-1.119569 -1.37782,-1.690425 -1.19817,1.470484 -2.30795,3.115345 -2.21655,4.624641 0.29472,-0.274492 0.84006,-0.489356 1.42802,-0.589797 -0.30707,0.400065 -0.51262,0.762931 -0.40913,1.027498 0.1169,0.278453 0.59854,-0.25347 1.3433,-0.853568 l 0.66759,2.912663 0.33941,-1.098001 5.17419,2.445674 c 2.09161,-1.168828 4.15153,-2.759264 6.49721,-3.961012 2.33929,-1.173038 4.98269,-2.078977 8.22886,-2.104623 -1.93686,1.782795 -0.95944,3.29969 -1.50611,5.720027 -1.20388,-2.875132 -4.93131,0.261369 -7.97855,-0.814913 1.60691,0.559569 1.05683,1.66468 0.58111,1.998894 l 6.00333,-1.36328 c -0.4882,1.970641 0.92101,1.705433 2.22364,2.785371 -0.17466,-2.058922 1.00155,-2.548421 2.54425,-2.575757 1.53315,0.02223 3.42009,0.481577 4.69787,0.143573 -0.15436,1.342424 -0.99822,2.558944 -3.69056,1.612394 2.38579,3.63916 4.97739,-3.690582 7.43966,-0.502169 -0.68833,-0.123134 -1.0078,-0.408731 -1.43324,0.19504 0.93106,-0.401756 2.31937,-0.148442 3.32018,0.318539 0.99799,0.47576 1.58964,1.22623 0.9945,1.65831 l -0.67559,-0.15994 c 2.16386,0.85283 5.53229,1.80293 8.57934,2.15806 0.76186,0.089 1.50377,0.14085 2.20271,0.14457 0.69246,0.027 1.33805,0.0174 1.91784,-0.0612 1.15997,-0.15622 2.0518,-0.56103 2.48006,-1.31565 -0.0931,0.43171 -1.8344,3.71368 -2.30186,4.28195 0,0 2.80759,-2.08547 5.71472,-4.1379 1.33804,-1.06501 2.93663,-2.0442 4.3036,-2.70706 1.35481,-0.668596 2.39259,-1.06418 2.39259,-1.06418 -1.22167,1.11485 -1.99486,3.42965 -3.2844,5.44715 -1.24506,2.02269 -2.79578,3.7746 -4.06795,4.22412 0.17183,0.27492 0.33538,0.56633 0.65111,0.71901 0.3212,0.15798 0.76505,0.18962 1.69558,-0.0145 -0.0121,-0.23027 0.51343,-1.17432 1.06381,-2.08758 0.55784,-0.91098 1.19789,-1.77079 1.6837,-1.72965 -0.12443,1.71596 -0.279,2.12792 -0.22923,2.55386 -0.008,0.40372 0.19692,0.82293 -0.3823,2.10405 0.0723,-0.31343 1.34758,-1.23605 2.8372,-1.97101 1.47615,-0.74124 3.27207,-1.25557 3.90472,-0.93443 -0.97955,0.36896 -5.15416,2.92859 -6.01366,3.11592 0,0 1.7717,-0.54103 3.88514,-0.95007 0.53804,-0.0979 1.0757,-0.19676 1.58114,-0.28967 0.15176,-0.0312 0.22462,-0.0281 0.28141,-0.0195 l 0.1942,0.0182 c 0.12397,0.0163 0.24086,0.0312 0.35028,0.0438 0.42917,0.0638 0.70413,0.13493 0.70413,0.13493 -0.34927,-0.21451 -1.58521,0.2903 -2.94598,0.9473 -1.3629,0.66224 -2.83326,1.43792 -3.72154,1.93125 0.60063,-0.30532 0.39217,0.14878 0.0842,0.70431 -0.30902,0.55815 -0.70203,1.17976 -0.5567,1.41483 0,0 0.39051,-0.26591 0.7801,-0.53143 0.40097,-0.29524 0.80471,-0.59164 0.80471,-0.59164 -0.46361,0.68595 -0.2906,1.0851 0.14817,1.48437 11.39789,-3.02954 10.02638,-6.61985 14.89215,6.44773 -10.85836,-17.73745 -0.67051,-1.62621 -0.36639,-3.54887 0,0 0.58594,-0.16466 1.16873,-0.32909 0.59144,-0.17999 1.18157,-0.36051 1.18157,-0.36051 0.0412,-0.16804 0.0979,-0.30142 0.13194,-0.47621 1.58388,-2.02938 -0.3552,-1.54604 -2.29946,-0.592 0.0377,-0.94095 -0.0391,-1.76444 -0.29616,-2.35605 2.00973,-0.83945 2.23677,-2.10176 2.47341,-3.31279 0.25002,-1.24376 0.49976,-2.41583 2.95186,-4.08741 -0.36402,-0.1747 -0.39954,-0.82245 -0.31913,-1.66421 0.0391,-0.42096 0.10927,-0.89184 0.1818,-1.37781 0.0357,-0.24056 0.0727,-0.4882 0.10931,-0.73676 0.10941,-0.16307 -0.21591,-0.13711 -0.36128,-0.18887 l -0.54914,-0.10674 c -2.94454,-0.56302 -5.92592,-0.90125 -8.11242,0.0829 0.41346,-0.31459 0.14841,-0.64364 1.06244,-0.32135 -1.39196,-0.94915 -3.02501,-1.986881 -5.45115,-1.891227 0,0 0.30455,-0.537827 0.58422,-1.085818 0.28228,-0.546921 0.53878,-1.103618 0.53878,-1.103618 0,0 -1.75506,0.208681 -3.3327,0.486036 -1.59611,0.272097 -3.01481,0.612867 -3.01481,0.612867 -1.44657,-2.053086 -2.4742,-3.333074 1.2712,-4.014076 -2.0712,0.04208 -3.36334,0.04881 -4.34184,0.0095 -0.48636,-0.01922 -0.88967,-0.04728 -1.24829,-0.08 -0.33638,-0.02363 -0.52712,-0.01296 -0.77507,-0.0249 -0.93069,-0.02355 -1.78262,-0.02486 -4.16258,0.699979 l 0.6717,-1.445749 c -1.41997,-0.411383 -4.25988,0.876397 -4.74113,-0.579842 -1.14857,-1.883201 -5.06517,-3.090126 -9.60606,-4.432975 -2.30069,-0.566535 -4.76047,-1.160638 -7.12895,-1.901528 -1.18377,-0.370638 -2.34535,-0.778798 -3.45467,-1.238177 -1.10606,-0.47485 -2.1874,-0.883074 -3.17096,-1.427794 0.76998,4.871777 -3.53376,-2.743969 -4.50636,0.754296 -0.29925,-1.172578 -1.3778,-1.995196 0.15245,-2.700577 -2.25285,0.172569 -3.79056,-0.599342 -5.23318,-0.96651 -1.43955,-0.372791 -2.75747,-0.484295 -4.44843,0.840601 -0.36014,-1.160028 1.13751,-1.488397 0.77806,-2.192117 -0.38432,0.192812 -1.50689,0.779088 -1.88336,0.06841 -0.36599,-0.706395 0.75296,-0.83889 1.50983,-1.229328 -4.52688,-0.37696 -5.33041,2.950538 -5.97622,6.082762 -1.02554,-0.905608 -1.83342,-1.28765 -2.60438,-1.212329 -0.77012,0.06955 -1.50316,0.594231 -2.38811,1.578557 -0.6822,-1.095309 -1.90527,-2.280228 0.87058,-2.452216 -1.51511,-0.240201 -9.36926,-2.269993 -9.63706,0.385742 -0.45656,-0.658611 -2.15096,-0.235708 -2.56303,0.05118 -3.45231,-0.225103 -3.75796,-0.462275 -7.15543,-0.29068 l 0.94011,0.436069 c -1.33334,3.023933 -2.80035,0.69744 -5.52575,1.149753 l 0.0709,-0.319348 c -3.15523,-1.015757 -3.83453,-0.7273 -4.48647,-0.479608 -0.32775,0.123504 -0.65175,0.237844 -1.28892,0.174571 -0.63631,-0.05604 -1.58507,-0.334473 -3.16785,-0.818492 l 0.45312,1.887779 c -0.16127,2.082829 -1.53478,1.585782 -3.3336,0.804194 -1.79382,-0.782602 -4.0324,-1.846999 -5.74042,-0.914057 l 1.3946,0.983838 c -0.90014,0.800905 -2.39395,-0.54582 -3.94173,-1.964245 -1.54556,-1.451892 -3.1649,-3.136355 -4.19477,-3.259255 -0.4805,-0.29716 0.61089,-0.663197 1.18635,-1.007836 -5.54912,-1.71127 -0.35854,2.58429 -4.13143,3.680291 -0.90853,-1.244311 0.43596,-3.536503 -2.23107,-3.430811 -0.36862,-0.227001 -0.99018,-0.0051 -1.77085,0.426802 -0.77466,0.469487 -1.7065,1.153554 -2.70597,1.803112 -2.00671,1.301291 -4.27788,2.460913 -6.29715,1.515922 0.98424,0.879566 1.94286,1.760125 0.33406,2.859644 -0.65386,0.222465 -1.4935,0.157434 -2.40003,0.04674 -0.90442,-0.09532 -1.88844,-0.274343 -2.84777,-0.366128 -1.91866,-0.183568 -3.74921,-0.0126 -4.56663,1.873925 -0.40891,-0.193815 -0.60493,-0.428207 -0.68069,-0.678388 -0.91917,0.675495 -2.51541,1.35544 -3.92819,2.263119 -1.41626,0.899381 -2.69222,1.879767 -3.05019,2.912895 -1.82831,-2.920977 -4.77442,-1.227446 -7.39745,0.439978 -2.58736,1.798867 -4.8708,3.56991 -5.84012,0.67222 l -7.83855,3.127261 -0.14335,-0.610076 c -2.94048,0.931975 -4.6989,1.915361 -5.67634,2.834399 -0.98772,0.925523 -1.23179,1.808883 -1.38026,2.656443 -1.58583,0.17776 -1.32685,-0.53833 -1.53356,-0.80077 -2.2578,0.55859 -4.05621,1.036 -5.48322,1.48872 -0.71377,0.22701 -1.33479,0.44762 -1.8798,0.67102 -0.0591,0.0324 -0.15595,0.047 -0.18006,0.093 l 0.0943,0.20659 c 0.0657,0.13836 0.13152,0.27449 0.19512,0.41047 0.13573,0.27164 0.277,0.54095 0.42889,0.8123 1.20026,2.13807 3.03979,4.42963 6.0316,7.67553 0,0 -0.50382,0.0684 -1.00909,0.13843 -0.49947,0.0839 -0.99762,0.16832 -0.99762,0.16832 25.71888,-7.87516 28.05448,-15.552169 19.19059,2.66152 -0.0358,-0.54244 0.45015,-0.85492 0.59807,-1.16647 0.035,-0.0819 0.0465,-0.16813 0.0193,-0.27167 -0.002,-0.0458 -0.0661,-0.11867 -0.0478,-0.15779 0.0458,-0.0279 0.0794,-0.0615 0.10042,-0.10182 0.0901,-0.16255 -0.0142,-0.42896 -0.28231,-0.90746 0,0 0.95951,0.3867 1.8113,0.81647 0.86008,0.42629 1.6102,0.89549 1.6102,0.89549 -0.073,-0.31857 -0.92557,-0.9465 -1.968,-1.55652 -1.00331,-0.62536 -2.19504,-1.23451 -1.49912,-2.08525 0.46849,-0.67173 1.0763,-0.25992 1.62618,0.40398 0.55726,0.6608 1.20158,1.51605 1.61483,1.77963 -0.27129,-0.67458 -0.45517,-1.73508 -0.11993,-2.49946 -0.0227,-0.63794 1.93281,-1.4644 3.82595,-0.90245 -0.89258,0.86281 -1.85927,0.75351 -2.78582,1.29002 z m 37.07901,-10.8314 c -0.67432,0.53798 -1.91817,2.04174 -2.65371,1.02089 0.44991,-2.333078 1.29533,-1.414751 2.65371,-1.02089 z m 59.04483,-5.98486 c -0.63931,0.564505 -1.46962,0.141985 -2.38015,-0.706704 0.73243,-0.06891 1.53936,0.104212 2.38015,0.706704 z"
   id="path3714"
   sodipodi:nodetypes="cccscccccccccccccccccccccccccccccscccccccccccccccccccccccccccccccccccccccccccccccccccccccccccccccccccccccccccccccccccccccccccccccccccccccccccccccccccccccccccccccccccccccccccccccsccccccccccccccccccccccccccccccccccccccccc" /><path
   d="m 337.08077,95.978979 c -0.18539,-0.340806 -0.21568,-0.702264 -0.23582,-1.06798 -0.3238,0.300802 -0.35887,0.674514 0.23582,1.06798 z"
   id="path3716" /><path
   d="m 244.55647,115.7708 c -0.0132,0.01 -5.6e-4,0.0219 -0.0101,0.0303 0.13546,0.0255 0.2702,0.0416 0.4013,0.0517 z"
   id="path3718" /><path
   d="m 392.07517,115.74704 c -1.3644,0.7594 2.45245,0.64382 0.80563,1.45129 0.78455,0.6261 1.36738,-0.71617 2.06586,-0.2253 -0.64187,-1.11549 0.0762,-1.35298 -2.87149,-1.22599 z"
   id="path3748" /><path
   d="m 394.94666,116.97303 c 0.0995,0.18274 0.22468,0.39047 0.40559,0.64314 -0.12812,-0.35943 -0.26935,-0.52789 -0.40559,-0.64314 z"
   id="path3750" /><path
   d="m 291.43225,104.38899 0.0697,-0.63988 c -0.40347,-0.62776 -0.88128,-0.61369 -1.84092,-0.59255 z"
   id="path3756" /><polygon
   points="348.912,98.639 349.024,100.962 349.492,101.069 "
   id="polygon3758"
   transform="rotate(-22.775188,323.95912,315.36604)" /><path
   d="m 249.17115,115.76275 c 0.0843,0.0742 -0.23885,-0.37258 -0.10654,-0.31317 0.0784,0.19702 -0.36705,-0.33178 -0.67987,-0.5757 -0.30175,-0.24857 -0.35331,-0.25512 0.78641,0.88887 z"
   id="path3760" /><path
   d="m 536.55484,401.70864 c 0,0 0.29572,-0.41595 0.59238,-0.83158 0.27884,-0.42222 0.55863,-0.84411 0.55863,-0.84411 -1.3962,0.0873 -3.42944,-1.50201 -6.78303,-3.43993 -0.83096,-0.48225 -1.73662,-0.98165 -2.69998,-1.46943 -0.48102,-0.24419 -0.97738,-0.48448 -1.48694,-0.71794 -0.40725,-0.18151 -0.81921,-0.36477 -1.2321,-0.54837 -1.38713,-0.5762 -2.87549,-0.95216 -4.42667,-0.91293 0.13102,-0.19129 0.37682,-0.51061 0.90282,-0.61354 -6.88375,-0.0799 -12.61336,-10.56505 -17.35737,-4.62714 l -4.62611,0.17589 c 4.98601,2.45714 -1.86572,2.64953 -0.15242,4.56791 -2.18627,-0.36156 -4.50968,-4.00309 -1.87521,-3.41813 l 0.26575,0.48417 c 2.23304,-3.1861 -5.97464,-3.64794 -4.94165,-5.99823 -10.26301,-3.62263 -19.47658,-9.2757 -28.97468,-12.98383 l 0.0815,3.1515 -3.27578,-1.39889 c -0.6364,-0.96469 -0.37499,-2.58106 1.95977,-1.58374 -0.672,-2.01833 -4.4713,-0.18261 -4.76104,0.38925 -4.24102,-2.84455 3.00861,-2.52066 1.60573,-3.11767 l -2.01316,-0.51692 0.31705,0.48404 c -1.98857,0.53475 -2.56935,1.6705 -5.37579,0.46981 -1.60399,-1.22037 -0.29774,-2.03478 -0.97019,-2.40679 0.0765,-0.19128 -0.1301,-0.37281 -1.06283,-0.48427 l -4.11063,-1.79617 0.87244,2.78975 c -2.25638,0.37423 -3.90507,-1.58304 -2.88203,1.59035 -1.4351,-4.84098 -15.15424,-7.18839 -16.46295,-9.01267 -3.19415,0.60874 -5.75395,-0.37739 -8.87225,-1.75501 0.62499,0.74595 0.19302,3.35631 -2.44466,2.0349 2.87414,-4.64722 -4.22185,-4.05387 -5.09748,-8.49446 1.09236,3.13625 -8.0345,-2.31702 -6.18597,2.24466 -2.14273,-1.26088 0.55995,-1.93098 -0.74001,-3.76162 -6.18327,-0.087 -11.55953,-5.7433 -18.55069,-7.59823 -0.35084,0.61846 0.40358,2.04857 -1.4087,2.49103 l -2.33556,-4.62349 c -1.45301,-0.17284 -2.64592,3.34927 -4.22635,0.15398 0.13703,0.68379 0.34005,1.70907 -0.63286,1.588 -12.02115,-8.13468 -27.98978,-7.42377 -39.16605,-18.46105 1.34214,1.95518 0.0819,1.63205 -1.32335,1.16124 0.78931,0.64282 -0.62611,1.62144 -0.7815,2.58049 l -4.69558,-4.57277 c -1.94848,2.09799 -6.08929,-2.07615 -7.55907,0.0773 l 1.93877,0.23526 c -3.40783,1.91639 0.99611,7.45297 -0.68769,10.91504 3.83521,-2.19583 5.23432,7.31295 11.27812,4.37833 0.6862,1.08886 -1.25,0.85242 -1.04628,1.87582 1.67537,-1.12941 3.12733,-0.95376 5.33583,0.65493 l -0.42129,0.27745 c 7.06958,2.20319 9.47452,4.82615 16.88261,8.73676 l 0.0862,-1.99107 c 1.58455,0.85991 1.72931,1.54869 2.34771,2.28368 2.92139,-1.97691 -4.64364,-1.9007 -1.78765,-4.21783 0.87316,4.43862 11.77629,4.44749 11.74746,9.11049 2.56668,0.9791 0.01,-2.3364 2.57359,-1.35519 l 0.26938,1.36584 1.1813,-1.18959 c 1.60082,0.86491 1.93373,2.57025 1.64619,3.53453 -0.36897,-0.26433 -1.26162,-0.17096 -1.73058,-0.25272 1.70022,2.12264 6.33442,1.85051 6.92726,2.55674 l -2.21749,-1.60457 c 7.40904,1.57515 15.44293,6.22667 23.06917,6.49338 l -0.20281,-1.03159 c 5.75828,0.38005 3.80708,2.46531 9.76276,3.86854 l -0.28238,0.12216 c 1.45047,-0.41071 3.12754,-0.26648 4.64729,0.40924 -1.80105,0.44666 1.99456,2.91409 -0.29503,3.29729 6.23755,0.42833 3.26727,-0.27209 8.13785,-2.00452 l 0.33759,1.70708 c 1.73305,-0.78568 2.08599,-1.40975 5.05919,-0.71146 -2.77264,0.325 1.02705,2.79288 -2.17295,3.39733 4.83061,5.25901 9.99599,0.22701 11.07532,5.69106 4.17067,-2.82747 -4.36382,-4.05657 -2.52394,-4.30949 -0.81531,-1.73662 3.33122,-2.03453 5.0577,-0.95104 1.87125,0.79487 1.4066,6.12685 6.2236,7.83709 -0.47072,-0.19448 -0.61134,0.0829 -1.08019,-0.11083 1.42711,1.64962 4.00687,-0.0202 5.61414,2.39222 2.09802,-1.86623 2.8056,1.19717 4.26606,-1.63632 l -4.64938,-0.95103 c 2.77952,0.15241 6.40858,-2.44988 9.8863,0.76245 -0.54312,0.47858 -2.05825,0.81078 -3.05936,0.93744 0.87425,1.3232 2.52699,0.28033 3.43657,1.64337 -1.46126,2.83854 -5.58125,-1.34279 -9.09419,-0.0727 0.82174,1.73368 5.85052,-0.27168 3.3116,2.44624 3.4517,-3.37261 4.52853,2.27293 8.93521,0.35923 l -0.87651,1.69788 c 0.61719,-0.0872 1.99537,-0.5301 2.92177,-0.13474 l -2.56902,1.66955 c 3.35923,-0.98906 4.42317,3.60489 7.34165,3.47291 -5.29583,-1.90878 -0.38658,-2.58431 -2.1334,-4.71363 7.39102,0.0415 2.00967,6.0462 9.61166,7.90554 -1.08068,-0.11533 -3.30527,-2.44599 -1.45531,-2.6973 1.24961,0.88248 2.82739,2.24779 3.33115,3.49709 4.96286,1.42736 -0.0605,-2.10439 2.40087,-2.43322 0.83672,2.77964 2.69688,-10e-4 5.07117,0.0933 l -0.65749,1.81464 c 5.06818,3.208 2.8625,-3.22596 7.2915,0.0194 l -3.02578,1.72997 2.82295,0.31371 -1.29819,1.85887 c 3.37705,-0.48092 4.10452,0.23916 6.64107,1.84088 -0.16647,-1.51318 1.58177,-3.14792 4.03684,-2.29894 1.26042,1.6932 -1.57026,1.37449 1.97792,2.39997 -1.20027,0.84212 -2.58298,1.94496 -3.46543,-0.28189 -0.37316,0.53227 -1.19138,0.84972 -1.56607,1.37178 1.32785,1.90185 4.39083,1.95492 5.64786,2.40479 -0.45692,-0.24587 -0.99571,-0.55851 -1.19399,-0.92583 l 5.93801,-0.64142 c 0.5361,0.97323 -0.29205,1.28592 -1.11004,1.58853 1.08658,0.1826 2.09835,-0.38826 3.64692,0.0122 -0.93321,1.32569 -1.40567,2.87843 -3.7733,2.78333 l 5.37594,0.1459 c 0.0815,0.75812 1.79467,2.66573 0.97319,2.9777 0.58137,0.46189 1.3432,0.66551 2.20729,0.74926 0.21634,0.0208 0.43956,0.0346 0.66771,0.0438 l 0.17195,0.006 c 0.0423,-0.004 0.0386,-0.0262 0.0624,-0.0387 l 0.10504,-0.09 c 0.14599,-0.12278 0.31517,-0.25613 0.50109,-0.38004 0.70713,-0.50927 1.85307,-0.8157 1.90052,-0.1492 0.29728,-0.21368 0.64713,-0.39397 1.09981,-0.46338 0.41995,0.34519 0.31417,0.91301 0.44098,1.23444 0.0357,0.0816 0.0905,0.14994 0.1839,0.1997 0.0353,0.0314 0.13233,0.0343 0.14742,0.0741 -0.01,0.051 -0.008,0.0981 0.007,0.14232 0.0563,0.17568 0.32113,0.28387 0.85478,0.41535 -4.30114,3.9777 18.09226,-11.71097 12.29542,-12.55865 z m -85.28073,-35.16829 0.48168,0.71821 c -1.68056,-0.0345 -1.08931,-0.35008 -0.48168,-0.71821 z"
   id="path3362-4"
   sodipodi:nodetypes="cccccccccccccccccccccccccccccccccccccccccccccccccccccccccccccccccccccccccccccccccccccccccccccccccccccccccccccccccccccccccccccccccccc" /><path
   d="m 305.89331,92.404835 c 0.704,0.10286 1.75826,-1.16061 2.83394,0.41026 l -3.44626,3.98573 c 0.37154,1.45868 4.0858,1.27265 1.69175,3.994885 0.58604,-0.38963 1.46564,-0.971495 1.70945,0.007 -3.16463,14.60002 3.34754,29.64537 -2.82739,44.53124 1.32747,-2.02542 1.48855,-0.69484 1.56534,0.83057 0.30894,-0.99968 1.7381,-0.0119 2.68739,-0.22499 l -2.53439,6.22981 c 2.666,1.07633 0.29923,6.62358 2.84147,7.2199 l -0.49144,-1.9481 c 3.03171,2.54441 6.56975,-3.76967 10.408,-3.46227 -3.44831,-2.84874 4.88663,-7.7812 -0.0583,-12.46898 0.76173,-1.06924 1.25112,0.87685 2.12872,0.29503 -1.6647,-1.18018 -2.03325,-2.63893 -1.34559,-5.36434 l 0.41252,0.29924 c -0.54022,-7.61165 1.01921,-10.90846 1.94366,-19.48948 l -1.88421,0.6692 c 0.21956,-1.84429 0.80741,-2.24322 1.26472,-3.1138 -2.9098,-2.05507 -0.0672,5.17096 -3.26957,3.30709 3.81005,-2.51347 -0.17645,-12.97285 4.17286,-14.70605 -0.0294,-2.83116 -2.1776,0.87268 -2.20388,-1.95631 l 1.17216,-0.7741 -1.53969,-0.683645 c 0.21826,-1.86179 1.68303,-2.82501 2.68561,-2.9134 -0.11076,0.45365 0.30317,1.27444 0.39892,1.75504 1.3521,-2.43204 -0.59902,-6.77345 -0.15911,-7.60866 l -0.68053,2.73247 c -4.10305,-8.7718 -0.74937,-12.6592 -17.47615,-1.55334 z"
   id="path3362-4-8"
   sodipodi:nodetypes="ccccccccccccccccccccccccccccc"
   style="stroke-width:1.01522" /><path
   d="m 432.18154,120.53411 c 0.5327,0.47161 2.10677,-0.008 2.14644,1.89533 l -5.06635,1.4474 c -0.48802,1.42395 2.72155,3.3025 -0.77243,4.26901 0.70373,-0.005 1.75835,-0.0101 1.42645,0.94208 -10.64391,10.4825 -13.43523,26.63736 -26.75438,35.71034 2.21995,-0.96763 1.62601,0.23389 0.85483,1.55225 0.80596,-0.66726 1.46079,0.94195 2.37174,1.28357 l -5.53244,3.82439 c 1.64114,2.36067 -3.3772,5.70576 -1.57671,7.59703 l 0.65573,-1.89912 c 1.1427,3.78941 7.5614,0.44405 10.60448,2.80339 -1.32498,-4.27209 8.35016,-3.8342 6.78017,-10.46462 1.22296,-0.4774 0.56654,1.41889 1.61951,1.4127 -0.74648,-1.89917 -0.25591,-3.32153 1.81208,-5.22522 l 0.18126,0.47631 c 3.71673,-6.66447 6.8271,-8.56882 12.30019,-15.24216 l -1.943,-0.47203 c 1.19379,-1.42285 1.90413,-1.43465 2.76353,-1.91264 -1.30909,-3.31308 -2.88825,4.28969 -4.54679,0.97663 4.5644,-0.0163 6.95732,-10.95089 11.54556,-10.01904 1.52595,-2.38491 -2.29992,-0.46243 -0.77253,-2.84384 l 1.4047,-0.006 -0.91382,-1.41524 c 1.20227,-1.43824 2.95535,-1.44193 3.84262,-0.96678 -0.34113,0.31889 -0.44431,1.23234 -0.62742,1.6869 2.46327,-1.29436 3.20847,-5.99535 4.03395,-6.45322 l -2.06589,1.91352 c 1.37112,-9.58644 6.30615,-11.00223 -13.7714,-10.87096 z"
   id="path3362-4-8-1"
   sodipodi:nodetypes="ccccccccccccccccccccccccccccc"
   style="stroke-width:1.01522" /><path
   d="m 509.25613,190.45962 c 0.29546,0.64723 1.92875,0.84762 1.1925,2.60335 l -5.21777,-0.73334 c -1.02394,1.10334 1.14701,4.12282 -2.43853,3.58812 0.6452,0.281 1.61114,0.70436 0.92133,1.43993 -13.98222,5.26052 -23.08979,18.89221 -38.94496,21.77877 2.42162,0.0166 1.39115,0.87368 0.15128,1.76559 1.0074,-0.28273 0.95278,1.45375 1.64669,2.13569 l -6.60845,1.2499 c 0.54182,2.82357 -5.40224,3.84408 -4.52429,6.30331 l 1.37006,-1.46954 c -0.49358,3.92705 6.73044,3.47463 8.55409,6.86597 0.52289,-4.44218 9.18765,-0.1153 10.44375,-6.81228 1.31146,0.06 -0.0581,1.5267 0.90678,1.9484 0.0885,-2.03869 1.11416,-3.13954 3.7768,-4.0401 l -0.0277,0.50888 c 6.10166,-4.58248 9.71722,-5.06059 17.42768,-8.93836 l -1.58421,-1.21997 c 1.66852,-0.8159 2.32252,-0.53839 3.30195,-0.62645 0.14819,-3.55925 -4.38066,2.74831 -4.55186,-0.95274 4.17821,1.83754 10.803,-7.18481 14.61819,-4.47101 2.36254,-1.56035 -1.91432,-1.35606 0.44813,-2.91263 l 1.28612,0.56488 -0.2608,-1.66432 c 1.68252,-0.82652 3.28623,-0.1184 3.9043,0.67596 -0.4412,0.15299 -0.90622,0.94595 -1.25806,1.28708 2.7766,-0.18325 5.36557,-4.17723 6.30583,-4.26066 l -2.6647,0.91039 c 5.14379,-8.20495 10.22871,-7.49601 -8.17423,-15.52454 z"
   id="path3362-4-8-1-9"
   sodipodi:nodetypes="ccccccccccccccccccccccccccccc"
   style="stroke-width:1.01522" /><path
   d="m 85.939396,317.2807 c 0.111837,-0.70263 -1.138013,-1.77297 0.446423,-2.82847 l 3.941375,3.49691 c 1.463323,-0.35283 1.32476,-4.0692 4.016191,-1.64057 -0.382118,-0.59097 -0.952674,-1.47795 0.02883,-1.70923 14.558401,3.35095 29.685741,-2.96844 44.491471,3.39619 -2.00829,-1.35325 -0.67577,-1.4973 0.85051,-1.5546 -0.99564,-0.3217 0.0103,-1.73813 -0.1906,-2.69005 l 6.19693,2.61378 c 1.1103,-2.65203 6.62685,-0.21456 7.25562,-2.74898 l -1.95423,0.4665 c 2.58294,-2.99896 -3.68542,-6.61739 -3.32901,-10.4514 -2.89257,3.41164 -7.71812,-4.98565 -12.4687,-0.10102 -1.05941,-0.77533 0.89277,-1.23983 0.32221,-2.12479 -1.20136,1.6495 -2.6647,1.99937 -5.38109,1.27694 l 0.30446,-0.40866 c -7.61791,0.44291 -10.89453,-1.15851 -19.46303,-2.19254 l 0.64506,1.89262 c -1.84133,-0.2431 -2.23271,-0.83602 -3.09737,-1.30441 -2.09209,2.88329 5.16967,0.13326 3.26504,3.31157 -2.46461,-3.84185 -12.974037,0.0106 -14.651543,-4.36044 -2.831302,-0.007 0.844789,2.18857 -1.984315,2.1787 l -0.759075,-1.18192 -0.703269,1.53082 c -1.858863,-0.24202 -2.803274,-1.71898 -2.878848,-2.72262 0.452197,0.11656 1.278216,-0.28686 1.759996,-0.37646 -2.414577,-1.38307 -6.780561,0.51242 -7.610085,0.0619 l 2.723552,0.71539 c -8.823509,3.99063 -12.667742,0.58754 -1.776514,17.45488 z"
   id="path3362-4-8-5"
   sodipodi:nodetypes="ccccccccccccccccccccccccccccc"
   style="stroke-width:1.01522" /><path
   d="m 119.95835,208.39018 c 0.46162,-0.54139 -0.0473,-2.10624 1.85501,-2.18138 l 1.54152,5.03851 c 1.43279,0.4614 3.25124,-2.7826 4.28268,0.69277 -0.0182,-0.70351 -0.0429,-1.75785 0.91534,-1.44375 10.67895,10.44679 26.883,12.93669 36.20253,26.08449 -1.0088,-2.20153 0.20354,-1.63007 1.53606,-0.88359 -0.68213,-0.79341 0.91458,-1.47807 1.23916,-2.39522 l 3.92679,5.46022 c 2.32968,-1.68484 5.76769,3.27034 7.62508,1.43494 l -1.91099,-0.62026 c 3.76732,-1.21347 0.30311,-7.56837 2.60535,-10.65487 -4.24667,1.40435 -3.98905,-8.27728 -10.58911,-6.58405 -0.50013,-1.21383 1.40807,-0.59291 1.38229,-1.64554 -1.88493,0.78174 -3.31619,0.31774 -5.25807,-1.71442 l 0.47281,-0.19017 c -6.73254,-3.59191 -8.6945,-6.66625 -15.46863,-12.01409 l -0.43577,1.95146 c -1.44484,-1.16705 -1.46989,-1.87705 -1.96377,-2.72742 -3.28812,1.37057 4.34276,2.80783 1.06091,4.52785 -0.10136,-4.56331 -11.07857,-6.75208 -10.23237,-11.35691 -2.41291,-1.48126 -0.41953,2.30813 -2.82895,0.82538 l -0.0319,-1.40432 -1.39798,0.94002 c -1.46038,-1.17527 -1.4967,-2.92799 -1.03819,-3.82394 0.3252,0.33511 1.24042,0.42129 1.6983,0.59587 -1.34001,-2.43872 -6.05408,-3.09621 -6.52726,-3.91304 l 1.95168,2.02989 c -9.6103,-1.1923 -11.11781,-6.10008 -10.61251,13.97151 z"
   id="path3362-4-8-5-8"
   sodipodi:nodetypes="ccccccccccccccccccccccccccccc"
   style="stroke-width:1.01522" /><path
   d="m 545.56233,296.63571 c -0.0244,0.71104 1.34786,1.61918 -0.0945,2.86191 l -4.34227,-2.98455 c -1.40867,0.53051 -0.81314,4.20143 -3.78339,2.12297 0.45203,0.53939 1.12755,1.34929 0.182,1.69975 -14.86036,-1.53134 -29.09365,6.60402 -44.57087,2.11241 2.15975,1.09543 0.85512,1.40263 -0.65245,1.64757 1.02771,0.19649 0.20397,1.72614 0.52067,2.64606 l -6.47179,-1.83024 c -0.77503,2.76865 -6.54989,1.02958 -6.86153,3.62216 l 1.88183,-0.70378 c -2.19404,3.29418 4.47279,6.11278 4.59154,9.96152 2.45012,-3.7421 8.2737,3.99651 12.38613,-1.43629 1.14687,0.63891 -0.73323,1.34037 -0.0579,2.14829 0.98894,-1.78496 2.39801,-2.31248 5.18271,-1.93031 l -0.25183,0.44306 c 7.5053,-1.37829 10.9543,-0.19284 19.58491,-0.2226 l -0.87337,-1.79869 c 1.85726,0.0144 2.31871,0.55453 3.23452,0.91276 1.72082,-3.11913 -5.1467,0.50481 -3.64844,-2.88374 2.91924,3.50885 12.87387,-1.60938 15.07722,2.52168 2.81055,-0.34219 -1.10807,-2.06778 1.7007,-2.40663 l 0.89893,1.07942 0.50927,-1.60581 c 1.87452,0.0111 2.99374,1.36042 3.19241,2.34711 -0.46311,-0.0599 -1.23311,0.44218 -1.70019,0.59046 2.56661,1.07498 6.66573,-1.34409 7.54444,-0.99919 l -2.79095,-0.37431 c 8.2645,-5.04755 12.49878,-2.14412 -0.38798,-17.54076 z"
   id="path3362-4-8-1-8"
   sodipodi:nodetypes="ccccccccccccccccccccccccccccc"
   style="stroke-width:1.01522" /><path
   d="m 185.3617,135.19099 c 0.62466,-0.34058 0.70883,-1.98395 2.51229,-1.37402 l -0.36171,5.25662 c 1.17314,0.94315 4.03117,-1.43632 3.75195,2.17811 0.23454,-0.66351 0.58842,-1.65701 1.371,-1.02109 6.23827,13.57423 20.48118,21.69275 24.48421,37.30345 -0.15504,-2.41668 0.77286,-1.44956 1.75044,-0.27602 -0.35339,-0.98485 1.38256,-1.0534 2.01358,-1.7939 l 1.71515,6.50323 c 2.77806,-0.74059 4.21729,5.11622 6.60811,4.06618 l -1.56294,-1.26247 c 3.95217,0.21361 2.98888,-6.95979 6.24243,-9.01921 -4.46807,-0.20672 -0.76615,-9.15636 -7.53534,-9.93467 -0.0331,-1.3124 1.52698,-0.0503 1.87923,-1.04259 -2.03983,0.0562 -3.21061,-0.88884 -4.29762,-3.48095 l 0.50955,-0.009 c -5.0034,-5.7615 -5.73657,-9.33408 -10.15105,-16.75033 l -1.10464,1.6667 c -0.93212,-1.60647 -0.70167,-2.27851 -0.85889,-3.24923 -3.5608,0.10442 3.05189,4.17485 -0.62798,4.60788 1.53679,-4.29795 -7.93239,-10.26658 -5.49582,-14.26453 -1.72386,-2.24602 -1.217,2.00558 -2.93706,-0.24057 l 0.47225,-1.32292 -1.64165,0.37809 c -0.94368,-1.61969 -0.35099,-3.26956 0.39754,-3.94237 0.1839,0.42923 1.00782,0.83691 1.37302,1.16366 -0.37956,-2.75662 -4.547,-5.056 -4.69688,-5.98801 l 1.09696,2.59348 c -8.54885,-4.54932 -8.20212,-9.6717 -14.90612,9.25397 z"
   id="path3362-4-8-5-8-9"
   sodipodi:nodetypes="ccccccccccccccccccccccccccccc"
   style="stroke-width:1.01522" /></svg>
