<?xml version="1.0" encoding="UTF-8" standalone="no"?>
<svg
   viewBox="0 0 30.000001 18.782608"
   height="18.782608"
   width="30"
   version="1.1"
   id="svg8"
   sodipodi:docname="va-bridge.svg"
   inkscape:version="1.2.1 (9c6d41e410, 2022-07-14)"
   xmlns:inkscape="http://www.inkscape.org/namespaces/inkscape"
   xmlns:sodipodi="http://sodipodi.sourceforge.net/DTD/sodipodi-0.dtd"
   xmlns="http://www.w3.org/2000/svg"
   xmlns:svg="http://www.w3.org/2000/svg"
   xmlns:rdf="http://www.w3.org/1999/02/22-rdf-syntax-ns#"
   xmlns:cc="http://creativecommons.org/ns#"
   xmlns:dc="http://purl.org/dc/elements/1.1/">
  <metadata
     id="metadata14">
    <rdf:RDF>
      <cc:Work
         rdf:about="">
        <dc:format>image/svg+xml</dc:format>
        <dc:type
           rdf:resource="http://purl.org/dc/dcmitype/StillImage" />
        <dc:title>cross-11.svg</dc:title>
      </cc:Work>
    </rdf:RDF>
  </metadata>
  <defs
     id="defs12" />
  <sodipodi:namedview
     fit-margin-bottom="0"
     fit-margin-right="0"
     fit-margin-left="0"
     fit-margin-top="0"
     inkscape:pagecheckerboard="true"
     pagecolor="#ffffff"
     bordercolor="#666666"
     borderopacity="1"
     objecttolerance="10"
     gridtolerance="10"
     guidetolerance="10"
     inkscape:pageopacity="0"
     inkscape:pageshadow="2"
     inkscape:window-width="1920"
     inkscape:window-height="974"
     id="namedview10"
     showgrid="false"
     inkscape:zoom="11.125147"
     inkscape:cx="6.7864273"
     inkscape:cy="3.3257988"
     inkscape:window-x="-11"
     inkscape:window-y="-11"
     inkscape:window-maximized="1"
     inkscape:current-layer="svg8"
     inkscape:document-rotation="0"
     inkscape:showpageshadow="2"
     inkscape:deskcolor="#d1d1d1" />
  <title
     id="title2">cross-11.svg</title>
  <rect
     fill="none"
     x="-10.62645"
     y="-8.5927372"
     width="15"
     height="15"
     id="rect4" />
  <g
     id="g8657"
     transform="matrix(1.0944927,0,0,1.0944927,5,3.1304347)">
    <g
       id="g8637">
      <path
         id="rect1382"
         style="fill:#ffffff;fill-opacity:1;fill-rule:evenodd;stroke-width:1.484;paint-order:markers fill stroke"
         d="M 0,0 H 18.273306 V 11.440678 H 13.70498 c -1.522776,0 0.143952,-4.4712295 -4.4559689,-4.4269079 C 4.1260845,7.063131 6.091102,11.440678 4.5683265,11.440678 H 0 Z"
         sodipodi:nodetypes="cccssscc" />
    </g>
    <path
       d="M 17.670931,3.7820835 H 0.67509974 c -0.1758187,0 -0.29301972,-0.117201 -0.29301972,-0.2930197 V 2.3169506 c 0,-0.1758187 0.11720102,-0.2930198 0.29301972,-0.2930198 H 17.670896 c 0.175819,0 0.29302,0.1172011 0.29302,0.2930198 v 1.1721132 c 3.4e-5,0.1758187 -0.117167,0.2930197 -0.292985,0.2930197 z M 0.9681538,3.1960441 H 17.377911 V 2.6099703 H 0.9681538 Z"
       id="path38"
       style="stroke-width:0.0343396" />
    <path
       d="m 17.084857,11.107886 h -2.9303 c -0.175819,0 -0.29302,-0.117201 -0.29302,-0.29302 0,-2.578663 -2.109825,-4.6884874 -4.6884876,-4.6884874 -2.5786628,0 -4.6884872,2.1098244 -4.6884872,4.6884874 0,0.175819 -0.1172011,0.29302 -0.2930198,0.29302 H 1.2611735 c -0.1758187,0 -0.2930197,-0.117201 -0.2930197,-0.29302 V 3.4890638 c 0,-0.1758187 0.117201,-0.2930197 0.2930197,-0.2930197 H 17.084857 c 0.175818,0 0.29302,0.117201 0.29302,0.2930197 v 7.3257682 c 0,0.175818 -0.117202,0.293054 -0.29302,0.293054 z m -2.637281,-0.586074 h 2.344261 V 3.7820835 H 1.5541932 V 10.521812 H 3.898454 C 4.0449811,7.7380043 6.3599158,5.5402705 9.1730151,5.5402705 c 2.8130989,0 5.1280339,2.1977338 5.2745609,4.9815415 z"
       id="path40"
       style="stroke-width:0.0343396" />
    <path
       d="m 2.140267,2.6099703 c -0.1758187,0 -0.2930197,-0.117201 -0.2930197,-0.2930197 V 0.5587635 c 0,-0.1758187 0.117201,-0.2930197 0.2930197,-0.2930197 0.1758187,0 0.2930197,0.117201 0.2930197,0.2930197 v 1.7581871 c 0,0.1758187 -0.117201,0.2930197 -0.2930197,0.2930197 z"
       id="path42"
       style="stroke-width:0.0343396" />
    <path
       d="m 9.1730151,2.6099703 c -0.1758187,0 -0.2930198,-0.117201 -0.2930198,-0.2930197 V 0.5587635 c 0,-0.1758187 0.1172011,-0.2930197 0.2930198,-0.2930197 0.1758187,0 0.2930197,0.117201 0.2930197,0.2930197 v 1.7581871 c 0,0.1758187 -0.117201,0.2930197 -0.2930197,0.2930197 z"
       id="path44"
       style="stroke-width:0.0343396" />
    <path
       d="m 10.931202,2.6099703 c -0.175819,0 -0.29302,-0.117201 -0.29302,-0.2930197 V 0.5587635 c 0,-0.1758187 0.117201,-0.2930197 0.29302,-0.2930197 0.175819,0 0.29302,0.117201 0.29302,0.2930197 v 1.7581871 c 0,0.1758187 -0.117201,0.2930197 -0.29302,0.2930197 z"
       id="path46"
       style="stroke-width:0.0343396" />
    <path
       d="m 12.689389,2.6099703 c -0.175818,0 -0.293019,-0.117201 -0.293019,-0.2930197 V 0.5587635 c 0,-0.1758187 0.117201,-0.2930197 0.293019,-0.2930197 0.175819,0 0.29302,0.117201 0.29302,0.2930197 v 1.7581871 c 0,0.1758187 -0.117201,0.2930197 -0.29302,0.2930197 z"
       id="path48"
       style="stroke-width:0.0343396" />
    <path
       d="m 14.447576,2.6099703 c -0.175818,0 -0.293019,-0.117201 -0.293019,-0.2930197 V 0.5587635 c 0,-0.1758187 0.117201,-0.2930197 0.293019,-0.2930197 0.175819,0 0.29302,0.117201 0.29302,0.2930197 v 1.7581871 c 0,0.1758187 -0.117201,0.2930197 -0.29302,0.2930197 z"
       id="path50"
       style="stroke-width:0.0343396" />
    <path
       d="m 16.205763,2.6099703 c -0.175818,0 -0.293019,-0.117201 -0.293019,-0.2930197 V 0.5587635 c 0,-0.1758187 0.117201,-0.2930197 0.293019,-0.2930197 0.175819,0 0.29302,0.117201 0.29302,0.2930197 v 1.7581871 c 0,0.1758187 -0.117201,0.2930197 -0.29302,0.2930197 z"
       id="path52"
       style="stroke-width:0.0343396" />
    <path
       d="m 5.656641,2.6099703 c -0.1758187,0 -0.2930197,-0.117201 -0.2930197,-0.2930197 V 0.5587635 c 0,-0.1758187 0.117201,-0.2930197 0.2930197,-0.2930197 0.1758187,0 0.2930198,0.117201 0.2930198,0.2930197 v 1.7581871 c 0,0.1758187 -0.1172011,0.2930197 -0.2930198,0.2930197 z"
       id="path54"
       style="stroke-width:0.0343396" />
    <path
       d="m 3.898454,2.6099703 c -0.1758187,0 -0.2930197,-0.117201 -0.2930197,-0.2930197 V 0.5587635 c 0,-0.1758187 0.117201,-0.2930197 0.2930197,-0.2930197 0.1758187,0 0.2930198,0.117201 0.2930198,0.2930197 v 1.7581871 c 0,0.1758187 -0.1172011,0.2930197 -0.2930198,0.2930197 z"
       id="path56"
       style="stroke-width:0.0343396" />
    <path
       d="m 7.4148281,2.6099703 c -0.1758187,0 -0.2930198,-0.117201 -0.2930198,-0.2930197 V 0.5587635 c 0,-0.1758187 0.1172011,-0.2930197 0.2930198,-0.2930197 0.1758187,0 0.2930197,0.117201 0.2930197,0.2930197 v 1.7581871 c 0,0.1758187 -0.117201,0.2930197 -0.2930197,0.2930197 z"
       id="path58"
       style="stroke-width:0.0343396" />
    <path
       d="M 17.670931,0.8517833 H 0.67509974 c -0.1758187,0 -0.29301972,-0.1172011 -0.29301972,-0.2930198 0,-0.1758187 0.11720102,-0.2930197 0.29301972,-0.2930197 H 17.670896 c 0.175819,0 0.29302,0.117201 0.29302,0.2930197 0,0.1758187 -0.117167,0.2930198 -0.292985,0.2930198 z"
       id="path60"
       style="stroke-width:0.0343396" />
    <path
       d="M 3.6054343,5.2472508 H 2.4332867 c -0.1758187,0 -0.2930197,-0.117201 -0.2930197,-0.2930197 0,-0.1758187 0.117201,-0.2930198 0.2930197,-0.2930198 H 3.6054 c 0.1758187,0 0.2930197,0.1172011 0.2930197,0.2930198 3.43e-5,0.1758187 -0.1171667,0.2930197 -0.2929854,0.2930197 z"
       id="path62"
       style="stroke-width:0.0343396" />
    <path
       d="M 4.4845278,6.7124181 H 3.3123803 c -0.1758187,0 -0.2930198,-0.117201 -0.2930198,-0.2930197 0,-0.1758187 0.1172011,-0.2930198 0.2930198,-0.2930198 h 1.1721132 c 0.1758187,0 0.2930197,0.1172011 0.2930197,0.2930198 0,0.1758187 -0.1171667,0.2930197 -0.2929854,0.2930197 z"
       id="path64"
       style="stroke-width:0.0343396" />
    <path
       d="M 15.912744,5.2472508 H 14.74063 c -0.175818,0 -0.293019,-0.117201 -0.293019,-0.2930197 0,-0.1758187 0.117201,-0.2930198 0.293019,-0.2930198 h 1.172114 c 0.175818,0 0.293019,0.1172011 0.293019,0.2930198 0,0.1758187 -0.117201,0.2930197 -0.293019,0.2930197 z"
       id="path66"
       style="stroke-width:0.0343396" />
    <path
       d="m 15.03365,6.7124181 h -1.172113 c -0.175819,0 -0.29302,-0.117201 -0.29302,-0.2930197 0,-0.1758187 0.117201,-0.2930198 0.29302,-0.2930198 h 1.172113 c 0.175819,0 0.29302,0.1172011 0.29302,0.2930198 0,0.1758187 -0.117201,0.2930197 -0.29302,0.2930197 z"
       id="path68"
       style="stroke-width:0.0343396" />
  </g>
</svg>
