<?xml version="1.0" encoding="UTF-8" standalone="no"?>
<svg
   viewBox="0 0 15 15"
   height="15"
   width="15"
   version="1.1"
   id="svg8"
   sodipodi:docname="va-bridge.svg"
   inkscape:version="1.2.1 (9c6d41e410, 2022-07-14)"
   xmlns:inkscape="http://www.inkscape.org/namespaces/inkscape"
   xmlns:sodipodi="http://sodipodi.sourceforge.net/DTD/sodipodi-0.dtd"
   xmlns="http://www.w3.org/2000/svg"
   xmlns:svg="http://www.w3.org/2000/svg"
   xmlns:rdf="http://www.w3.org/1999/02/22-rdf-syntax-ns#"
   xmlns:cc="http://creativecommons.org/ns#"
   xmlns:dc="http://purl.org/dc/elements/1.1/">
  <metadata
     id="metadata14">
    <rdf:RDF>
      <cc:Work
         rdf:about="">
        <dc:format>image/svg+xml</dc:format>
        <dc:type
           rdf:resource="http://purl.org/dc/dcmitype/StillImage" />
        <dc:title>cross-11.svg</dc:title>
      </cc:Work>
    </rdf:RDF>
  </metadata>
  <defs
     id="defs12" />
  <sodipodi:namedview
     fit-margin-bottom="0"
     fit-margin-right="0"
     fit-margin-left="0"
     fit-margin-top="0"
     inkscape:pagecheckerboard="true"
     pagecolor="#ffffff"
     bordercolor="#666666"
     borderopacity="1"
     objecttolerance="10"
     gridtolerance="10"
     guidetolerance="10"
     inkscape:pageopacity="0"
     inkscape:pageshadow="2"
     inkscape:window-width="1920"
     inkscape:window-height="974"
     id="namedview10"
     showgrid="false"
     inkscape:zoom="15.303139"
     inkscape:cx="5.4563968"
     inkscape:cy="19.342437"
     inkscape:window-x="-11"
     inkscape:window-y="-11"
     inkscape:window-maximized="1"
     inkscape:current-layer="svg8"
     inkscape:document-rotation="0"
     inkscape:showpageshadow="2"
     inkscape:deskcolor="#d1d1d1" />
  <title
     id="title2">cross-11.svg</title>
  <path
     d="M 20,-0.60869632 V 19.391304 H 0 V -0.60869632 Z m -9.505425,19.38153432 -0.0096,0.0014 -0.05922,0.02961 -0.01583,0.0031 v 0 l -0.01263,-0.0031 -0.05922,-0.02961 c -0.0082,-0.0026 -0.01551,-4.07e-4 -0.01959,0.0045 l -0.0034,0.0091 -0.01424,0.356066 0.0042,0.01699 0.0092,0.01018 0.08631,0.06165 0.01239,0.0032 v 0 l 0.0098,-0.0032 0.08631,-0.06165 0.0105,-0.01337 v 0 l 0.0028,-0.0138 -0.01424,-0.356066 c -0.0017,-0.0084 -0.0071,-0.01378 -0.01339,-0.01499 z m 0.220751,-0.0938 -0.01153,0.0017 -0.15392,0.07696 -0.0083,0.0085 v 0 l -0.0022,0.0093 0.01492,0.35794 0.004,0.01065 v 0 l 0.0071,0.0059 0.167462,0.07729 c 0.01008,0.0031 0.01908,-2.1e-4 0.02374,-0.0067 l 0.0033,-0.01172 -0.02846,-0.512193 c -0.002,-0.01 -0.0086,-0.01628 -0.01608,-0.01771 z m -0.59612,0.0017 c -0.0082,-0.0041 -0.01739,-0.0017 -0.02284,0.0044 l -0.0047,0.01162 -0.02846,0.512192 c -5.33e-4,0.0096 0.0058,0.01725 0.01407,0.0195 l 0.01301,-0.0011 0.167462,-0.07729 0.0078,-0.0068 v 0 l 0.0032,-0.0098 0.01492,-0.35794 -0.0027,-0.01049 v 0 l -0.0079,-0.0074 z"
     id="MingCute"
     fill-rule="nonzero"
     style="fill:none;stroke:none;stroke-width:0.833333;stroke-opacity:1" />
  <path
     d="M 2.5,7.3945275 V 10.166527 H 3.8333333 V 9.4998607 C 3.8573333,8.7738608 4.4406667,8.1905275 5.1666667,8.1665275 5.8926667,8.1905275 6.476,8.7738608 6.5,9.4998607 v 0.6666663 h 2 V 9.4998607 C 8.524,8.7738608 9.1073333,8.1905275 9.8333333,8.1665275 c 0.7259997,0.024 1.3093337,0.6073333 1.3333337,1.3333332 V 10.166527 H 12.5 V 7.3945275 c -2.9333333,-3.84 -7.9526667,-2.9613334 -10,0 z m 6.3333333,-2.072 c 0.3426667,0.080667 0.6773334,0.1926666 1,0.3333333 v 1.844 h -1 z M 8.5,5.2558608 v 2.244 h -1 V 5.1705275 c 0.3353333,0 0.67,0.028667 1,0.085333 z m -3.6666667,0.562 c 0.32,-0.1653333 0.6546667,-0.3006667 1,-0.404 v 2.086 h -1 z m 1.3333334,1.682 v -2.18 c 0.3286666,-0.076667 0.6633333,-0.1246667 1,-0.1433333 V 7.4998608 Z M 4.5,5.9958608 v 1.504 H 2.8333333 C 3.284,6.8958608 3.8546667,6.3851941 4.5,5.9958608 Z m 5.666667,1.504 V 5.8331941 l -0.03533,-0.035333 c 0.801333,0.402 1.498,0.9846667 2.035333,1.702 z"
     id="path5655"
     style="stroke-width:0.666666" />
</svg>
