<?xml version="1.0" encoding="UTF-8" standalone="no"?>
<svg
   inkscape:version="1.2.1 (9c6d41e410, 2022-07-14)"
   sodipodi:docname="va-ferry.svg"
   id="svg8"
   version="1.1"
   width="15"
   height="15"
   viewBox="0 0 15 15"
   xmlns:inkscape="http://www.inkscape.org/namespaces/inkscape"
   xmlns:sodipodi="http://sodipodi.sourceforge.net/DTD/sodipodi-0.dtd"
   xmlns="http://www.w3.org/2000/svg"
   xmlns:svg="http://www.w3.org/2000/svg"
   xmlns:rdf="http://www.w3.org/1999/02/22-rdf-syntax-ns#"
   xmlns:cc="http://creativecommons.org/ns#"
   xmlns:dc="http://purl.org/dc/elements/1.1/">
  <metadata
     id="metadata14">
    <rdf:RDF>
      <cc:Work
         rdf:about="">
        <dc:format>image/svg+xml</dc:format>
        <dc:type
           rdf:resource="http://purl.org/dc/dcmitype/StillImage" />
        <dc:title>cross-11.svg</dc:title>
      </cc:Work>
    </rdf:RDF>
  </metadata>
  <defs
     id="defs12" />
  <sodipodi:namedview
     inkscape:document-rotation="0"
     inkscape:current-layer="svg8"
     inkscape:window-maximized="1"
     inkscape:window-y="-11"
     inkscape:window-x="-11"
     inkscape:cy="15.603814"
     inkscape:cx="11.329449"
     inkscape:zoom="31.466666"
     showgrid="false"
     id="namedview10"
     inkscape:window-height="974"
     inkscape:window-width="1920"
     inkscape:pageshadow="2"
     inkscape:pageopacity="0"
     guidetolerance="10"
     gridtolerance="10"
     objecttolerance="10"
     borderopacity="1"
     bordercolor="#666666"
     pagecolor="#ffffff"
     inkscape:showpageshadow="2"
     inkscape:pagecheckerboard="0"
     inkscape:deskcolor="#d1d1d1" />
  <title
     id="title2">cross-11.svg</title>
  <path
     fill="#000000"
     fill-opacity="1"
     stroke-width="0.0451126"
     stroke-linejoin="round"
     d="m 9.74465,7.209855 c 0,-0.36949 -0.17154,-0.55423 -0.51465,-0.55423 -0.34626,0 -0.5194,0.18474 -0.5194,0.55423 0,0.37687 0.17314,0.56531 0.5194,0.56531 0.34311,0 0.51465,-0.18844 0.51465,-0.56531 z M 3.57143,11.249995 2.5,7.678575 H 4.64285 V 5.535725 H 5.71428 L 6.24999,3.750005 H 7.5 v 1.78572 h 2.85715 v 1.07143 h 1.07142 v 1.07142 H 12.5 l -1.07143,3.57142 z m 4.48993,-4.04014 c 0,-0.36949 -0.17154,-0.55423 -0.51465,-0.55423 -0.34944,0 -0.52414,0.18474 -0.52414,0.55423 0,0.37687 0.1747,0.56531 0.52414,0.56531 0.34311,0 0.51465,-0.18844 0.51465,-0.56531 z m -1.6532,0 c 0,-0.36949 -0.17472,-0.55423 -0.52414,-0.55423 -0.34945,0 -0.52417,0.18474 -0.52417,0.55423 0,0.37687 0.17472,0.56531 0.52417,0.56531 0.34942,0 0.52414,-0.18844 0.52414,-0.56531 z"
     id="path620" />
</svg>
