<?xml version="1.0" encoding="UTF-8" standalone="no"?>
<svg
   inkscape:version="1.2.1 (9c6d41e410, 2022-07-14)"
   sodipodi:docname="va-ford.svg"
   id="svg8"
   version="1.1"
   width="15"
   height="15"
   viewBox="0 0 15 15"
   xmlns:inkscape="http://www.inkscape.org/namespaces/inkscape"
   xmlns:sodipodi="http://sodipodi.sourceforge.net/DTD/sodipodi-0.dtd"
   xmlns="http://www.w3.org/2000/svg"
   xmlns:svg="http://www.w3.org/2000/svg"
   xmlns:rdf="http://www.w3.org/1999/02/22-rdf-syntax-ns#"
   xmlns:cc="http://creativecommons.org/ns#"
   xmlns:dc="http://purl.org/dc/elements/1.1/">
  <metadata
     id="metadata14">
    <rdf:RDF>
      <cc:Work
         rdf:about="">
        <dc:format>image/svg+xml</dc:format>
        <dc:type
           rdf:resource="http://purl.org/dc/dcmitype/StillImage" />
      </cc:Work>
    </rdf:RDF>
  </metadata>
  <defs
     id="defs12" />
  <sodipodi:namedview
     inkscape:document-rotation="0"
     inkscape:current-layer="svg8"
     inkscape:window-maximized="1"
     inkscape:window-y="-11"
     inkscape:window-x="-11"
     inkscape:cy="7.5000002"
     inkscape:cx="-5.3072035"
     inkscape:zoom="15.733333"
     showgrid="false"
     id="namedview10"
     inkscape:window-height="974"
     inkscape:window-width="1920"
     inkscape:pageshadow="2"
     inkscape:pageopacity="0"
     guidetolerance="10"
     gridtolerance="10"
     objecttolerance="10"
     borderopacity="1"
     bordercolor="#666666"
     pagecolor="#ffffff"
     inkscape:showpageshadow="2"
     inkscape:pagecheckerboard="0"
     inkscape:deskcolor="#d1d1d1" />
  <title
     id="title2">cross-11.svg</title>
  <path
     fill="#000"
     d="M 4.2,3.19 7.5,6.4900001 10.8,3.2 c 0.1314,-0.1337 0.3127,-0.2062 0.5,-0.2 0.3761,0.0243 0.6757,0.3239 0.7,0.7 0.0018,0.1806 -0.0705,0.3541001 -0.2,0.48 L 8.4900005,7.5 11.8,10.82 c 0.129501,0.1259 0.201801,0.2994 0.2,0.48 -0.0243,0.3761 -0.3239,0.6757 -0.7,0.7 -0.1873,0.0062 -0.3686,-0.0663 -0.5,-0.2 L 7.5,8.51 4.21,11.8 C 4.0786,11.9337 3.8973,12.0062 3.71,12 3.3265,11.98 3.02,11.6735 3,11.29 2.9982,11.1094 3.0705,10.9359 3.2,10.81 L 6.51,7.5 3.19,4.18 C 3.0641,4.0524 2.9955,3.8792 3,3.7 3.0243,3.3239 3.3239,3.0243 3.7,3 3.8858,2.9912 4.0669,3.06 4.2,3.19 Z"
     id="path6-3"
     style="fill:#000000;fill-opacity:1;stroke-width:2;stroke-miterlimit:4;stroke-dasharray:none;stroke:#ffffff;stroke-opacity:1" />
  <rect
     id="rect4"
     height="15"
     width="15"
     y="0"
     x="0"
     fill="none" />
  <path
     d="m 5.4104873,2.4851695 -2.9253178,2.5074153 2.9253178,2.507415 v -1.67161 h 4.1790252 v 1.67161 L 12.514831,4.9925848 9.5895125,2.4851695 V 4.1567797 H 5.4104873 Z M 4.1567797,7.9179024 c -0.4462347,0 -1.2472594,0.8358051 -1.6716102,0.8358051 v 1.2537075 c 0.4489812,0 1.2749572,-0.8358046 1.6716102,-0.8358046 0.4214438,0 1.2253755,0.8358046 1.6716102,0.8358046 0.3974269,0 1.2472593,-0.8358046 1.6716101,-0.8358046 0.4214439,0 1.2718697,0.8358046 1.6716105,0.8358046 0.421444,0 1.2749575,-0.8358046 1.6716095,-0.8358046 0.396654,0 1.250166,0.8358046 1.67161,0.8358046 V 8.7537075 c -0.347071,0 -1.225375,-0.8605959 -1.67161,-0.8358051 -0.399741,0 -1.2246865,0.8358051 -1.6716095,0.8358051 -0.3718625,0 -1.2501666,-0.8358051 -1.6716105,-0.8358051 -0.4214438,0 -1.2989221,0.8358051 -1.6716101,0.8358051 -0.397427,0 -1.2253755,-0.8358051 -1.6716102,-0.8358051 z m 0,2.5074146 c -0.4462347,0 -1.2472594,0.835805 -1.6716102,0.835805 v 1.253708 c 0.4489812,0 1.2749572,-0.835805 1.6716102,-0.835805 0.4214438,0 1.2253755,0.835805 1.6716102,0.835805 0.3974269,0 1.2472593,-0.835805 1.6716101,-0.835805 0.4214439,0 1.2718697,0.835805 1.6716105,0.835805 0.421444,0 1.2749575,-0.835805 1.6716095,-0.835805 0.396654,0 1.250166,0.835805 1.67161,0.835805 v -1.253708 c -0.347071,0 -1.225375,-0.860596 -1.67161,-0.835805 -0.399741,0 -1.2246865,0.835805 -1.6716095,0.835805 -0.3718625,0 -1.2501666,-0.835805 -1.6716105,-0.835805 -0.4214438,0 -1.2989221,0.835805 -1.6716101,0.835805 -0.397427,0 -1.2253755,-0.835805 -1.6716102,-0.835805 z"
     id="ford"
     style="color:#000000;fill:#000000;fill-opacity:1;stroke-width:0.835805" />
</svg>
