<?xml version="1.0" encoding="UTF-8" standalone="no"?>
<svg
   inkscape:version="1.2.1 (9c6d41e410, 2022-07-14)"
   sodipodi:docname="va-ford.svg"
   id="svg8"
   version="1.1"
   width="15"
   height="15"
   viewBox="0 0 15 15"
   xmlns:inkscape="http://www.inkscape.org/namespaces/inkscape"
   xmlns:sodipodi="http://sodipodi.sourceforge.net/DTD/sodipodi-0.dtd"
   xmlns="http://www.w3.org/2000/svg"
   xmlns:svg="http://www.w3.org/2000/svg"
   xmlns:rdf="http://www.w3.org/1999/02/22-rdf-syntax-ns#"
   xmlns:cc="http://creativecommons.org/ns#"
   xmlns:dc="http://purl.org/dc/elements/1.1/">
  <metadata
     id="metadata14">
    <rdf:RDF>
      <cc:Work
         rdf:about="">
        <dc:format>image/svg+xml</dc:format>
        <dc:type
           rdf:resource="http://purl.org/dc/dcmitype/StillImage" />
      </cc:Work>
    </rdf:RDF>
  </metadata>
  <defs
     id="defs12" />
  <sodipodi:namedview
     inkscape:document-rotation="0"
     inkscape:current-layer="svg8"
     inkscape:window-maximized="1"
     inkscape:window-y="-11"
     inkscape:window-x="-11"
     inkscape:cy="7.5000002"
     inkscape:cx="-6.8326273"
     inkscape:zoom="15.733333"
     showgrid="false"
     id="namedview10"
     inkscape:window-height="974"
     inkscape:window-width="1920"
     inkscape:pageshadow="2"
     inkscape:pageopacity="0"
     guidetolerance="10"
     gridtolerance="10"
     objecttolerance="10"
     borderopacity="1"
     bordercolor="#666666"
     pagecolor="#ffffff"
     inkscape:showpageshadow="2"
     inkscape:pagecheckerboard="0"
     inkscape:deskcolor="#d1d1d1" />
  <title
     id="title2">cross-11.svg</title>
  <rect
     id="rect4"
     height="15"
     width="15"
     y="0"
     x="0"
     fill="none" />
  <path
     d="M 5.4104868,2.4851697 2.485169,4.992585 5.4104868,7.5 V 5.82839 H 9.589512 V 7.5 L 12.514831,4.992585 9.589512,2.4851697 V 4.1567799 H 5.4104868 Z M 4.1567792,7.9179026 c -0.4462347,0 -1.2472594,0.8358051 -1.6716102,0.8358051 v 1.2537073 c 0.4489812,0 1.2749572,-0.8358044 1.6716102,-0.8358044 0.4214438,0 1.2253755,0.8358044 1.6716102,0.8358044 0.3974269,0 1.2472593,-0.8358044 1.6716101,-0.8358044 0.4214439,0 1.2718697,0.8358044 1.6716105,0.8358044 0.421444,0 1.274958,-0.8358044 1.67161,-0.8358044 0.396654,0 1.250166,0.8358044 1.67161,0.8358044 V 8.7537077 c -0.347071,0 -1.225375,-0.8605959 -1.67161,-0.8358051 -0.399741,0 -1.224687,0.8358051 -1.67161,0.8358051 -0.3718625,0 -1.2501666,-0.8358051 -1.6716105,-0.8358051 -0.4214438,0 -1.2989221,0.8358051 -1.6716101,0.8358051 -0.397427,0 -1.2253755,-0.8358051 -1.6716102,-0.8358051 z m 0,2.5074144 c -0.4462347,0 -1.2472594,0.835805 -1.6716102,0.835805 v 1.253708 c 0.4489812,0 1.2749572,-0.835805 1.6716102,-0.835805 0.4214438,0 1.2253755,0.835805 1.6716102,0.835805 0.3974269,0 1.2472593,-0.835805 1.6716101,-0.835805 0.4214439,0 1.2718697,0.835805 1.6716105,0.835805 0.421444,0 1.274958,-0.835805 1.67161,-0.835805 0.396654,0 1.250166,0.835805 1.67161,0.835805 v -1.253708 c -0.347071,0 -1.225375,-0.860596 -1.67161,-0.835805 -0.399741,0 -1.224687,0.835805 -1.67161,0.835805 -0.3718625,0 -1.2501666,-0.835805 -1.6716105,-0.835805 -0.4214438,0 -1.2989221,0.835805 -1.6716101,0.835805 -0.397427,0 -1.2253755,-0.835805 -1.6716102,-0.835805 z"
     id="ford"
     style="color:#000000;fill:#000000;fill-opacity:1;stroke-width:0.835805" />
</svg>
