<?xml version="1.0" encoding="UTF-8" standalone="no"?>
<svg
   inkscape:version="1.2.1 (9c6d41e410, 2022-07-14)"
   sodipodi:docname="va-pass.svg"
   id="svg8"
   version="1.1"
   width="15"
   height="15"
   viewBox="0 0 15 15"
   xmlns:inkscape="http://www.inkscape.org/namespaces/inkscape"
   xmlns:sodipodi="http://sodipodi.sourceforge.net/DTD/sodipodi-0.dtd"
   xmlns="http://www.w3.org/2000/svg"
   xmlns:svg="http://www.w3.org/2000/svg"
   xmlns:rdf="http://www.w3.org/1999/02/22-rdf-syntax-ns#"
   xmlns:cc="http://creativecommons.org/ns#"
   xmlns:dc="http://purl.org/dc/elements/1.1/">
  <metadata
     id="metadata14">
    <rdf:RDF>
      <cc:Work
         rdf:about="">
        <dc:format>image/svg+xml</dc:format>
        <dc:type
           rdf:resource="http://purl.org/dc/dcmitype/StillImage" />
        <dc:title>cross-11.svg</dc:title>
      </cc:Work>
    </rdf:RDF>
  </metadata>
  <defs
     id="defs12" />
  <sodipodi:namedview
     inkscape:document-rotation="0"
     inkscape:current-layer="svg8"
     inkscape:window-maximized="1"
     inkscape:window-y="-11"
     inkscape:window-x="-11"
     inkscape:cy="7.5000002"
     inkscape:cx="-6.8326273"
     inkscape:zoom="15.733333"
     showgrid="false"
     id="namedview10"
     inkscape:window-height="974"
     inkscape:window-width="1920"
     inkscape:pageshadow="2"
     inkscape:pageopacity="0"
     guidetolerance="10"
     gridtolerance="10"
     objecttolerance="10"
     borderopacity="1"
     bordercolor="#666666"
     pagecolor="#ffffff"
     inkscape:showpageshadow="2"
     inkscape:pagecheckerboard="0"
     inkscape:deskcolor="#d1d1d1" />
  <title
     id="title2">cross-11.svg</title>
  <rect
     id="rect4"
     height="15"
     width="15"
     y="0"
     x="0"
     fill="none" />
  <path
     d="m 5.4104873,2.4851695 -2.9253178,2.5074153 2.9253178,2.507415 v -1.67161 h 4.1790252 v 1.67161 L 12.514831,4.9925848 9.5895125,2.4851695 V 4.1567797 H 5.4104873 Z"
     id="ford"
     style="color:#000000;fill:#000000;fill-opacity:1;stroke-width:0.835805"
     sodipodi:nodetypes="ccccccccccc" />
  <path
     d="m 7.5,7.275424 c -0.156258,0 -0.208344,0.1029276 -0.312516,0.2058552 L 4.1664929,12.370338 c -0.052086,0.05146 -0.052086,0.154392 -0.052086,0.205855 0,0.257319 0.2083442,0.360247 0.3646023,0.360247 h 6.0419818 c 0.208344,0 0.364602,-0.102928 0.364602,-0.360247 0,-0.102927 0,-0.102927 -0.05209,-0.205855 L 7.864602,7.4812792 C 7.76043,7.3783516 7.656258,7.275424 7.5,7.275424 Z m 0,0.7719568 1.718839,2.8305082 H 8.802151 L 8.02086,10.105932 7.5,10.877889 6.97914,10.105932 6.1978488,10.877889 H 5.7290744 Z"
     id="path898"
     style="stroke-width:0.51774" />
</svg>
